<?xml version="1.0" standalone="no"?>
<!DOCTYPE svg PUBLIC "-//W3C//DTD SVG 1.1//EN" "http://www.w3.org/Graphics/SVG/1.1/DTD/svg11.dtd" >
<svg>
<metadata>
Created by FontForge 20120731 at Thu Aug  4 05:48:16 2016
 By www
Copyright (c) 2014 by Jay Hilgert. All rights reserved.
</metadata>
<defs>
<font id="MicrobrewOne3DW01-Regular" horiz-adv-x="260" >
  <font-face 
    font-family="MicrobrewOne3DW01-Regular"
    font-weight="400"
    font-stretch="normal"
    units-per-em="1000"
    panose-1="2 0 5 6 0 0 0 2 0 4"
    ascent="800"
    descent="-200"
    x-height="701"
    cap-height="701"
    bbox="0 -225 1003 882"
    underline-thickness="50"
    underline-position="-125"
    unicode-range="U+0002-2122"
  />
<missing-glyph horiz-adv-x="0" 
 />
    <glyph glyph-name=".notdef" horiz-adv-x="0" 
 />
    <glyph glyph-name=".null" horiz-adv-x="0" 
 />
    <glyph glyph-name="uni000D" unicode="&#xd;" horiz-adv-x="255" 
 />
    <glyph glyph-name="glyph24" horiz-adv-x="0" 
 />
    <glyph glyph-name="glyph24" horiz-adv-x="0" 
 />
    <glyph glyph-name="uni0002" horiz-adv-x="0" 
 />
    <glyph glyph-name="uni0009" unicode="&#x9;" horiz-adv-x="1020" 
 />
    <glyph glyph-name="uni000A" unicode="&#xa;" horiz-adv-x="0" 
 />
    <glyph glyph-name="space" unicode=" " horiz-adv-x="255" 
 />
    <glyph glyph-name="exclam" unicode="!" 
d="M192 663v-44l-4 -31v-60l-3 -15l4 -16l-5 -26l2 -17v-30l-3 -31v-53l-6 -77l2 -31l-3 -11v-15l-5 -28l-34 -6l-17 -5l-32 7l-7 29v60l-3 18l3 43l-4 10l-2 32l2 31l-3 13l3 19l-5 14l3 15v26l-3 16v45l-2 12v20l-3 27l2 14l-3 29l5 49l27 4h46l43 -4zM227 633v-44l-4 -31
v-60l-3 -15l4 -16l-5 -26l2 -17v-30l-3 -31v-53l-6 -77l2 -31l-3 -11v-15l-5 -28l-34 -6l-17 -5l-32 7l-2 7l19 6l45 8l6 39v14l3 12q0 7 -1 16t-1 16l6 77v53l3 31v31q0 3 -1 8t-1 9l5 27l-4 15l3 12v62l4 31v46l-1 3l16 -1zM84 84l18 20l15 4l28 -2l23 -10l17 -27l-3 -26
l-5 -19l-9 -11l-11 -8l-14 -5h-30l-10 6l-22 21l-4 14l-3 27zM128 -15h19l13 5l22 15l9 11l6 25l3 26l3 -1l17 -27l-3 -26l-5 -19l-9 -11l-11 -8l-14 -5h-30l-10 6z" />
    <glyph glyph-name="quotedbl" unicode="&#x22;" horiz-adv-x="390" 
d="M326 673l-3 -16v-18l-5 -14l-2 -16l2 -13l-4 -14v-20l-4 -12v-21l-8 -24l-30 -8l-23 9l-13 39v37l-5 11l1 15l-4 15v15l-4 18l5 47l29 11l14 -3l19 3l30 -10zM166 671l-2 -13l-8 -47v-34l-6 -32l-11 -44h-50l-13 46v29l-4 21v10l-4 20v15l-4 27l4 36l44 9l51 -6zM201 641
l-2 -13l-8 -47v-34l-6 -32l-11 -44h-50l-4 15h31l14 56l6 32v37l8 45l2 16l-1 8l18 -2zM361 643l-3 -16v-18l-5 -14l-2 -16l2 -13l-4 -14v-20l-4 -12v-21l-8 -24l-30 -8l-23 9l-3 8l34 8l10 33v21l4 12v20l4 14l-2 17q0 3 1 6t1 6l5 14v19l3 17l-1 8l16 -5z" />
    <glyph glyph-name="numbersign" unicode="#" horiz-adv-x="520" 
d="M263 643l-2 -15l-7 -12v-33l-5 -29l-2 -27l-3 -10l11 -21l16 1l16 5h13l18 9l6 15v34l10 60l-1 13l14 39l27 9l28 -9l3 -30l-3 -26v-18l-7 -29l1 -15l-5 -15l-5 -27l17 -12h16l36 -11l-3 -29l-8 -23l-28 -10l-13 4l-12 -4l-17 -12l-4 -11l-2 -18v-32l-6 -12v-30l14 -16
l15 5l27 -5l10 -11l-12 -55h-54l-18 -18l1 -13l-10 -61l1 -15l-6 -11v-32l-4 -30l-13 -28l-26 -3l-29 8l-6 33l6 10v34l10 38l-2 19l4 11l2 27l4 16l-15 16l-11 1l-19 -4l-13 3l-16 -15l-8 -31v-32l-4 -30l-5 -12l2 -17l-7 -29l1 -16l-11 -26l-28 -2l-32 2v51l3 11l2 32
l4 15l4 28l3 10v19l3 29l-13 8l-44 9l-6 8v24l9 31l39 3l14 -2l15 12l3 19l4 13l2 30l9 44l-16 9l-16 5h-26l-10 8v32l12 25l26 4l10 -1l17 2l19 10v35l3 27l6 12v35l6 16l7 40l28 2l33 -7zM292 325v19l6 14l5 40l-1 14l-13 14l-11 5h-33l-14 -13l-4 -15l-3 -29l-4 -17
l-3 -29l-4 -13l14 -15l18 -4h13l5 6l25 10zM291 4l32 4l18 37l4 34v30l6 12q0 3 -0.5 8.5t-0.5 8.5l10 59q0 2 -0.5 4t-0.5 4l10 10h59l12 53l13 -2l10 -11l-12 -55h-54l-18 -18l1 -13l-10 -61l1 -15l-6 -11v-32l-4 -30l-13 -28l-26 -3l-29 8zM145 -7v13l35 2l16 39
q0 3 -0.5 8t-0.5 9l7 27q0 2 -1 7.5t-1 8.5l5 11l4 34v32q2 7 3.5 12.5t3.5 11.5l7 6l10 -1l17 4h3l6 -7l-2 -8v-2l-4 1l-16 -15l-8 -31v-32l-4 -30l-5 -12l2 -17l-7 -29l1 -16l-11 -26l-28 -2zM398 314l-8 2q-2 0 -5 -1t-5 -2q-1 2 -2 2.5t-1 1.5v22l6 14v33q0 5 1 8t1 8
q0 1 0.5 1.5t0.5 1.5q4 3 10.5 8t3.5 2l-5 -3q2 0 4 1l4 2l12 -4l41 14l11 35v6l23 -7l-3 -29l-8 -23l-28 -10l-13 4l-12 -4l-17 -12l-4 -11l-2 -18v-32zM298 613l-2 -15l-7 -12v-33l-5 -29l-1 -7l-15 -5h-4q-3 4 -4 7l2 5q0 6 1 15t1 15l5 27v32l7 11l2 20l17 -3zM427 513
l-4 2h-15l-5 4q1 7 1.5 9t1.5 8l5 15q0 3 -0.5 8t-0.5 9l7 27v19l3 27l-1 6l18 -5l3 -30l-3 -26v-18l-7 -29l1 -15zM253 314h-1q0 -1 -2 -3h-5l-10 2q-2 2 -3 2.5t-2 2.5q2 4 2 6v2l3 29l4 15l3 31q0 2 1 4.5t2 4.5l7 6h24q1 0 2 -1q2 -2 5 -5.5t5 -5.5v-3h-8l-14 -13
l-4 -15l-3 -29l-4 -17zM128 409v6l11 -3l5 -3l-2 -8h-4zM101 213l12 -2l-1 -7l-5 1z" />
    <glyph glyph-name="dollar" unicode="$" horiz-adv-x="435" 
d="M230 693l17 -14l13 -3l15 -7l14 -2l37 -29l7 -15l17 -20l14 -33l1 -14l9 -29v-41l-6 -22l-51 -8l-32 8l-8 77l-9 28l-23 34l-12 -11l-3 -15l2 -29l-2 -15v-52l2 -14l-2 -32l3 -12l-1 -14l6 -23l17 -8l9 -14l14 -8l23 -18l22 -22l6 -16l20 -23l14 -26l7 -31l5 -11v-33
l-5 -31l-4 -11l-1 -15l-9 -16l-3 -12l-17 -22l-48 -39l-13 -7l-16 1l-15 -5l-15 -19l-5 -28l-20 5l-3 24l-16 16l-14 3l-29 11l-11 14l-10 5l-15 13l-16 20l-21 42v19l-7 11v54l3 24l33 9h15l35 -6l4 -27v-38l16 -50l19 -22l13 9l-1 9l4 20l-3 14l2 13l-1 12l2 20l-2 9l2 14
l-3 17v19l3 23l-5 15v21l-18 9l-26 20l-13 7l-9 13l-22 20l-16 27l-10 11l-14 24l-2 20l-7 15l-3 11l2 31l6 42l23 55l12 11l29 32l16 3l14 9l29 5l12 18l3 26h24zM237 -42l7 35l9 13l7 3l18 -1l19 10l50 41l21 27l3 12l9 16q0 4 0.5 9t0.5 9l4 11l5 32v36l-6 14l1 -2l-7 31
l6 -7l14 -26l7 -31l5 -11v-33l-5 -31l-4 -11l-1 -15l-9 -16l-3 -12l-17 -22l-48 -39l-13 -7l-16 1l-15 -5l-15 -19l-5 -28l-20 5zM275 227l-6 9l-5 13l-20 30l-11 -4l-4 -64l4 -14l-3 -33v-44l2 -11l12 -10l11 4l11 15l7 14l4 27l3 47zM157 476l9 -11l7 -16l19 -20h11l-4 34
l4 9l-2 15v109l-11 3l-15 -10l-15 -24l-1 -10l-7 -17v-17l4 -29zM319 441l60 9l10 35v44q-2 5 -4.5 14t-4.5 16l-1 13l-7 15l13 -14l14 -33l1 -14l9 -29v-41l-6 -22l-51 -8l-32 8zM267 386l-3 5l-14 7q-2 4 -2 7t-1 6l1 16l-3 12l2 28l-2 14v52l2 15q0 6 -1 14t-1 14l10 -15
l-1 3q2 -6 4 -13t4 -13l3 -33v-54l2 -14l-2 -32l3 -12zM262 160l-4 -25l-5 -10v1q-2 -3 -3.5 -5t-3.5 -4l-1 1v45l3 37l-4 13l3 35l2 -3l5 -12l6 -9l5 -18zM167 521v14l7 16q0 2 0.5 4t0.5 5l10 17l1 1v-91q0 -3 1 -6t1 -6l-4 -11v-3l-6 14l-6 7l-1 11zM183 206l3 -24v-6
l1 -12l-2 -17l3 -12l-3 -12l-4 5l-14 44v36zM263 691l-7 2h7v-2zM175 3h2l3 -3l-3 1z" />
    <glyph glyph-name="percent" unicode="%" horiz-adv-x="778" 
d="M78 620l1 9l9 28l5 12l7 10l12 15l10 3l10 5l7 7l12 1l11 3l10 -2h33l9 -4l11 -1l8 -5l11 -2l8 -7l10 -3l7 -12l6 -5l11 -34l4 -52l-2 -12v-17l2 -11l-1 -21l1 -9l-2 -11l3 -10l-3 -20l3 -14v-20l-3 -20l3 -30l-2 -13v-72l-1 -19l-5 -19l-10 -22l-7 -6l-7 -11l-8 -7
l-8 -2l-10 -6l-28 -9l-34 3l-9 -1l-23 3l-25 14l-10 9l-7 4l-7 8l-4 10l-7 31v12l-4 8l1 22l-1 11v32l2 10l-3 11l2 19v23l-1 17l2 14l-1 9v22l1 6l-2 11l2 11l-1 12v32l-2 9l4 31v12zM493 403l1 9l9 28l5 12l7 10l12 15l10 3l10 5l7 7l12 1l11 3l10 -2h33l9 -4l11 -1l8 -5
l11 -2l8 -7l10 -3l7 -12l6 -5l11 -34l4 -52l-2 -12v-17l2 -11l-1 -21l1 -9l-2 -11l3 -10l-3 -20l3 -14v-20l-3 -20l3 -30l-2 -13v-72l-1 -19l-5 -19l-10 -22l-7 -6l-7 -11l-8 -7l-8 -2l-10 -6l-28 -9l-34 3l-9 -1l-23 3l-25 14l-10 9l-7 4l-7 8l-4 10l-7 31v12l-4 8l1 22
l-1 11v32l2 10l-3 11l2 19v23l-1 17l2 14l-1 9v22l1 6l-2 11l2 11l-1 12v32l-2 9l4 31v12zM475 663l2 -18l-8 -47l-4 -13l-3 -25l-7 -20v-28l-7 -15l1 -12l-4 -17l-3 -28l-7 -27v-16l-3 -18l-8 -26l-1 -16l-3 -11v-19l-7 -15v-30l-8 -28v-15l-6 -16l-4 -25v-19l-5 -12
l-8 -46l1 -15l-6 -11l-5 -48l-9 -22l-25 -4l-32 8l-4 27l9 46l2 27l6 18l7 61l6 13v11l6 16v28l6 19l3 25v19l5 10l7 32l-2 13l5 17l8 46l-1 12l5 12l2 17l8 60l6 16l6 58l7 12l-1 13l4 30l10 29l27 4l32 -8v-29zM151 298l2 -11l20 -11l19 -2l11 4l10 10l5 20l3 32v61l-3 11
l1 22l-1 6l3 14l-2 9v22l2 8l-3 11v20l3 13l-2 9v62l-3 11l-6 10l-8 8l-9 3h-21l-9 -3l-9 -8l-5 -8l-5 -44l3 -12v-17l-3 -25v-42l1 -9v-40l2 -9v-11l-3 -22l3 -12l-2 -19v-20l2 -32zM566 81l2 -11l20 -11l19 -2l11 4l10 10l5 20l3 32v61l-3 11l1 22l-1 6l3 14l-2 9v22l2 8
l-3 11v20l3 13l-2 9v62l-3 11l-6 10l-8 8l-9 3h-21l-9 -3l-9 -8l-5 -8l-5 -44l3 -12v-17l-3 -25v-42l1 -9v-40l2 -9v-11l-3 -22l3 -12l-2 -19v-20l2 -32zM510 633l2 -18l-8 -47l-4 -13l-3 -25l-7 -20v-28l-7 -15l1 -12l-4 -17l-3 -28l-7 -27v-16l-3 -18l-8 -26l-1 -16
l-3 -11v-19l-7 -15v-30l-8 -28v-15l-6 -16l-4 -25v-19l-5 -12l-8 -46l1 -15l-6 -11l-5 -48l-9 -22l-25 -4l-32 8l-1 8l34 4l13 32q1 12 2.5 24.5t2.5 24.5l6 12q0 3 -0.5 8.5t-0.5 8.5l8 42l5 12v23l4 21l6 16v18l8 26v29l7 15v20l3 12q0 3 0.5 6.5t0.5 7.5l7 23l4 23v15
l7 26l3 30l4 16q0 2 -0.5 5t-0.5 6l7 15v31l7 18l3 26v-2l3 11l9 51l-2 20v4l20 -5v-29zM563 -19l13 -2q2 0 4.5 0.5t4.5 0.5l35 -3l34 11l10 6l8 3l11 8l7 11l7 7l11 25l5 20l2 21v72l1 13l-3 30l3 19v22l-3 13l3 22l-2 8l1 9l-1 11l1 23l-2 11v13l2 13l-4 54l-9 27l6 -10
l6 -5l11 -34l4 -52l-2 -12v-17l2 -11l-1 -21l1 -9l-2 -11l3 -10l-3 -20l3 -14v-20l-3 -20l3 -30l-1 -13v-72l-2 -19l-5 -19l-9 -22l-7 -6l-7 -11l-9 -7l-7 -2l-10 -6l-29 -9l-34 3l-9 -1l-22 3zM148 198l13 -2q2 0 4.5 0.5t4.5 0.5l35 -3l34 11l10 6l8 3l11 8l7 11l7 7
l11 25l5 20l2 21v72l1 13l-3 30l3 19v22l-3 13l3 22l-2 8l1 9l-1 11l1 23l-2 11v13l2 13l-4 54l-9 27l6 -10l6 -5l11 -34l4 -52l-2 -12v-17l2 -11l-1 -21l1 -9l-2 -11l3 -10l-3 -20l3 -14v-20l-3 -20l3 -30l-1 -13v-72l-2 -19l-5 -19l-9 -22l-7 -6l-7 -11l-9 -7l-7 -2
l-10 -6l-29 -9l-34 3l-9 -1l-22 3zM156 339v18l2 22l-3 11l3 21v15l-2 9v37l-1 9v42l3 24v20l-3 10l4 42l1 2l3 2l-3 -2q1 2 2 2.5t1 -0.5l4 3l7 3h16l7 -1l5 -5l3 -4h-9l-9 -3l-8 -8l-6 -8l-4 -44l3 -12v-17l-3 -25v-42l1 -9v-40l2 -9v-11l-3 -22l3 -12l-2 -19v-20l2 -30
l-9 6l-2 6v1l-3 8zM571 122v18l2 22l-3 11l3 21v15l-2 9v37l-1 9v42l3 24v20l-3 10l4 42l1 2l3 2l-3 -2q1 2 2 2.5t1 -0.5l4 3l7 3h16l7 -1l5 -5l3 -4h-9l-9 -3l-8 -8l-6 -8l-4 -44l3 -12v-17l-3 -25v-42l1 -9v-40l2 -9v-11l-3 -22l3 -12l-2 -19v-20l2 -30l-9 6l-2 6v1l-3 8
z" />
    <glyph glyph-name="ampersand" unicode="&#x26;" horiz-adv-x="634" 
d="M345 705l29 -3l14 -9l10 -10l7 -16l10 -9l7 -16v-26l-6 -13l-4 -16l-8 -15l-14 -6l-23 -2l-11 9l-2 25l20 26v32l-8 7l-13 4l-44 3l-29 -11l-14 -3l-7 -15l-10 -6l-11 -29l-2 -27l11 -30l13 -19l31 -11l15 5l52 -4l11 -10l17 -3l7 -14v-30l-4 -13l-20 -26l-17 -4l-10 -11
l-17 -2h-41l-31 12l-8 7l-25 -6l-18 -26l-4 -13l-9 -11v-19l-9 -45v-30l6 -16v-31l6 -11l10 -33l7 -7l4 -19l10 -8l8 -11l45 -41l60 -15l15 4h60l15 3l26 14l23 17l22 24l4 14l2 16v31l-9 25l-14 28l-9 11l-13 10l-8 9l-28 17l-13 -3l-30 2l-27 -7l-11 -15l-13 -12l-6 -14
l2 -28l12 -25l13 -2l-3 20l7 13l13 12h43l16 -5l12 -11l6 -10v-33l-11 -26l-14 -10l-13 -2l-16 -7h-28l-43 16l-12 7l-22 20l-21 42v30l7 31l31 33l13 6l8 15l26 14l15 5l17 2l11 10l28 2l17 5l28 12l13 2l27 14l25 18l11 29v24l-7 14l-5 17l-16 7l4 -8v-27l-24 -13h-30
l-12 6l-12 9l-9 17l-3 27l10 19l10 7l17 6l45 8l15 -7l16 -2l12 -12l7 -10l10 -10l14 -28l4 -27v-43l-10 -28l-15 -25l-12 -11l-22 -15l-14 -6l-11 -9v-20l9 -7l9 -12l16 -28l11 -14l11 -25l7 -60l-22 -70l-8 -11l-9 -7l-12 -17l-22 -20l-12 -4l-11 -12l-14 -6l-11 -10
l-27 -9l-17 -2l-15 -8l-15 -1l-30 -7h-42l-14 3l-16 -2l-18 7l-13 -3l-27 11l-16 2l-42 21l-9 15l-25 13l-19 28l-11 9l-23 43l-11 41l-6 13l1 12l-3 20l2 29l-3 17l6 15l-1 11l8 27l15 29l3 14l17 31l11 9l9 15l9 9l11 7l11 16l11 5l11 11l5 19l-16 32l-8 27v32l4 16v11
l8 17l22 37l15 11l7 3l16 13l12 5l10 11l15 2l16 6l25 5l31 -3zM201 -11q3 -1 7 -1l30 -12l12 3l16 -6q2 0 7 0.5t7 1.5l14 -3h49l28 7l17 1l16 8l15 2l35 12l12 11l13 5q1 2 4 5l5 5l10 4l27 24q3 3 5.5 7.5t5.5 8.5l9 8l11 15l24 76l-7 63l-5 10l3 -4l11 -14l11 -25l7 -60
l-22 -70l-8 -11l-9 -7l-12 -17l-22 -20l-12 -4l-11 -12l-14 -6l-11 -10l-27 -9l-17 -2l-15 -8l-15 -1l-30 -7h-42l-14 3l-16 -2l-18 7l-13 -3l-27 11l-16 2zM537 298l-5 9l-10 13l-5 4v6l7 5l11 4l23 16l15 13l16 27l12 34v47l-4 29l6 -6l14 -28l4 -27v-43l-10 -28l-15 -25
l-12 -11l-22 -15l-14 -6l-11 -9v-9zM227 188l9 -30l-2 3l-7 5l-5 21q-2 1 -4 3.5t-4 4.5l-8 28l-5 9v31q-2 3 -3 8t-3 9v25l9 43v15l8 10l5 16q3 4 6.5 9t5.5 9l12 2l3 -3l30 -12l-19 -4l-18 -26l-4 -13l-9 -11v-19l-9 -45v-30l6 -16v-31zM284 392h41l24 2l11 12l18 4l26 35
l4 14v20l13 -2l7 -14v-30l-4 -13l-20 -26l-17 -4h-3l-12 -11l-12 -1l-3 -1h-38l-31 12zM271 549l3 -10l-3 1l-10 14q-2 6 -5 12.5t-5 12.5q0 6 1 13t1 13q2 5 4.5 10.5t4.5 10.5l10 5q2 3 2 5.5t2 6.5l8 1q5 2 12.5 5.5t13.5 5.5l39 -3l9 -3l1 -1v-9l-15 1l-29 -11l-14 -3
l-7 -15l-10 -6l-11 -29zM347 133l12 -4h33l19 8l12 1l21 15l14 34v26h2l12 -11l6 -10v-33l-9 -22l-4 -4l-14 -11l-11 -1l-16 -7h-28l-43 16zM390 551h3l23 11l11 21l4 17l6 12v32l3 -7l10 -9l7 -16v-26l-6 -12l-9 -3l-18 -13l-12 -23l-10 -1l-11 9zM382 263h-23l-17 -16
l-4 -7q0 4 -0.5 7t-0.5 8l2 6l13 12l9 12l21 6l31 -2l8 2q8 -6 18 -11l5 -6l-30 2l-27 -7zM316 458l15 -1l27 4v22l-11 5l-39 -3l-3 -17zM473 456h22l30 16v-14l-7 -17h-21l-12 6z" />
    <glyph glyph-name="quotesingle" unicode="'" horiz-adv-x="230" 
d="M167 670l-6 -15v-29l-7 -33v-30l-6 -16l2 -12l-12 -30l-26 -5l-23 7l-9 27l-5 31l1 12l-5 17l2 14l-7 32l2 17l-6 17l3 32l48 8l50 -8zM202 640l-6 -15v-29l-7 -33v-30l-6 -16l2 -12l-12 -30l-26 -5l-23 7l-3 9l28 5l16 41q0 2 -1 5.5t-1 5.5l6 16v33l7 31v28l6 16l-1 11
l17 -2z" />
    <glyph glyph-name="parenleft" unicode="(" horiz-adv-x="349" 
d="M242 642l-16 -4l-13 -9l-19 -26l-3 -16l-6 -11l-3 -35l4 -41l-3 -15l3 -14l-3 -32l3 -15l-2 -14l1 -16l-2 -12l3 -21l-3 -11l3 -31l-4 -13l3 -29l-2 -30l3 -20l-4 -30l2 -15v-60l3 -15l6 -13l19 -22l26 -17l30 -11l4 -27l-1 -16l4 -13l-10 -42l-28 -7l-44 14l-13 9l-12 2
l-25 17l-13 14l-11 6l-16 29l-6 7l-17 42l-3 16l-2 29v44l-3 35l2 9l-1 16l3 35l-3 10v73l3 15l-4 16v16l3 14l-3 17l3 17l-2 26v63l4 40l-3 17l4 17l1 15l6 10l19 43l20 24l7 11l50 34l14 4l26 11h15l29 -4l9 -28v-29l-5 -42zM289 694v29l11 -1l9 -28v-29l-5 -42l-27 -11
l-16 -4l-13 -9l-19 -26l-3 -16l-6 -11l-3 -35l4 -41l-3 -15l3 -14l-3 -32l3 -15l-2 -14l1 -16l-2 -12l3 -21l-3 -11l3 -31l-4 -13l3 -29l-2 -30l3 -20l-4 -30l2 -15v-60l1 -6l-15 17q-3 4 -5 11l2 -4l-3 13v59q0 3 -1 6.5t-1 7.5l4 32l-3 21l2 30l-2 25l3 12l-3 33l4 10
l-4 23l2 12l-1 16l2 17l-3 13l3 33q-1 2 -1 6t-1 7l2 12l-4 42l3 33l6 13l3 12q5 5 7.5 10t6.5 10l6 5l13 3l41 16zM217 -69l21 -7l40 9l13 56l-5 14l1 16v1l16 -6l4 -27l-1 -16l4 -13l-10 -42l-28 -7l-44 14zM201 -65l6 -1h-4z" />
    <glyph glyph-name="parenright" unicode=")" horiz-adv-x="349" 
d="M109 756l17 -3l30 -9l39 -21l19 -15l11 -14l10 -7l10 -18l4 -12l7 -9l12 -29l3 -29v-49l4 -25l-3 -34l3 -15l-4 -26l4 -34l-2 -12v-88l2 -33v-27l-4 -14v-66l2 -9l-3 -45l2 -14l-11 -35l-6 -10l-4 -16l-7 -9l-6 -12l-13 -16l-19 -16l-10 -14l-29 -14l-29 -6l-28 -11
l-29 4l-9 46l3 28l6 30l29 6l36 31l7 12l10 26v44l2 19l-2 32l1 10l-3 15v30l3 33l-1 16l2 12v28l-3 33l3 16l-3 30l3 15l-2 14v42l2 14l-6 64l-8 17l-8 7l-9 15l-57 25l-5 25l3 13v32l8 32h26zM113 -74l30 11l-2 -1l30 6l34 17l11 14l18 15l16 20l7 14l-1 -1l10 13l4 16
l5 10l12 39q0 2 -1 6t-1 7l3 45l-2 10v62l4 14v31l-2 33v88l2 13l-4 33l4 27l-3 16l3 33l-4 24v51l-3 31l-12 28l-8 11l1 -1l6 -4l10 -18l4 -12l7 -9l12 -29l3 -29v-49l4 -25l-3 -34l3 -15l-4 -26l4 -34l-2 -12v-88l2 -33v-27l-4 -14v-66l2 -9l-3 -45l2 -14l-11 -35l-6 -10
l-4 -16l-7 -9l-6 -12l-13 -16l-19 -16l-10 -14l-29 -14l-29 -6l-28 -11l-29 4z" />
    <glyph glyph-name="asterisk" unicode="*" horiz-adv-x="390" 
d="M227 677l-3 -13v-34l11 -4l12 7l24 10l32 2l13 -28l7 -30l-29 -10l-41 -8l-4 -13l44 -56l-22 -23l-31 -11l-16 18l-8 14l-8 8l-5 14l-15 -3l-9 -8l-7 -16l-27 -31l-27 15l-21 20l15 30l21 18l8 11l-7 9l-40 12l-25 15v25l18 32l34 -7l15 -10l15 -5l14 2l-4 18l1 15l-2 15
l6 29h56zM286 532l-18 24l28 6l45 15l-9 37l6 1l13 -28l7 -30l-29 -10l-41 -8zM152 448l34 38l6 16h1v-3l5.5 -5.5l6.5 -6.5l7 -13l-5 -11l-27 -31l-27 15zM257 457l24 8l28 29l19 -24l-22 -23l-31 -11l-16 18zM260 654l-18 -7l-3 -2v15l3 15v1h15zM119 552l-7 4l9 -2z" />
    <glyph glyph-name="plus" unicode="+" horiz-adv-x="420" 
d="M255 483l1 -14l-4 -12v-18l3 -13l-3 -10l14 -20l32 5l43 -8l5 -31l-9 -46l-39 -10l-14 5l-16 1l-13 -19v-28l-3 -26l2 -13l-3 -29l-50 -9l-31 9l-8 40l3 32l-3 10v14l-13 13l-12 3l-16 -2l-41 10l-7 29l5 49l30 7l29 -5l14 1l12 18v10l3 14l-3 15v28l6 30l31 2h50z
M203 173l62 11l4 40q0 3 -1 6.5t-1 6.5l3 26v27l5 7q2 0 3 -0.5t2 -0.5l17 -6l53 13l11 57l-1 6l16 -3l5 -31l-9 -46l-39 -10l-14 5l-16 1l-13 -19v-28l-3 -26l2 -13l-3 -29l-50 -9l-31 9zM290 453l1 -14l-4 -12v-13l-14 -2q0 1 -1 2q-3 3 -4 5l3 6l-4 18v10l4 12l-1 19v1
h15zM113 293l5 -1q2 0 7 0.5t8 1.5l8 -2l6 -6v-7l-32 8z" />
    <glyph glyph-name="comma" unicode="," horiz-adv-x="231" 
d="M168 72l2 -14l-3 -15l-8 -63l-9 -10l-2 -17l-4 -11l-10 -14l-4 -13l-9 -16l-35 -24l-21 18l23 45l7 29v15l-5 16l-25 10l-7 28l2 8v19l7 44l29 3l14 -4l28 2l26 -4zM203 42l2 -14l-3 -15l-8 -63l-9 -10l-2 -17l-4 -11l-10 -14l-4 -13l-9 -16l-35 -24l-21 18l2 5l31 21
l12 21l4 12l8 13l6 16q0 7 1 11l9 10q2 15 4.5 34.5t4.5 35.5l3 13l-3 21l17 -2z" />
    <glyph glyph-name="hyphen" unicode="-" horiz-adv-x="300" 
d="M256 365l-4 -17l-4 -37h-27l-31 -3h-93l-15 5h-30l-8 32v17l7 30l30 5l12 4h32l17 -5l15 4l15 -4l15 5h18l15 -4l31 -3zM291 335l-4 -17l-4 -37h-27l-31 -3h-93l-15 5h-30l-4 13l11 -3h97l31 3h40l5 51l4 17v1l15 -1z" />
    <glyph glyph-name="period" unicode="." horiz-adv-x="230" 
d="M67 85l8 8l26 17l41 -5l11 -14l10 -7l4 -16v-26l-7 -16l-8 -11l-11 -7l-12 -4l-31 -5l-11 11l-10 5l-18 23v31zM111 -14l24 4l9 3l18 12l13 17l7 17v29l6 -7l10 -7l4 -16v-26l-7 -16l-8 -11l-11 -7l-12 -4l-31 -5l-11 11l-10 5z" />
    <glyph glyph-name="slash" unicode="/" horiz-adv-x="247" 
d="M208 663l2 -18l-8 -47l-4 -13l-3 -25l-7 -20v-28l-7 -15l1 -12l-4 -17l-3 -28l-7 -27v-16l-3 -18l-8 -26l-1 -16l-3 -11v-19l-7 -15v-30l-8 -28v-15l-6 -16l-4 -25v-19l-5 -12l-8 -46l1 -15l-6 -11l-5 -48l-9 -22l-25 -4l-32 8l-4 27l9 46l2 27l6 18l7 61l6 13v11l6 16
v28l6 19l3 25v19l5 10l7 32l-2 13l5 17l8 46l-1 12l5 12l2 17l8 60l6 16l6 58l7 12l-1 13l4 30l10 29l27 4l32 -8v-29zM243 633l2 -18l-8 -47l-4 -13l-3 -25l-7 -20v-28l-7 -15l1 -12l-4 -17l-3 -28l-7 -27v-16l-3 -18l-8 -26l-1 -16l-3 -11v-19l-7 -15v-30l-8 -28v-15
l-6 -16l-4 -25v-19l-5 -12l-8 -46l1 -15l-6 -11l-5 -48l-9 -22l-25 -4l-32 8l-1 8l34 4l13 32q1 12 2.5 24.5t2.5 24.5l6 12q0 3 -0.5 8.5t-0.5 8.5l8 42l5 12v23l4 21l6 16v18l8 26v29l7 15v20l3 12q0 3 0.5 6.5t0.5 7.5l7 23l4 23v15l7 26l3 30l4 16q0 2 -0.5 5t-0.5 6
l7 15v31l7 18l3 26v-2l3 11l9 51l-2 20v4l20 -5v-29z" />
    <glyph glyph-name="zero" unicode="0" horiz-adv-x="415" 
d="M57 580l1 13l13 40l8 17l9 14l18 22l14 4l15 7l10 10l16 1l16 5l15 -3h46l13 -6l16 -1l12 -7l15 -3l12 -10l14 -5l10 -17l8 -7l16 -48l6 -74l-3 -17v-25l3 -16l-2 -30l2 -13l-3 -15l4 -14l-4 -29l4 -20v-28l-4 -29l4 -43l-2 -19v-103l-2 -27l-7 -27l-14 -31l-10 -9
l-10 -16l-12 -9l-11 -3l-14 -9l-41 -13l-48 4l-13 -1l-32 4l-37 21l-13 12l-10 6l-10 12l-6 14l-11 44v17l-5 11l2 32l-2 16v46l3 14l-4 15l3 28v32l-2 25l3 19l-2 13v32l2 9l-3 15l3 16l-2 17v46l-2 13l5 44v17zM161 120l3 -16l29 -16l27 -2l16 5l14 15l7 29l4 45v87l-4 16
l2 31l-2 9l4 20l-2 13v31l2 11l-4 17v28l4 19l-3 12v89l-3 16l-9 14l-11 12l-14 3h-30l-13 -4l-12 -11l-8 -11l-6 -64l4 -16v-25l-4 -35v-60l1 -13v-57l3 -13v-16l-4 -32l4 -16l-3 -28v-29l3 -45zM157 -23l19 -2q2 0 6 0.5t7 0.5l49 -4l49 15l14 9l12 4l15 11l10 16l11 10
l16 36l7 28l2 30v103l2 19l-4 43l4 27v32l-4 18l4 31l-3 12l2 12l-2 16l2 33l-3 16v19l3 18l-6 77l-13 39l9 -15l8 -7l16 -48l6 -74l-3 -17v-25l3 -16l-2 -30l2 -13l-3 -15l4 -14l-4 -29l4 -20v-28l-4 -29l4 -43l-2 -19v-103l-2 -27l-7 -27l-14 -31l-10 -9l-10 -16l-12 -9
l-11 -3l-14 -9l-41 -13l-48 4l-13 -1l-32 4zM168 179v26l3 31l-4 16l4 30v21l-3 13v53l-1 13v59l4 35v29l-4 13l6 61q2 2 4 5t1 1l-3 -4l9 8l11 4h22l10 -2l7 -7l4 -6h-12l-13 -4l-12 -11l-8 -11l-6 -64l4 -16v-25l-4 -35v-60l1 -13v-57l3 -13v-16l-4 -32l4 -16l-3 -28v-29
l3 -42l-13 8l-2 9v1l-5 12z" />
    <glyph glyph-name="one" unicode="1" horiz-adv-x="290" 
d="M214 666l-2 -19l2 -14v-29l2 -16l-3 -12v-64l3 -15l-3 -14l2 -29l-3 -31l4 -17l-4 -24l3 -21l-3 -14l2 -12v-75l2 -29l-3 -29v-51l3 -26l-1 -13v-62l-8 -44l-41 -9l-14 2l-14 -3l-29 8l-6 30v135l3 14l-4 21l4 44l-3 27l3 18l-2 14v18l-2 13l3 16l-3 30v28l4 14v34l-3 12
l2 17l-3 27l4 15l-14 18h-12l-31 5l-5 47l6 32l28 12h15l22 24l13 29h37l17 2l28 -8zM249 636l-2 -19l2 -14v-29l2 -16l-3 -12v-64l3 -15l-3 -14l2 -29l-3 -31l4 -17l-4 -24l3 -21l-3 -14l2 -12v-75l2 -29l-3 -29v-51l3 -26l-1 -13v-62l-8 -44l-41 -9l-14 2l-14 -3l-29 8
l-2 7l13 3l14 -2l51 11l10 55v64l1 15l-3 26v47l3 29l-2 31v75q0 2 -1 4.5t-1 4.5l4 15l-4 23l4 25l-4 16l3 30q0 6 -1 12.5t-1 13.5l4 17l-4 17v59l3 12l-2 20v29l-2 14l2 19l16 -4z" />
    <glyph glyph-name="two" unicode="2" horiz-adv-x="415" 
d="M48 581v9l6 20l11 24l29 36l13 8l12 13l14 3l12 7l15 5l33 7h31l13 -2l44 -13l26 -15l13 -13l11 -8l10 -13l15 -29l2 -10l8 -15l3 -33v-77l-18 -59l-7 -9l-6 -17l-12 -23l-12 -15l-6 -11l-9 -10l-7 -19l-18 -22l-13 -28l-12 -8l-5 -14l-10 -14l-13 -31l-9 -8l-3 -16
l-9 -14l-10 -32l-7 -11l11 -17h17l30 5l46 -4l14 3l19 -3l16 2l29 -7l5 -25v-46l-8 -27l-30 -8l-13 2l-16 -3l-29 4h-93l-12 -4l-17 4h-47l-13 -3l-34 10v47l6 44l5 10l6 32l6 14l4 16l14 29l8 27l17 23l4 15l10 12l6 17l19 26l4 12l19 20l10 19l8 7l4 17l12 12l4 12l19 25
l2 17l9 12l6 44l-6 65l-7 12l-24 15h-34l-10 -9l-12 -5l-11 -32l-4 -30l3 -15l-2 -15l3 -20l-6 -27l-31 -4h-15l-10 -4h-18l-26 11l-7 25v81zM231 126q-5 -2 -10.5 -3t-10.5 -1h-7q-2 2 -2 3l2 4l10 30l10 15l4 18l8 7q2 7 6 15t7 15l11 16q0 2 1.5 5.5t2.5 5.5l12 10l12 26
l18 23q1 3 3 8t4 9l4 5l10 17v-1l11 14l16 29l5 15l-2 -2l9 12l19 62v80l-3 36q-2 4 -4.5 8.5t-4.5 8.5l-1 7l-4 7l9 -11l15 -29l2 -10l8 -15l3 -33v-77l-18 -59l-7 -9l-6 -17l-12 -23l-12 -15l-6 -11l-9 -10l-7 -19l-18 -22l-13 -28l-12 -8l-5 -14l-10 -14l-13 -31l-9 -8
l-3 -16l-9 -14zM93 -23v5l1 -1l13 4h44l18 -5l14 5h91l30 -4l18 3l13 -2l40 10l10 37v47l15 -3l5 -25v-46l-8 -27l-30 -8l-13 2l-16 -3l-29 4h-93l-12 -4l-17 4h-47l-13 -3zM84 432h12q1 0 4.5 1.5t5.5 2.5h14l43 5l8 40l-3 23l2 16l-3 13l4 28l-1 -3q2 6 4.5 11.5t4.5 12.5
l8 3l9 8h23l18 -12l1 -3h-14l-10 -9l-12 -5l-11 -32l-4 -30l3 -15l-2 -15l3 -20l-6 -27l-31 -4h-15l-10 -4h-18l-26 11z" />
    <glyph glyph-name="three" unicode="3" horiz-adv-x="415" 
d="M46 578l7 12l2 20l16 22l8 16l16 18l27 23l12 3l30 15l27 5h29l18 -4l14 -6h14l16 -6l37 -30l20 -19l7 -10l9 -19l2 -14l8 -12l6 -27l-2 -32v-69l-5 -13v-19l-8 -13l-3 -11l-11 -13l-7 -16v-17l8 -13l7 -16l10 -14l10 -37v-46l-2 -30l3 -14l-3 -15l2 -14l-4 -28v-18
l-8 -30l-11 -22l-12 -13l-9 -14l-11 -7l-13 -14l-21 -16l-28 -7l-16 -7l-14 4h-32l-15 -3l-13 3l-31 14l-22 18l-12 7l-30 36l-11 21l-14 45v50l2 14v29l3 29l28 7l16 1l14 -3l12 1l30 -5l6 -77v-45l5 -16l31 -26l42 4l20 22l6 18v73l2 12l-2 15l2 16l-3 31l-3 10l-8 14
l-13 11l-13 6l-28 4l-28 9l-5 43l7 30l26 8l28 2l12 11l10 6l13 11l3 16v57l1 11l-5 48l-22 20l-12 7h-26l-16 -2l-7 -17l-16 -23v-49l-8 -43l-25 -9l-31 2l-43 7l-6 27v20l4 15l-3 32zM171 -27l4 -1l17 4h27l18 -5q3 1 8.5 3.5t10.5 4.5l31 8l27 20l12 13l-3 -1l14 9l10 15
l-1 -2l13 14l14 28l8 31v21l4 26q0 2 -1 7t-1 8l4 16l-4 18l2 26v50l-10 37l-1 2l1 -1v-1l3 -4l7 -16l10 -14l10 -37v-46l-2 -30l3 -14l-3 -15l2 -14l-4 -28v-18l-8 -30l-11 -22l-12 -13l-9 -14l-11 -7l-13 -14l-21 -16l-28 -7l-16 -7l-14 4h-32l-15 -3l-13 3zM370 332l4 -7
l-10 15l-14 26v9l6 14l10 11l4 14l9 15v18l5 13v73l2 35l-6 27l-8 13l-2 13l4 -4l7 -10l9 -19l2 -14l8 -12l6 -27l-2 -32v-69l-5 -13v-19l-8 -13l-3 -11l-11 -13l-7 -16v-17zM81 451l8 -1l35 -2l37 13l9 52v46l15 21l5 11h27q1 -2 3.5 -3t4.5 -2l10 -10h-6l-16 -2l-7 -17
l-16 -23v-49l-8 -43l-25 -9l-31 2l-43 7zM189 111q-5 4 -9.5 7.5t-7.5 7.5l-3 10v42l-4 50l18 -3l6 -77v-37zM198 310l19 -2l9 -4l9 -8l-8 1l-28 9z" />
    <glyph glyph-name="four" unicode="4" horiz-adv-x="410" 
d="M323 665l2 -33l-2 -9v-49l2 -10l-4 -18l4 -14l-2 -13l2 -16l-4 -32v-45l4 -13v-47l-4 -12l2 -12l-2 -16l3 -28v-34l-3 -26l4 -14l12 -15l27 -5l7 -52l-8 -33l-27 -6l-12 -10l-2 -17l3 -19v-30l-9 -30l-57 -11l-12 4l-30 3l-2 32v64l-1 18l-29 2l-14 -4l-16 2l-16 -4
l-14 3l-15 -2l-30 3l-14 -2l-31 5l-8 31l3 22v35l6 13l3 15l9 16l12 45l9 9l23 70l6 13l4 19l15 25l2 16l13 27l2 14l9 16l8 25l13 29l2 16l7 10l4 17l10 26l9 13l7 28l11 27h102zM211 370l2 14v30h-4l-11 -22l-13 -33l-1 -14l-8 -14l-10 -29l-22 -56l-3 -13l-8 -10l9 -17
l14 -3l28 5l14 -5l13 16v151zM358 635l2 -33l-2 -9v-49l2 -10l-4 -18l4 -14l-2 -13l2 -16l-4 -32v-45l4 -13v-47l-4 -12l2 -12l-2 -16l3 -28v-34l-2 -13l-12 2l-5 7l-3 9l2 23v38l-3 28l2 14q0 2 -1 4.5t-1 4.5l4 11v55l-4 13v40l4 32l-2 17l2 17l-4 12l4 14l-2 12v49l2 9
l-2 35h13zM251 -18l6 -2l70 13l13 43v33l-3 19q0 2 0.5 3.5t0.5 3.5q2 1 2.5 2t1.5 2l34 8l10 44l-3 26l16 -3l7 -52l-8 -33l-27 -6l-12 -10l-2 -17l3 -19v-30l-9 -30l-57 -11l-12 4l-30 3zM196 259l-15 -36l-22 -4q-2 1 -7 1q0 -1 -0.5 -0.5t-0.5 1.5v1l6 11l2 9l-1 -1
l22 56l10 29l6 10v-77zM67 100q3 0 6.5 1t5.5 1l30 -3q2 0 6 0.5t6 1.5l17 -4l18 5l19 -2l14 4q2 0 5.5 -0.5t5.5 -0.5v-18l-10 2l-16 -4l-14 3l-15 -2l-30 3l-14 -2l-31 5z" />
    <glyph glyph-name="five" unicode="5" horiz-adv-x="415" 
d="M349 661l3 -13l-5 -35l-33 -7l-12 3l-16 -2l-14 4l-31 -5l-32 2l-15 -2l-12 2l-20 -15v-41l-6 -42l2 -18l9 -9h13l43 7l12 -8l28 -3l15 -7l13 -9l12 -3l25 -19l19 -24l15 -38l9 -33v-45l-4 -26l2 -21l-2 -11v-18l2 -12v-83l-4 -8v-20l-7 -12l-4 -14l-27 -36l-11 -9
l-10 -13l-12 -10l-14 -2l-16 -11l-45 -9l-28 4l-12 4l-18 -2l-13 9l-15 5l-23 12l-15 13l-7 11l-13 6l-7 17l-13 23l-6 19l-4 25l-3 43l8 27l26 4l16 -1l13 3l15 1l30 -6l7 -38v-34l4 -14l5 -9l13 -14l14 -7l29 2l13 7l21 20l2 16v49l3 27l-4 21l4 14v26l-2 18v59l-5 15
l-9 18l-12 6l-11 9l-29 4l-16 -7l-17 -23l-14 -40h-26l-24 -4l-44 9l-5 31v48l6 27v92l5 12l-3 15l3 18v32l4 29l-2 10l2 21l8 25l30 7h44l10 -3h18l15 4l15 -3l11 3l29 -5l31 4h29l47 -4v-35zM165 -22q2 0 5 0.5t5 0.5l11 -4l34 -4l49 9l17 12l13 1l18 14l11 15l-1 -2l9 7
l33 44l4 15l-2 -3l9 16v20l3 7l1 87l-2 12v18l2 11q0 5 -1 10.5t-1 10.5l4 24v47l-12 43l-6 15l14 -17l15 -38l9 -33v-45l-4 -26l2 -21l-2 -11v-18l2 -12v-83l-4 -8v-20l-7 -12l-4 -14l-27 -36l-11 -9l-10 -13l-12 -10l-14 -2l-16 -11l-45 -9l-28 4l-12 4l-18 -2l-13 9
l-15 5zM384 631l3 -13l-5 -35l-33 -7l-12 3l-16 -2l-14 4l-31 -5l-32 2l-15 -2l-12 2l-20 -15v-41l-3 -22l-14 -2h-6l-2 2q-1 2 -1 5v5l6 40v35l10 7l7 -1l15 2l33 -2q7 1 13.5 2.5t13.5 2.5l13 -4q2 0 7.5 0.5t8.5 1.5l15 -4l48 10l6 51l-3 14v2l20 -1v-35zM85 311l10 -2
l25 4h37l16 48l12 17l11 5l21 -4l5 -5l12 -6v-1l-6 1l-16 -7l-17 -23l-14 -40h-26l-24 -4l-44 9zM192 103l-2 2q-2 3 -6.5 7.5l-6.5 6.5l1 -2q-3 3 -3 5l1 -1l-4 14v32l-2 9l15 -3l7 -38v-32z" />
    <glyph glyph-name="six" unicode="6" horiz-adv-x="430" 
d="M62 580l3 12l14 27l5 15l8 9l19 28l10 5l29 20l13 6l16 2l26 7h46l59 -22l10 -12l14 -9l7 -10l20 -21l6 -17l9 -12l1 -16l9 -27v-35l-7 -27l-30 -8l-11 4l-16 2l-15 -1l-29 7l-5 58l-13 35l-14 14l-10 7l-27 -3l-16 -9l-10 -11l-4 -12l-8 -13v-36l-4 -10l3 -19v-32
l-2 -13l16 -13l9 5h13l32 4l14 -6l28 -7l41 -18l33 -26l4 -14l10 -11l8 -13l9 -47v-121l-3 -17l2 -16v-32l-7 -28l-16 -41l-18 -23l-23 -17l-14 -14l-12 -6l-14 -1l-15 -11l-13 -3l-16 5h-46l-28 9l-12 7l-13 2l-13 7l-11 9l-13 15l-10 8l-9 13l-5 14l-13 26v20l-6 38l4 20
v30l-4 9v21l2 13l-2 15l2 16l-2 11v73l4 14v35l-4 9l2 18v46l2 14l-2 15v44zM177 117l32 -30l26 2l14 6l22 21l4 64l-3 32l4 16v15l-4 13l4 16v18l-7 44l-8 16l-11 7l-11 11l-30 -4l-13 -4l-13 -13l-9 -14l-7 -41v-27l4 -43l-3 -19l3 -14l-3 -10l4 -47zM185 -22l3 -1h45
l19 -6l18 4l15 11l12 1l20 10l14 14l22 17l21 26l18 47l7 27v35q0 3 -1 6.5t-1 6.5l3 17v127l-8 41l1 -3l10 -11l8 -13l9 -47v-121l-3 -17l2 -16v-32l-7 -28l-16 -41l-18 -23l-23 -17l-14 -14l-12 -6l-14 -1l-15 -11l-13 -3l-16 5h-46l-28 9zM183 176l4 14l-3 14l2 17l-4 45
v26l7 36l5 9l10 9l9 3h-3l23 3l3 -3q2 -1 5.5 -3t6.5 -4l3 -7l-7 -1l-13 -4l-13 -13l-9 -14l-7 -41v-27l4 -43l-3 -19l3 -14l-3 -10l3 -38q-5 4 -8.5 7t-7.5 8l-3 7zM205 470h-14q-2 0 -5 -3l-2 2l1 7v34l-3 16l4 8v36l7 10q0 2 1.5 5l2.5 5l7 8l8 5l21 3l5 -4l-3 1l12 -13
v-2h-3l-16 -9l-10 -11l-4 -12l-8 -13v-36l-4 -10l3 -19v-8zM312 485l10 1q4 0 7 -1t7 -1l13 -5l43 11l9 37v40l-9 26l-1 19l5 -5l6 -17l9 -12l1 -16l9 -27v-35l-7 -27l-30 -8l-11 4l-16 2l-15 -1l-29 7zM163 -15l22 -7l-13 2zM389 372l1 -3l-3 4z" />
    <glyph glyph-name="seven" unicode="7" horiz-adv-x="391" 
d="M358 607l-10 -10l-24 -40l-10 -10l-4 -15l-25 -52l-8 -33l-6 -12l-20 -54l-3 -19l-5 -14l-11 -57l-8 -33l1 -15l-6 -13l-5 -42v-30l-4 -17v-31l-4 -33v-25l-8 -48l-28 -5l-28 3l-16 -5l-17 2l-30 9l-6 43l1 14l7 33v26l7 58l5 15l4 21l-1 14l6 14l6 42l10 32l1 13l9 31
l8 13l1 14l5 16l14 24l3 14l10 29l9 15l4 12l7 13l6 17l8 13l26 53l-4 13h-31l-16 -2l-13 4h-15l-15 -3l-28 2l-15 -2l-12 4h-32l-6 50l6 29l31 10h32l16 -6l13 3h77l16 3l44 -6l18 6l13 -4l18 4l32 -11v-84zM393 577l-10 -10l-24 -40l-10 -10l-4 -15l-25 -52l-8 -33l-6 -12
l-20 -54l-3 -19l-5 -14l-11 -57l-8 -33l1 -15l-6 -13l-5 -42v-30l-4 -17v-31l-4 -33v-25l-8 -48l-28 -5l-28 3l-16 -5l-17 2l-30 9l-1 6l16 -2q4 1 7 2.5t7 2.5l27 -3l42 6l9 60v26l4 33v31l4 15v33q1 10 2.5 19t2.5 20l6 12q0 3 -0.5 8.5t-0.5 9.5l8 31q2 14 5.5 28t5.5 28
l4 12l4 22l19 52l7 14l4 16l4 16l25 51l3 12l7 7l24 40l14 14v68l20 -7v-84zM81 596l7 -2l19 2l31 -2l13 3h10l13 -4l20 2h17l-7 -14l-4 1h-15l-15 -3l-28 2l-15 -2l-12 4h-32z" />
    <glyph glyph-name="eight" unicode="8" horiz-adv-x="415" 
d="M49 577l1 13l6 18l13 24l10 12l6 15l12 9l11 12l25 17l29 11h29l32 4l26 -9l19 -4l12 -8l12 -4l26 -15l29 -37l11 -29l11 -40v-32l-2 -25v-45l-2 -30l-20 -42l-11 -13l2 -17l7 -16l9 -11l15 -40l4 -46l-3 -29v-100l-6 -19l-6 -10l-4 -16l-36 -48l-13 -7l-24 -18l-12 -2
l-17 -10l-16 -1l-15 -4l-27 7l-16 1l-12 4l-16 2l-14 4l-12 11l-25 12l-12 14l-31 49l-4 13l-2 19l-6 12v32l2 14l-2 26l4 16l-4 11l3 16v33l6 30l10 26l15 27l2 15l-18 27l-7 16l-1 15l-9 25l2 29l-2 18l2 13v43zM160 119l6 -14l14 -13h43l13 5l11 8l11 30l3 25l-4 17l2 27
v76l-12 26l-14 16l-11 5h-32l-13 -5l-12 -12l-5 -14l-4 -20l-2 -24l2 -29l-3 -15l3 -15l-3 -18l5 -42zM158 447l20 -21l14 -8l27 3l15 5l11 8l11 11l3 18l-2 30l3 11v29l-4 30l-11 30l-24 15h-28l-15 -7l-16 -21l-8 -16l2 -29l-2 -28l6 -13l-6 -33zM159 -18h1l12 -4
q3 0 8 -0.5t9 -0.5l30 -8l16 5l20 1l19 11l10 1l26 20l17 10l39 52l5 18l6 12l6 19v100l3 30l-4 50l-18 47l-8 10l-5 11q0 6 -1 9l9 11l21 44l2 34v45l2 25v35l-10 37l-7 18l15 -19l11 -29l11 -40v-32l-2 -25v-45l-2 -30l-20 -42l-11 -13l2 -17l7 -16l9 -11l15 -40l4 -46
l-3 -29v-100l-6 -19l-6 -10l-4 -16l-36 -48l-13 -7l-24 -18l-12 -2l-17 -10l-16 -1l-15 -4l-27 7l-16 1l-12 4l-16 2l-14 4zM173 135q-1 9 -2.5 19.5t-2.5 20.5l3 18l-2 15l2 12l-2 32q0 5 1 12t1 12l4 16q0 2 1.5 5l2.5 5l6 6l9 4h26q1 0 2 -1q2 -3 6 -7l7 -7h-10l-13 -5
l-12 -12l-5 -14l-4 -20l-2 -24l2 -29l-3 -15l3 -15l-3 -18l4 -38h-5l-6 6t-4 3q0 1 -1 2t-1 2zM176 495l-7 16l2 24q0 6 -1 12t-1 13l6 13q3 4 6.5 7.5t6.5 8.5l9 4h20q5 -3 8 -5.5t8 -5.5l1 -4h-6l-15 -7l-16 -21l-8 -16l2 -29l-2 -28l6 -13l-5 -29q-1 0 -1 1l-16 17l-4 7z
" />
    <glyph glyph-name="nine" unicode="9" horiz-adv-x="415" 
d="M48 582l2 15l6 9l12 30l9 13l23 24l22 16l29 15l11 2h18l40 7l31 -9l27 -13l16 -3l44 -39l6 -15l9 -12l12 -29l5 -59v-173l-3 -14l4 -33l-3 -12l3 -19l-4 -16l4 -26l-4 -15l4 -15l-4 -16l3 -17v-45l-17 -52l-10 -13l-6 -14l-21 -23l-23 -21l-39 -13l-15 -10l-48 3l-14 -3
l-13 9l-15 2l-16 5l-11 6l-14 15l-24 17l-14 25l-17 23l-3 19l-4 13l1 14l-3 33l7 26l26 4l14 5l56 -10l9 -24v-48l7 -13l20 -21l13 -4h28l12 9l18 22l3 17v44l2 26v36l-14 10l-13 -5l-10 3h-44l-13 4h-18l-11 10l-16 4l-8 8l-13 8l-23 18l-9 13l-12 25l-13 47v30l4 14
l-2 17v48l-2 14l3 33l-2 25zM159 366l6 -18l15 -8l11 -9l29 2l13 7l13 11l11 24v60l3 28v59l-2 15v26l-2 16l-10 15l-22 16l-29 2l-27 -16l-7 -12l-5 -19v-46l-3 -15l2 -15l-3 -19l3 -42v-45zM176 -29l19 4l48 -3l19 12l41 14l24 22l21 23l8 18l10 12l19 59v49l-2 15l4 14
l-5 16l4 13l-4 26l4 17q-1 3 -1 8.5t-1 9.5l2 11l-4 32l3 14v177l-5 63l-10 24l3 -2l6 -15l9 -12l12 -29l5 -59v-173l-3 -14l4 -33l-3 -12l3 -19l-4 -16l4 -26l-4 -15l4 -15l-4 -16l3 -17v-45l-17 -52l-10 -13l-6 -14l-21 -23l-23 -21l-39 -13l-15 -10l-48 3l-14 -3l-13 9
l-15 2zM170 428l-3 41l3 18q0 3 -1 7.5t-1 8.5l3 13v49q1 5 2.5 8t2.5 8l2 4q5 3 10 6.5t10 5.5q5 0 10.5 -0.5t10.5 -1.5l15 -11l2 -3l-6 1l-27 -16l-7 -12l-5 -19v-46l-3 -15l2 -15l-3 -19l3 -42v-46l-1 1l-5 2.5t-6 3.5l-5 12l1 -2l-4 15v44zM191 101q-2 2 -8 7.5t-8 8.5
l-4 7v41l11 -2l9 -24v-38zM154 234h7l13 -4h45l14 -4l10 4l1 -1v-14h-31l-13 4h-18l-11 10l-16 4zM155 -18q1 -1 4 -1l11 -8h-2l-11 6z" />
    <glyph glyph-name="colon" unicode=":" horiz-adv-x="230" 
d="M68 85l7 8l13 10l13 2h41l11 -11l17 -25l-3 -28l-5 -13l-21 -24l-12 -6l-28 2l-23 14l-17 28l2 27zM69 526l8 13l23 11l29 6l14 -8l9 -10l16 -23v-29l-7 -12l-18 -21l-15 -4h-29l-23 14l-8 8v17l-9 27zM113 -16l19 -1l18 9l26 30l6 13l3 31l3 -2l17 -25l-3 -28l-5 -13
l-21 -24l-12 -6l-28 2zM110 434h21l19 5l23 26l10 18v29l4 -4l16 -23v-29l-7 -12l-18 -21l-15 -4h-29l-23 14z" />
    <glyph glyph-name="semicolon" unicode=";" horiz-adv-x="231" 
d="M168 75l3 -20l-4 -24l-13 -64l-9 -11l-9 -30l-10 -12l-6 -15l-12 -6l-24 -18l-20 19l18 30l10 25v16l4 18l-8 18l-22 4l-8 26l4 18l-3 15l9 40l39 3l30 5l28 -6zM69 530l19 18l14 6h26l16 -9l20 -17l5 -16l-6 -41l-8 -11l-28 -14l-27 -2l-26 18l-5 12l-9 9v33zM203 45
l3 -20l-4 -24l-13 -64l-9 -11l-9 -30l-10 -12l-6 -15l-12 -6l-24 -18l-20 19l4 7l14 10l15 8l8 19l9 10l8 28l11 13l14 69l4 27l-3 22v-1l-1 3l18 -3zM112 430l19 1l33 16l14 20l5 44l16 -13l5 -16l-6 -41l-8 -11l-28 -14l-27 -2z" />
    <glyph glyph-name="less" unicode="&#x3c;" horiz-adv-x="313" 
d="M224 436l-11 -15l-36 -45l-13 -7l4 -29l38 -41l9 -15l23 -31l-3 -45l-14 -11l-17 3l-24 15l-13 13l-12 7l-18 25l-13 6l-10 15l-10 8l-15 8l-11 17l-6 55l5 25l15 14l10 13l21 18l43 41l37 31l18 -5l13 -9l4 -49zM250 477l6 -1l13 -9l4 -49l-14 -12l-11 -15l-36 -45
l-13 -7l2 -13l-18 19l-3 16l7 4l40 49l9 12l17 16zM220 181h4l26 19l2 50l21 -27l-3 -45l-14 -11l-17 3z" />
    <glyph glyph-name="equal" unicode="=" horiz-adv-x="330" 
d="M267 254l3 -15l-5 -37l-33 -2l-11 -4h-17l-14 4h-19l-12 -4l-16 3l-32 2l-15 -4l-30 6l-9 52l10 29l30 4l14 -1l16 4h32l12 -3h32l18 2l42 -6zM268 472v-18l-6 -31l-29 -4l-31 2l-15 -4l-29 5h-18l-12 1h-63l-7 31l6 53l31 4l15 -3l14 3h33l16 -3l17 4h29l45 -10z
M303 442v-18l-6 -31l-29 -4l-31 2l-15 -4l-29 5h-18l-12 1h-63l-4 15h32l12 -1h18l30 -5l15 4l32 -2l40 5l8 42v22l-1 2l17 -3zM302 224l3 -15l-5 -37l-33 -2l-11 -4h-17l-14 4h-19l-12 -4l-16 3l-32 2l-15 -4l-30 6l-2 9l13 4q7 0 14 -1t14 -1l19 -4l14 5h13l14 -4h23
q1 0 4.5 1.5t5.5 2.5l46 2l6 54l-3 15l16 -2z" />
    <glyph glyph-name="greater" unicode="&#x3e;" horiz-adv-x="313" 
d="M235 367l4 -14l-5 -40l-36 -37l-8 -5l-12 -13l-13 -7l-12 -17l-11 -9l-8 -10l-26 -14h-15l-15 10l-3 27l1 16l29 45l22 22l18 25v21l-11 10l-7 10l-11 10l-29 39l-14 12l7 51l10 7h17l27 -16l43 -39l9 -13l14 -7l20 -19l15 -22v-23zM270 337l4 -14l-5 -40l-36 -37l-8 -5
l-12 -13l-13 -7l-12 -17l-11 -9l-8 -10l-26 -14h-15l-15 10l-1 5l31 17l11 14l-1 -3l8 6l14 19l16 10l10 11l-4 -2l12 7l39 40l6 51l-4 13v17l5 -4l15 -22v-23z" />
    <glyph glyph-name="question" unicode="?" horiz-adv-x="415" 
d="M46 574v21l11 42l17 23l6 15l11 9l15 7l12 9h13l13 8l18 4l16 -1l15 2h30l13 -6l14 4l43 -12l13 -11l16 -2l8 -11l12 -10l14 -31l3 -12l7 -13l3 -17l-2 -12v-98l2 -12l-6 -16l-7 -9v-19l-10 -12l-6 -11l-11 -14l-5 -11l-12 -12l-12 -24l-7 -7l-10 -16l-5 -13l-22 -59
l-5 -29l1 -15l-10 -45l-32 -10l-45 8l-8 30l5 13v46l5 20l1 15l3 12l7 16l1 10l9 16l8 28l10 18l8 10l6 17l10 10l8 12l11 30l7 9l5 50l-4 15l3 30l-11 33l-28 13l-30 3l-28 -11l-8 -7l-9 -18l1 -15l-5 -29l3 -30l-5 -47l-30 -4h-33l-28 6l-6 44v64zM197 135l13 -2l45 14
l12 53q0 3 -0.5 8.5t-0.5 9.5q1 7 2.5 13.5t2.5 13.5l23 61q0 1 1 2.5t1 2.5l8 13l7 7l12 24l13 13l3.5 7t3.5 8l9 11l6 12v-1l13 16v20l10 17l3 9l-2 15v98l2 15l-3 17l-9 17l2 -3l-3 11l-2 4l8 -6l14 -31l3 -12l7 -13l3 -17l-2 -12v-98l2 -12l-6 -16l-7 -9v-19l-10 -12
l-6 -11l-11 -14l-5 -11l-12 -12l-12 -24l-7 -7l-10 -16l-5 -13l-22 -59l-5 -29l1 -15l-10 -45l-32 -10l-45 8zM159 81l6 14l27 14l25 -2l15 -7l18 -17l9 -15v-26l-7 -16l-10 -13l-21 -11l-29 -2l-17 9l-17 17l-5 15l-2 30zM83 436h28l43 5l6 61l-3 30l5 27q0 3 -0.5 6.5
t-0.5 7.5l5 10l6 5l21 9l24 -3q6 -3 10 -5.5t10 -4.5l1 -3l-12 1l-28 -11l-8 -7l-9 -18l1 -15l-5 -29l3 -30l-5 -47l-30 -4h-33l-28 6zM203 -14l22 1l26 13l15 19l8 20v24l11 -10l9 -15v-26l-7 -16l-10 -13l-21 -11l-29 -2l-17 9z" />
    <glyph glyph-name="at" unicode="@" horiz-adv-x="575" 
d="M45 379l-2 33l4 11l2 17l-3 33l6 12v35l5 9l2 15l5 15l2 16l9 30l8 12l5 16l8 15l10 6l10 15l13 7l15 5l13 13l13 1l29 9l42 4l15 5l18 -4h91l42 -16l12 1l36 -29l10 -3l11 -12l8 -13l5 -16l9 -12l5 -10l2 -15l4 -13l6 -36l6 -15l3 -16l-1 -14l6 -11v-36l-3 -12l4 -35
v-61l-3 -12l4 -21l-4 -13v-31l-4 -12l-3 -19l-11 -44l-9 -11l-7 -14l-21 -20l-13 -4l-13 -9l-15 -3l-13 -6l-14 -3l-15 2l-13 -3l-26 4l-23 25l-17 5l-8 -9l-13 -7l-33 -7l-14 7l-21 6l-13 9l-17 43l-6 10l-3 19l2 13l-9 51v64l3 27l-3 18l3 17l-2 23l8 30v17l9 44l13 25
l11 13l17 3l12 8h44l8 -9l11 -7l12 -4l18 15l44 -21v-40l2 -13l-2 -26v-51l3 -14l-4 -27l4 -13v-150l12 -16l17 3l10 7l17 24l7 31l-2 12v62l4 32l-5 30l4 14l-4 12v18l-4 31l2 15l-7 27l-1 16l-8 16l-1 12l-15 28l-19 26l-11 4l-8 13l-14 6l-16 -1l-11 3l-17 8l-15 -3h-29
l-14 2l-29 -4l-13 -5l-15 -10l-10 -3l-21 -17l-15 -23l-7 -18l-5 -8l-2 -21l-5 -9l-10 -93v-122l4 -35l-1 -12l6 -12v-64l9 -30l12 -27l7 -9l8 -16l10 -12l23 -17l42 -12l11 2h79l30 -4l7 -33l-5 -32l-27 -8l-25 5h-102l-43 7l-27 13l-23 15l-12 11l-20 24l-3 11l-9 14
l-4 16l-7 15l-1 16l-4 9l-9 35l-4 30v34l-3 13l1 16l-4 15v82zM264 340l-2 -18l1 -9l-3 -20l3 -11v-32l2 -14l6 -18l8 -11l24 -8l11 14v27l2 17v120l-3 24l4 16v32l-3 42l-9 11l-26 -5l-6 -4l-6 -16l-3 -29v-31l-4 -38v-24zM179 126l7 -17l-2 3l-5 10l-11 15l2 -2l-12 27v-2
l-8 26v67l-6 12l1 10l-4 35v120l10 91l5 9q0 5 0.5 10t1.5 10l3 5l7 17l12 20q5 3 9.5 7.5t8.5 7.5l11 3l11 8q2 1 6 2.5t7 2.5l25 4l14 -2h32l10 2l11 -5l17 -5q3 0 7 0.5t8 0.5q4 -2 6 -2l6 -12l-1 1l-17 8l-15 -3h-29l-14 2l-29 -4l-13 -5l-15 -10l-10 -3l-21 -17
l-15 -23l-5 -11l-7 -15l-6 -28l-1 -2l-1 -9l-1 -5v-5l-3 -23l-5 -19q0 -4 0.5 -8t0.5 -8l-1 -16v-1l-2 -9l2 -10v-26l-1 -8v-69l3 -16l2 -18l-1 -12l4 -9l-1 -8l3 -21v-38zM375 96h3l13 4l17 -2l12 2q2 2 6.5 3.5t8.5 3.5l17 4l13 8l13 4l27 26l6 12l12 14l12 49l3 20v-2
l4 12v31l5 15l-4 20l2 11v66l-4 30l3 12v43l-6 11l1 14l-3 17l-6 15l-6 35l-4 14l-2 13l-7 15l-8 11l-1 2l9 -9l8 -13l5 -16l9 -12l5 -10l2 -15l4 -13l6 -36l6 -15l3 -16l-1 -14l6 -11v-36l-3 -12l4 -35v-61l-3 -12l4 -21l-4 -13v-31l-4 -12l-3 -19l-11 -44l-9 -11l-7 -14
l-21 -20l-13 -4l-13 -9l-15 -3l-13 -6l-14 -3l-15 2l-13 -3l-26 4zM421 223l-9 -10l-1 -1q-2 0 -3.5 -0.5t-3.5 -0.5q-1 2 -2 2.5t-1 1.5v149l-4 12l4 26l-3 16v47l2 26l-2 13v19l20 -9v-40l2 -13l-2 -26v-51l3 -14l-4 -27l4 -13v-107zM275 378l4 38v30l3 26q2 3 1.5 5.5
t0.5 5.5l15 3l3 -38v-1l-3 -29v-12l-1 -3l1 -10v-6l-4 -38v-24l4 -15l-2 -18l1 -9l-3 -20l3 -11v-36q-3 1 -6 3t-6 3q-2 2 -1.5 2t-0.5 1q-2 5 -2 8t-2 7l-2 10v34q-1 2 -1 4t-1 5l2 18l-1 11l2 21l-4 12v23zM179 -17l33 -5h104l26 -5l40 10l6 47l-1 3l14 -2l7 -33l-5 -32
l-27 -8l-25 5h-102l-43 7zM253 107h2l37 8l19 10l3 4q1 0 2 -0.5t2 -0.5l19 -21l-13 -7l-33 -7l-14 7l-21 6z" />
    <glyph glyph-name="A" unicode="A" horiz-adv-x="516" 
d="M317 670l1 -16l10 -25v-15l7 -18l2 -11l5 -33l11 -28l1 -12l5 -16l1 -13l6 -17v-16l7 -28l7 -14l6 -33l9 -25v-16l7 -12v-18l7 -17l3 -30l10 -28l1 -13l6 -13l4 -19l4 -23l7 -16l1 -16l6 -13l5 -28l5 -34l7 -12l3 -29l-11 -7l-26 -10h-18l-18 5l-24 3l-18 41l-2 18
l-18 12l-15 3h-17l-15 -5h-48l-17 6l-30 -6l-16 1l-17 -11l-4 -15l-12 -42l-29 -5h-17l-14 -4l-31 3l-7 13l3 25v16l6 17l5 26l9 29l6 31l7 27l8 36l6 8v20l10 29v13l7 29l10 28l2 13l5 31l7 14l4 31l5 15l1 12l7 18v16l9 30l9 23v19l11 27v18l8 26l1 16l8 13l8 29l26 -2
l14 6l15 -4h40zM320 212l-5 12l-8 30l-7 17v17l-5 9v15l-7 18v10l-10 31l-2 17l-8 26l-6 33l-8 -4l-5 -15v-9l-5 -16l-2 -15l-7 -18l-1 -11l-7 -16l-3 -30l-5 -11l-2 -16l-11 -31l-1 -16l-5 -11l-4 -15v-17l9 -15h46l29 5l17 -5l20 2l6 17zM352 640l1 -16l10 -25v-15l7 -18
l2 -11l5 -33l11 -28l1 -12l5 -16l1 -13l6 -17v-16l7 -28l7 -14l6 -33l9 -25v-16l7 -12v-18l7 -17l3 -30l10 -28l1 -13l6 -13l4 -19l4 -23l7 -16l1 -16l6 -13l5 -28l5 -34l7 -12l3 -29l-11 -7l-26 -10h-18l-18 5l-24 3l-4 10l9 -3h22l29 11l22 14l-4 39l-7 13l-5 31l-5 30
l-6 14l-1 15l-7 17l-4 21l-4 20l-6 14l-1 11q-2 5 -5 13t-5 14l-3 33l-7 17v17l-7 13v14q-2 5 -4.5 13t-4.5 13l-6 33q-2 2 -3.5 6.5t-3.5 8.5l-7 27v16l-6 18l-1 12l-5 16l-1 11l-11 27q-1 8 -2.5 16t-2.5 16l-2 13q-1 3 -3 8t-4 9v16l-10 25l-1 12h7zM82 -17l6 -1l13 4h17
l38 6l18 61l8 6l15 -1l25 5l16 -5h54l15 5h13l12 -3l8 -4v-8h-1l-15 -5h-48l-17 6l-30 -6l-16 1l-17 -11l-4 -15l-12 -42l-29 -5h-17l-14 -4l-31 3zM234 196h-20l-3 5v11l3 12l6 13q0 3 0.5 8.5t0.5 9.5l11 30q0 3 1 6.5t1 7.5l5 10l2 29l8 18q0 2 0.5 5t0.5 6l7 19q0 5 1 7
l3 -9l2 -14l8 -26l-1 -4l-1 -11l-7 -16l-3 -30l-5 -11l-2 -16l-11 -31l-1 -16l-5 -11z" />
    <glyph glyph-name="B" unicode="B" horiz-adv-x="490" 
d="M276 695l20 2l15 -2l12 -4l56 -27l9 -14l13 -10l18 -27l12 -28l9 -27v-17l5 -16v-57l-5 -16l-4 -29l-8 -31l-12 -29l-15 -23v-21l6 -15l11 -15l13 -26l10 -30l2 -15v-31l-3 -33l-6 -30l-9 -24l-19 -28l-15 -27l-12 -10l-28 -10l-12 -13l-14 1l-33 -8l-13 -6l-15 4l-33 -6
l-16 3l-15 -2l-16 2l-15 -1l-11 2l-49 -5l-30 11l-6 25v74l3 21l-4 9l4 16v19l-4 12l2 13l-2 18v28l3 15v30l-2 20v27l3 16v61l-2 12v137l2 12l-2 19v26l-2 18l9 62l31 2h76l30 4l46 -4zM292 396l18 17l11 15l9 23l3 14l-1 14l4 31l-6 30l-9 15l-8 9l-22 15l-16 7h-45l-15 5
l-15 -2l-16 -13l-1 -15l3 -17l-3 -44l3 -25v-31l-4 -14v-33l18 -13l16 2h62zM276 116l15 5l24 12l13 25l7 28v30l-18 35l-12 12l-15 2l-27 10l-32 -4l-15 6h-14l-21 -14l5 -47l-4 -44l4 -49l16 -14l14 3l18 -5l28 5zM113 -19q11 1 22.5 2.5t22.5 2.5l11 -2l15 1l16 -2
q3 0 6 1t6 1l19 -4l33 7l16 -5l16 7l30 8l20 -1l14 15l27 10l15 13l17 30l-1 -1l21 31l10 27l6 27l3 37v32l-2 16l-12 35l-13 27l-10 14l-5 13v12l13 21l14 32l8 31l4 30l5 16v63l-5 16v16l-11 34l-6 12l16 -23l12 -28l9 -27v-17l5 -16v-57l-5 -16l-4 -29l-8 -31l-12 -29
l-15 -23v-21l6 -15l11 -15l13 -26l10 -30l2 -15v-31l-3 -33l-6 -30l-9 -24l-19 -28l-15 -27l-12 -10l-28 -10l-12 -13l-14 1l-33 -8l-13 -6l-15 4l-33 -6l-16 3l-15 -2l-16 2l-15 -1l-11 2l-49 -5l-30 11zM217 401h-1q-3 0 -6.5 -1t-6.5 -1q-2 2 -3 2t-3 2v23l4 14v37l-3 24
l3 45l-3 18v4l8 7q2 1 6 1l15 -5h45l12 -5q3 -3 6.5 -5.5t6.5 -4.5h-32l-15 5l-15 -2l-16 -13l-1 -15l3 -17l-3 -44l3 -25v-31zM217 142l1 -16l-4 2q-2 -1 -4.5 -1t-4.5 -1l-4 4l-4 42l4 44l-4 39q4 2 5 3.5t3 3.5h7l16 -6l33 4l27 -10q5 0 9 -1q2 -4 4 -5l-3 1l-32 -4
l-15 6h-14l-21 -14l5 -47zM305 242h-1h1z" />
    <glyph glyph-name="C" unicode="C" horiz-adv-x="446" 
d="M51 565l5 27l8 17l3 14l11 8l5 15l9 8l10 14l25 19l15 7l27 7l29 9h44l16 2l17 -6l29 -10l25 -12l25 -14l9 -14l18 -24l5 -13l9 -30l7 -15l2 -9l3 -45l-4 -22l4 -15l-5 -29l-44 -7l-15 3l-16 -1l-27 4l-7 34l2 15v47l-3 12l-18 27l-30 10h-46l-12 -14l-12 -5l-8 -18
l-9 -42v-82l4 -15v-11l-3 -18l3 -11v-78l-4 -15v-78l3 -28l5 -44l9 -15l11 -11l14 -10l12 -2h35l12 2l13 11l13 7l5 12l4 20v62l8 32h29l11 2h17l13 3l29 -5l4 -34v-74l-6 -14v-19l-5 -14l-6 -10l-7 -18l-9 -7l-7 -17l-12 -7l-11 -13l-15 -4l-26 -17l-14 -2l-15 -6l-30 -4
l-26 3l-30 5l-14 -2l-14 10l-14 4l-27 17l-9 11l-14 9l-10 10l-5 10l-9 12l-4 15l-8 15l-4 18l1 11l-6 14l3 33l-1 10v29l-2 33l3 26l-3 36l2 11l-2 15l3 13l-3 19v15l3 12v27l-3 19v13l3 16l-4 30l3 14v30zM195 153l3 -31l-4 3l1 -1l-5 5t-4 5l-6 9l-5 41l-3 29v75l4 13v83
l-3 10l3 15v16l-4 13v80l9 40l-1 -2l4 10l12 6l9 11h39q6 -2 11 -4l10 -4q1 -5 4 -7h-36l-12 -14l-12 -5l-8 -18l-9 -42v-82l4 -15v-11l-3 -18l3 -11v-78l-4 -15v-78zM175 -21q3 1 9 1q8 -1 14.5 -2.5t14.5 -2.5l27 -3l35 4l16 7l14 1q5 3 12 8t13 9l19 5l13 16l15 9l7 18
l10 9l7 19l8 15l4 10v20l6 16v76l-1 6l17 -3l4 -34v-74l-6 -14v-19l-5 -14l-6 -10l-7 -18l-9 -7l-7 -17l-12 -7l-11 -13l-15 -4l-26 -17l-14 -2l-15 -6l-30 -4l-26 3l-30 5l-14 -2l-14 10l-14 4zM332 434q4 1 10 1l15 -3l59 9l6 43l-4 15l4 20l-3 47l-2 11l-8 18v-2l-9 30
l16 -21l5 -13l9 -30l7 -15l2 -9l3 -45l-4 -22l4 -15l-5 -29l-44 -7l-15 3l-16 -1l-27 4z" />
    <glyph glyph-name="D" unicode="D" horiz-adv-x="471" 
d="M252 696l27 -6l13 -8l13 -3l12 -13l11 -4l14 -10l9 -17l10 -6l7 -17l17 -20l8 -16l4 -17l12 -25l11 -44l9 -31l-1 -14l5 -36l2 -25l-2 -21l4 -26l-3 -15v-31l-5 -31l-3 -32l-3 -9l-6 -30l-6 -14l-10 -28l-2 -15l-15 -29l-17 -22l-16 -27l-10 -10l-13 -6l-25 -20l-10 -2
l-14 -10h-13l-17 -5l-15 1l-29 -3h-18l-14 2l-18 -3l-12 1l-16 -2l-15 2l-30 8l-8 26v32l-2 26l3 18v15l-3 12l4 18l-4 30l1 12v60l3 21l-1 11v19l-2 15l2 14l-2 10v20l3 14l-3 28v28l3 17l-4 15l3 17v29l-3 28l4 14v30l-2 18v29l-2 31l8 32l31 2l13 2h51l12 -4l49 5z
M248 113l15 8l12 10l6 18l9 9l7 18l7 8l8 31l7 30l-2 12l2 18l4 15v12l4 17l-3 13l3 44l-5 16l1 16l-4 31l-5 17l1 9l-7 15l-2 18l-6 16l-8 13l-2 14l-9 7l-20 22l-15 10l-11 11l-31 -1l-19 -4l-1 -41l2 -14l-4 -17l2 -14l-2 -13v-17l3 -28v-63l-2 -15l3 -18l-4 -15v-13
l2 -13v-34l2 -10l-1 -15v-35l-3 -9l3 -21l-3 -14l4 -10v-36l15 -10h32zM115 -16l12 -2l16 2l14 -1l16 3l14 -2h20l29 3l16 -1l15 5h17l17 12h7l29 23l17 9l7 7l18 30l17 21l18 36q0 3 1 8t1 9l9 24l7 16l6 30l3 10l3 33l5 31v31l3 15l-4 27l2 21l-2 26q-1 8 -2.5 17t-2.5 18
l1 15l-10 34l1 -1l-11 44l-12 25l-3 12l11 -12l8 -16l4 -17l12 -25l11 -44l9 -31l-1 -14l5 -36l2 -25l-2 -21l4 -26l-3 -15v-31l-5 -31l-3 -32l-3 -9l-6 -30l-6 -14l-10 -28l-2 -15l-15 -29l-17 -22l-16 -27l-10 -10l-13 -6l-25 -20l-10 -2l-14 -10h-13l-17 -5l-15 1l-29 -3
h-18l-14 2l-18 -3l-12 1l-16 -2l-15 2l-30 8zM221 126h-16l-4 3v30l-3 7l3 13l-4 21l3 8v38l1 15l-2 10v34l-2 13v12l5 15l-4 19l2 15v65l-3 28v15l2 13q0 2 -1 6t-1 6l4 16l-2 17q0 7 0.5 14t0.5 15l5 1q7 0 11.5 0.5t11.5 0.5l8 -8l11 -8h-8l-19 -4l-1 -41l2 -14l-4 -17
l2 -14l-2 -13v-17l3 -28v-63l-2 -15l3 -18l-4 -15v-13l2 -13v-34l2 -10l-1 -15v-35l-3 -9l3 -21l-3 -14l4 -10v-1z" />
    <glyph glyph-name="E" unicode="E" horiz-adv-x="409" 
d="M348 663l1 -9l-2 -19l3 -14l-9 -24l-28 -7h-59l-14 -4h-39l-15 -14v-118l-4 -19l3 -46l13 -18h47l19 2l13 -1l16 5l32 -5l3 -29l-2 -30l2 -17l-4 -29l-31 -3h-31l-33 3l-27 -6l-16 -9v-21l-2 -13l2 -19v-59l-3 -12l16 -19l31 -3l28 6h55l31 -5l6 -48l-2 -12l2 -14l-8 -25
l-26 -8l-17 2l-15 -5l-13 2h-60l-14 -3h-17l-26 6l-17 -6h-11l-45 9l-8 44l2 27l-3 33v28l3 15l-1 15l2 15v31l-3 19l3 26l-4 18l3 11v34l-3 10v19l4 16l-3 27l2 18l-2 31l2 29l-2 15l2 27v64l-3 12v28l4 33l-1 15l5 32l31 3l29 -2l12 2l14 -4l15 5l14 -3h30l32 3l13 -2
l13 3l62 -11zM383 633l1 -9l-2 -19l3 -14l-9 -24l-28 -7h-59l-14 -4h-39l-15 -14v-118l-4 -19l1 -19h-13l-5 6l-3 43l4 17v113q4 3 6 6h37l14 4h58l36 9l14 37l-4 18l2 15l-1 10l17 -3zM221 122l-13 2l-8 8l1 6v61l-2 19l2 13v12l7 4l24 5l29 -3h33l44 4l5 41l-2 19l2 31
l17 -2l3 -29l-2 -30l2 -17l-4 -29l-31 -3h-31l-33 3l-27 -6l-16 -9v-21l-2 -13l2 -19v-47zM114 -17l9 -2h17q3 2 6.5 2.5t7.5 2.5l22 -5h25l14 3h56l16 -2l15 5l18 -2l35 10l10 34l-2 18l2 14l-2 18l16 -2l6 -48l-2 -12l2 -14l-8 -25l-26 -8l-17 2l-15 -5l-13 2h-60l-14 -3
h-17l-26 6l-17 -6h-11l-45 9z" />
    <glyph glyph-name="F" unicode="F" horiz-adv-x="399" 
d="M368 662l-2 -26l3 -13l-8 -27l-28 -10l-15 4l-14 1l-28 -5l-16 6l-17 -4l-15 -1l-13 3l-17 -2l-12 -15l-4 -10v-50l2 -12l2 -30l-3 -11l3 -14v-20l-2 -11v-16l15 -13h29l33 -4l28 4l42 -8l8 -41v-17l-4 -38l-46 -10l-17 5l-15 -2l-11 1h-18l-13 -3l-14 4l-15 -17l-4 -13
l4 -19l-2 -11l2 -21v-44l-4 -31l4 -15l-4 -25l4 -35l-9 -39l-27 -7h-30l-13 -1l-26 4l-9 28l4 33l-2 17l-2 30v25l4 31l-1 15v32l-3 12l4 15l-2 33l2 30l-4 14v13l3 15l-3 21v42l2 15l-1 15l3 30l-1 15l-3 13l3 20l-2 12l3 17v12l-3 14l-1 14v30l3 33l4 42l47 11l12 -5l15 3
l17 -3l15 5l16 -2l28 -4l14 2h63l11 4h15l33 -9zM112 -15h41l37 9l11 50l-4 37l4 26l-4 15l4 29v45l-2 21l2 13l-4 15q0 1 1 3t1 3l7 8l13 -1l13 3h14l11 -1q3 0 7 1t7 1l17 -6l61 13l5 50v20l-3 11l15 -2l8 -41v-17l-4 -38l-46 -10l-17 5l-15 -2l-11 1h-18l-13 -3l-14 4
l-15 -17l-4 -13l4 -19l-2 -11l2 -21v-44l-4 -31l4 -15l-4 -25l4 -35l-9 -39l-27 -7h-30l-13 -1l-26 4zM403 632l-2 -26l3 -13l-8 -27l-28 -10l-15 4l-14 1l-28 -5l-16 6l-17 -4l-15 -1l-13 3l-17 -2l-12 -15l-4 -10v-50l2 -12l2 -30l-3 -11l3 -14v-15h-17l-5 4v10l2 11v24
l-2 12l1 6l-1 33l-2 12v48q0 1 0.5 1.5t0.5 1.5l8 10q2 0 3 0.5t2 0.5l13 -3l22 1l12 3l15 -6l31 6q2 0 6 -0.5t7 -0.5l16 -5l41 15l11 39l-4 14l2 25l-1 5l18 -5z" />
    <glyph glyph-name="G" unicode="G" horiz-adv-x="452" 
d="M64 563l4 31l10 27l9 14l19 24l26 19l13 12l27 13l13 3l29 2l46 4l28 -12l14 -3l15 -7l14 -4l11 -8l8 -15l13 -5l15 -30l10 -21l10 -29v-15l3 -16v-35l-7 -28l-28 -7h-11l-29 -2l-27 6l-8 36v31l-10 28l-12 7l-9 14l-15 6l-28 -3l-14 -4l-14 -12l-16 -22l-5 -18v-152
l2 -13v-29l-2 -31l3 -13v-18l-3 -14l2 -30l-2 -19l3 -12l-2 -29l3 -29l7 -31l12 -11l14 -8l13 -3l27 -2l16 5l18 16l14 30v64l-15 20h-33l-3 45l-4 25l10 34h29l31 2l14 3l12 -3l19 4l42 -5l7 -31v-49l-1 -14v-108l-4 -18l-1 -14l-6 -11l-6 -17l-12 -26l-9 -9l-12 -7l-9 -10
l-13 -9l-12 -12l-16 -4l-10 -8l-32 -2l-13 -4l-30 3l-17 -3l-14 9l-15 2l-29 9l-10 12l-23 18l-10 13l-11 10l-9 13l-2 18l-5 16l-6 11l-8 34v31l4 27l-4 14l4 14v28l-4 19l3 13l-1 15v74l2 28l-3 17l2 28l-3 14l4 15v12l-2 15v35zM197 -29l21 4l30 -3l13 4l33 2l10 8l21 5
l15 15l-2 -1l17 12l7 8l14 9l7 7l17 36l4 12l-2 -2l9 15q0 2 0.5 8t0.5 10l4 16v110l1 14v51l13 -1l7 -31v-49l-1 -14v-108l-4 -18l-1 -14l-6 -11l-6 -17l-12 -26l-9 -9l-12 -7l-9 -10l-13 -9l-12 -12l-16 -4l-10 -8l-32 -2l-13 -4l-30 3l-17 -3l-14 9l-15 2zM207 125l1 -5
l-10 6l-4 4l-3.5 14t-3.5 13l-3 29l2 31l-3 12l2 15q0 7 -1 13t-1 13l3 14v26l-3 13l2 27v29l-2 13v152q1 4 2 7l2 6q3 5 6.5 8.5t6.5 7.5l11 9l10 3h-2l23 2q2 -1 4.5 -2t4.5 -1l9 -13l-8 -1l-14 -4l-14 -12l-16 -22l-5 -18v-152l2 -13v-29l-2 -31l3 -13v-18l-3 -14l2 -30
l-2 -19l3 -12l-2 -29zM332 460l23 2h14l38 9l9 38v41l-3 16v14l-13 37l-7 13l5 -2l15 -30l10 -21l10 -29v-15l3 -16v-35l-7 -28l-28 -7h-11l-29 -2l-27 6zM171 -17q6 -2 9 -2l11 -8l-15 4z" />
    <glyph glyph-name="H" unicode="H" horiz-adv-x="486" 
d="M185 667v-76l-3 -20v-62l4 -13l-4 -16l2 -12l-2 -15l4 -35l-3 -29l3 -14l12 -17l13 2l16 -4h17l12 3l30 3l15 16l-2 9v19l3 33l-4 13l4 12l-2 17v134l-2 17l4 20l-4 12l9 32l28 4h14l28 -2l26 -5l7 -30v-30l-2 -29l3 -13l-2 -15l2 -16v-49l-2 -27l3 -12v-34l-3 -26l3 -32
v-28l-4 -17l3 -14l-2 -15l2 -33v-72l-3 -31v-45l2 -13l-2 -21l4 -11v-18l-3 -16l3 -13l-8 -31l-41 -3l-16 3l-13 -6l-30 9l-5 47l3 28v34l-4 28v16l4 31l-4 15v30l-11 14h-60l-16 4l-13 -1l-12 -15v-20l-4 -16l4 -13v-61l-3 -28v-61l-4 -35l-29 -2l-16 -3l-11 5l-16 -5
l-27 10l-6 24l-2 16l2 18l-1 11v79l3 27v30l-4 19l4 16l-3 13l3 16v30l-4 30l4 26v31l-3 15v14l3 19l-4 30l1 16v26l3 19v75l-4 25l4 20l-4 11l8 28l29 9l15 -4l12 5h15l26 -10zM338 -19q6 4 9 5l14 -2l56 4l11 46l-3 12l2 13v23q-1 1 -2 4.5t-2 5.5l2 20l-2 13v44l3 31v73
l-2 33l2 19l-2 12l3 12v32l-3 30l3 25v40l-3 12l2 23v49l-2 16l2 19l-3 13l2 25v32l13 -2l7 -30v-30l-2 -29l3 -13l-2 -15l2 -16v-49l-2 -27l3 -12v-34l-3 -26l3 -32v-28l-4 -17l3 -14l-2 -15l2 -33v-72l-3 -31v-45l2 -13l-2 -21l4 -11v-18l-3 -16l3 -13l-8 -31l-41 -3
l-16 3l-13 -6l-30 9zM113 -17l10 3l10 -5l18 4l42 2l5 49v60l3 28v67l-3 10l3 12v18q4 4 5 6h4l14 -4h55l4 -5v-10h-21l-16 4l-13 -1l-12 -15v-20l-4 -16l4 -13v-61l-3 -28v-61l-4 -35l-29 -2l-16 -3l-11 5l-16 -5l-27 10zM220 637v-76l-3 -20v-62l4 -13l-4 -16l2 -12
l-2 -15l4 -35l-2 -15l-5 2q-5 0 -9 -1l-4 6l-2 12l2 25l-4 36l2 15q0 2 -1 5t-1 5l5 19l-5 14v58l3 20v76l12 -4z" />
    <glyph glyph-name="I" unicode="I" 
d="M186 662v-40l-4 -18l2 -15v-93l2 -29l-3 -14l3 -16l-4 -27l2 -19l2 -27l-2 -16l2 -29v-31l-2 -17v-44l-2 -27l1 -16l3 -32l-4 -13l2 -18v-30l2 -11v-16l-2 -12l-6 -49l-26 -3l-15 -4l-14 1l-13 5l-31 2l-6 32v59l3 15l-4 15v27l4 18l-1 15v30l-3 17l4 14l-4 11v20l4 15
v14l-4 13l4 14l-3 14l3 18l-4 31v41l4 17v14l-4 13v20l4 31l-2 13l1 16v31l-2 26v34l3 14l2 25l28 10l31 -2l41 -6zM221 632v-40l-4 -18l2 -15v-93l2 -29l-3 -14l3 -16l-4 -27l2 -19l2 -27l-2 -16l2 -29v-31l-2 -17v-44l-2 -27l1 -16l3 -32l-4 -13l2 -18v-30l2 -11v-16
l-2 -12l-6 -49l-26 -3l-15 -4l-14 1l-13 5l-31 2l-2 11l7 -3l21 -1l14 4l38 5l7 60l2 14v16l-2 11v30q0 2 -1 7t-1 7l4 14l-3 36l-1 15l2 27v44l2 17v31l-2 29l2 16l-2 27q0 4 -1 9.5t-1 9.5l4 28q-1 2 -1.5 6.5t-0.5 6.5l2 12l-2 33v93q0 3 -1 7.5t-1 7.5l4 16v45l12 -2z
" />
    <glyph glyph-name="J" unicode="J" horiz-adv-x="400" 
d="M339 665l-1 -15l3 -18l-2 -29l2 -30l-2 -10v-20l-2 -12l3 -14l-2 -16l2 -32l-2 -24v-33l2 -11v-34l-3 -12l3 -31l-2 -16l3 -31l-4 -14l1 -10v-20l3 -28l-2 -17v-58l-3 -25l-6 -19l-12 -22l-15 -27l-21 -22l-28 -14l-12 -1l-27 -11l-15 2l-28 -5l-17 4l-15 6h-15l-10 7
l-14 3l-13 14l-24 18l-16 25l-4 11l-9 27l-8 29v34l4 8l-4 21l7 25l42 9l16 -3l14 2l26 -4l8 -32v-15l-3 -16l2 -28l6 -15l11 -7l12 -11l29 4l16 5l14 25l4 41l-4 17l2 18v56l2 13l-3 30v123l3 30l-3 14v87l3 28l-4 18l3 29l-3 14l9 41l28 5l13 6l13 -4l45 -6zM374 635
l-1 -15l3 -18l-2 -29l2 -30l-2 -10v-20l-2 -12l3 -14l-2 -16l2 -32l-2 -24v-33l2 -11v-34l-3 -12l3 -31l-2 -16l3 -31l-4 -14l1 -10v-20l3 -28l-2 -17v-58l-3 -25l-6 -19l-12 -22l-15 -27l-21 -22l-28 -14l-12 -1l-27 -11l-15 2l-28 -5l-17 4l-15 6h-15l-10 7l-14 3l-5 5h5
l14 -6l21 -4l29 5l17 -2q5 2 12.5 5.5t13.5 5.5l15 1l34 17l21 22l18 32l13 23l7 23l3 25v60l2 19l-3 28v18q0 2 -0.5 3.5t-0.5 3.5l4 14l-3 35l2 16l-2 27l2 11v38l-2 11v33l2 24l-2 32l2 20l-3 13l2 9v20l2 10l-2 30l2 31l-3 16l1 14l16 -2zM172 129l1 -15l-6 5l-10 6
q-1 2 -2 5t-1 5q0 6 -1 10.5t-1 10.5l3 16v22l12 -2l8 -32v-15z" />
    <glyph glyph-name="K" unicode="K" horiz-adv-x="497" 
d="M451 683l-19 -49l-9 -11l-15 -27l-3 -16l-16 -21l-6 -13l-15 -32l-10 -11l-4 -17l-11 -10l-4 -17l-10 -12l-5 -14l-11 -14l-11 -25v-24l3 -18l7 -13l15 -28l3 -12l10 -17l10 -27l9 -13l8 -27l7 -13l13 -26l16 -28l6 -17l11 -26l6 -19l8 -11l10 -27l10 -34l-11 -9l-28 -6
l-15 -1l-13 4l-12 -2l-27 5l-19 31l-5 18l-8 11l-14 26l-4 19l-9 14l-4 12l-7 10l-6 13l-14 32l-14 29l-11 23l-11 -1l-10 -7l-15 -27l-3 -17l-11 -25l3 -16l-4 -11v-33l3 -13v-17l-3 -14l2 -28l-4 -32h-32l-13 -5l-14 -1l-14 5l-31 6v58l-2 11v32l2 30l-4 14l3 18v61l-3 30
l2 12l-2 16l3 18l-1 10l2 33l-3 16l2 25l-3 16l4 15v35l-4 30v13l4 28l-4 17l3 29l-1 15v32l2 13l-2 13l1 15l6 30l25 4h15l17 5l14 1l26 -11l4 -24v-21l3 -12v-77l-3 -28l2 -15l-2 -17v-32l3 -13l-2 -19v-28h8l7 8l7 19l6 7l7 17l9 9l3 14l8 17l9 10l8 13l9 25l16 29l8 9
l7 14l10 29l10 11l12 28l21 32l28 6h31l32 -10zM486 653l-19 -49l-9 -11l-15 -27l-3 -16l-16 -21l-6 -13l-15 -32l-10 -11l-4 -17l-11 -10l-4 -17l-10 -12l-5 -14l-11 -14l-11 -25v-24l3 -18l7 -13l15 -28l3 -12l10 -17l10 -27l9 -13l8 -27l7 -13l13 -26l16 -28l6 -17
l11 -26l6 -19l8 -11l10 -27l10 -34l-11 -9l-28 -6l-15 -1l-13 4l-12 -2l-27 5l-7 10q6 2 8 2l12 -4l22 1l33 7l20 18l-13 43l-10 28l-8 11l-6 19l-11 26l-5 15l-18 32l-13 26q-1 2 -2.5 4.5t-2.5 4.5l-9 30l-10 15l-10 28q-2 2 -4 6t-4 6l-3 11l-17 32l-5 8l-3 16v21l9 21
l13 16l5 14l9 10l4 16l11 10l4 17l7 8l17 36q1 2 2.5 6.5t3.5 6.5l18 23l3 18q3 6 5.5 10t5.5 9l10 12l16 42l14 -4zM111 -23v6l6 -2l22 1q2 1 6 2.5t7 2.5h42l5 46q0 6 -1 12t-1 13l3 14v25l-3 13v27l5 13l-3 15l10 25l3 15q3 6 6 10.5t6 9.5l6 -11l10 -21l-8 -15l-3 -17
l-11 -25l3 -16l-4 -11v-33l3 -13v-17l-3 -14l2 -28l-4 -32h-32l-13 -5l-14 -1l-14 5zM217 499l1 -10l-3 -7l-2 -9l-8 -8l-6 -13l1 4l-3 13v28l2 17q0 4 -1 6.5t-1 6.5l3 28v83l-3 12v18l16 -7l4 -24v-21l3 -12v-77z" />
    <glyph glyph-name="L" unicode="L" horiz-adv-x="363" 
d="M185 663v-16l-3 -31l3 -12l-3 -13v-48l3 -31l-2 -25l3 -34l-2 -16l-2 -28l4 -12v-17l-4 -32v-16l4 -11l-4 -19l3 -27v-118l-2 -33l15 -17l13 -1l14 6l32 -2l12 -3l17 3l14 -5h30v-30l4 -16l-1 -13l-8 -43l-28 -3l-27 -3h-30l-13 4l-14 -3l-15 3l-18 -3l-13 4l-16 -3
l-28 2l-14 -3l-28 9l-9 30v30l3 13l1 14v31l-4 15l4 11l-3 16l3 15l-2 18l-2 31l4 10l-2 17v30l-2 13v60l3 33v74l-2 16l3 28l-4 19l1 16l3 12l-1 13v20l-3 14l4 16l-3 28l6 42l28 9l14 -5l31 6l25 -9zM220 633v-16l-3 -31l3 -12l-3 -13v-48l3 -31l-2 -25l3 -34l-2 -16
l-2 -28l4 -12v-17l-4 -32v-16l4 -11l-4 -19l3 -27v-119l-13 -5h-1l-4 4l-4 4l2 28v120l-3 25l4 20l-4 12v13l4 32v22l-4 12l2 24l2 17l-3 34l2 25l-3 31v43l4 17l-4 13l3 29v20l-1 1l13 -4zM114 -17l13 3l27 -2l12 2l12 -4l19 4l16 -4q2 1 6.5 1.5t7.5 1.5l9 -3h36l27 3
l39 4l10 55l1 18l-4 13h20v-30l4 -16l-1 -13l-8 -43l-28 -3l-27 -3h-30l-13 4l-14 -3l-15 3l-18 -3l-13 4l-16 -3l-28 2l-14 -3l-28 9z" />
    <glyph glyph-name="M" unicode="M" horiz-adv-x="638" 
d="M189 673l5 -17l2 -15l11 -24l3 -17l11 -28l8 -31l7 -24l12 -31l4 -16l6 -29l9 -11l6 -34l7 -15l1 -11l5 -15l10 -29l8 -30l9 -26l10 -2l4 18l5 9l2 20l7 14l7 27l7 13l4 18l11 27l5 30l6 11l2 18l6 14l11 27l2 17l12 25l9 27l9 29l5 28l9 16v19l15 19l22 8h18l13 -6l12 4
l30 -5l4 -30v-63l3 -31l-2 -11l2 -14l-3 -15v-50l3 -9v-21l-2 -15l3 -9v-17l-4 -30l3 -18l-2 -28l2 -17v-89l-3 -13v-15l4 -14v-19l-3 -27l2 -19l-3 -11l4 -15l-2 -28v-36l-3 -28l-28 -7h-30l-13 6l-28 2l-4 29v17l-3 11v18l3 14l-1 13v61l-3 12l1 15v18l2 13l-3 31l4 14
l-4 18v14l4 10v49l-4 9l-3 -10l-5 -29l-7 -16l-3 -12l-5 -32l-5 -15l-6 -23v-14l-8 -34l-1 -12l-6 -16v-15l-9 -27l-1 -16l-4 -13l-1 -16l-8 -25l-12 -43l-26 -2l-30 -2l-16 4l-26 2l-10 26l-2 12l-8 28l-3 17v15l-6 13v17l-9 26l-9 29v17l-5 9l-3 29l-10 28l-4 35l-7 25v18
l-8 24l-5 2l2 -33v-98l-3 -15v-34l3 -10l-2 -20l2 -26l-2 -16l3 -16l-4 -16l3 -27v-27l-7 -32l-39 -3l-15 -5l-42 11l-4 30v27l-4 14v32l3 15v73l-3 30l3 13v45l-2 18v28l3 31l-4 28v21l4 9v36l-3 25l3 20l-4 14l2 12v19l2 15l-4 9v34l4 29l-4 14l4 13l3 36h31l11 3l15 -4
h42zM494 -17l3 -2h37l39 9l4 39v38l2 31l-4 12l3 8q0 4 -1 10.5t-1 11.5l3 25v25l-4 14v7l3 13v93l-2 17l2 30l-3 16l4 29v20q-1 1 -1.5 3.5t-1.5 4.5l2 14v23q-1 1 -1.5 3.5t-1.5 4.5v48l3 13l-2 17l2 12l-3 31v64l16 -2l4 -30v-63l3 -31l-2 -11l2 -14l-3 -15v-50l3 -9v-21
l-2 -15l3 -9v-17l-4 -30l3 -18l-2 -28l2 -17v-89l-3 -13v-15l4 -14v-19l-3 -27l2 -19l-3 -11l4 -15l-2 -28v-36l-3 -28l-28 -7h-30l-13 6l-28 2zM300 -14l9 -3l33 2l37 2l15 54l9 25q0 3 0.5 7.5t0.5 8.5l4 13q0 3 0.5 8t0.5 9l9 28v13l6 16q0 2 0.5 7t0.5 8l8 32v15l5 18
l2 -25l-2 -12v-18l-1 -19l3 -12v-31l-2 -5v-15l-9 -27l-1 -16l-4 -13l-1 -16l-8 -25l-12 -43l-26 -2l-30 -2l-16 4l-26 2zM114 -18l8 -2l16 6l51 4l9 43v32l-3 25l5 15l-4 18l2 15l-2 26l2 22q-1 1 -1.5 5t-1.5 6v30l3 13v5l2 -5l3 -29l5 -10v-16l10 -32l-2 -19l2 -26
l-2 -16l3 -16l-4 -16l3 -27v-27l-7 -32l-39 -3l-15 -5l-42 11zM224 643l5 -17l2 -15l11 -24l3 -17l11 -28l8 -31l7 -24l12 -31l4 -16l6 -29l9 -11l6 -34l7 -15l1 -11l5 -15v-2l-2 -5q0 -4 -2 -14l-6 22l-10 32l-5 15l-1 11l-8 17l-6 37q-2 2 -4.5 5t-4.5 6l-5 24l-4 17
l-12 31l-7 24l-8 27l-12 33l1 -2l-3 16q-2 6 -5.5 12t-5.5 12l-2 16l-2 7h6z" />
    <glyph glyph-name="N" unicode="N" horiz-adv-x="522" 
d="M191 673l13 -28l2 -15l14 -26l3 -11l9 -31l15 -24l2 -12l7 -20l5 -8l9 -32l9 -13l4 -14l8 -25l15 -26l1 -14l11 -27l10 -14l3 -14l3 -1v43l4 17l-4 31l3 18v210l-2 12l5 46l28 3l29 4l15 -6l28 -2l6 -27l-2 -17l4 -16l-3 -16l2 -13v-17l-3 -28l4 -15v-30l-4 -14v-125
l3 -29l-2 -13l3 -18v-40l-4 -29v-35l3 -12l-3 -15l1 -15v-118l3 -16l-9 -32l-26 -4h-48l-24 6l-10 18l-11 29l-8 11l-2 19l-8 13l-5 13l-9 27l-9 10l-3 20l-10 27l-9 13l-3 11l-10 30l-8 11l-5 17l-6 8l-8 34l-8 10l-7 25l-9 15l-3 16l-4 -2v-44l-4 -19v-24l4 -18v-16
l-3 -29l2 -16l-3 -12l2 -16v-34l2 -11l-3 -30l3 -34l-5 -27v-45l-29 -10h-45l-28 8l-6 29l3 14l-3 14l3 16v65l-3 10l1 14v34l2 15v29l-3 13l3 14l-2 19l1 16v76l-3 15l3 28v62l-3 27l4 12l-3 32l3 19l-3 10l2 19l-3 12l4 18l-2 28l5 30l28 8l18 -6l14 6l14 -5l28 -3z
M371 -15h44l35 5l13 47l-3 18v115q0 3 -0.5 7t-0.5 7l4 16l-4 14v33l4 27v44l-3 16l2 15l-3 29v119l4 14v37l-4 12l3 26v19q0 2 -1 5t-1 5l4 19l-5 17l1 14l15 -1l6 -27l-2 -17l4 -16l-3 -16l2 -13v-17l-3 -28l4 -15v-30l-4 -14v-125l3 -29l-2 -13l3 -18v-40l-4 -29v-35
l3 -12l-3 -15l1 -15v-118l3 -16l-9 -32l-26 -4h-48l-24 6zM112 -19h42l42 14v56l5 26l-3 36l3 28l-2 12v34q0 2 -1 6t-1 6l3 12q0 4 -1 9t-1 9l3 29v20l-4 16v25l5 -5l9 -39l6 -7v-4l4 -18v-16l-3 -29l2 -16l-3 -12l2 -16v-34l2 -11l-3 -30l3 -34l-5 -27v-45l-29 -10h-45
l-28 8zM226 643l13 -28l2 -15l14 -26l3 -11l9 -31l15 -24l2 -12l7 -20l5 -8l9 -32l9 -13l6 -21l3 -21l-1 -4l-1 16q-4 5 -7.5 13t-7.5 14l-8 23l-4 15l-12 17l-8 30l-4 6l-6 16l-2 16l-17 27l1 -4l-9 31l-3 12q-2 5 -6 11.5t-7 12.5l-2 16l-7 15h4z" />
    <glyph glyph-name="O" unicode="O" horiz-adv-x="468" 
d="M62 570v18l10 29l17 22l7 15l21 21l16 6l11 11l15 7l30 10h26l34 5l15 -2l28 -8l17 -8l12 -3l14 -12l25 -15l19 -24l6 -14l9 -12l5 -11l4 -15l9 -31v-63l-2 -11l3 -20v-61l-2 -9l2 -30v-76l-2 -17l2 -14l-3 -32v-26l3 -45l-5 -18l1 -14l-8 -31l-7 -15l-10 -10l-6 -13
l-9 -9l-22 -24l-12 -8l-16 -3l-14 -11h-13l-12 -5l-34 -7h-31l-28 3l-13 6l-16 3l-25 19l-11 4l-14 10l-8 12l-18 21l-7 18l-8 13l-2 13l-6 14l-1 12l-6 47l1 16v31l2 28l-2 14l1 13v96l-2 13l3 16v31l-2 9l2 21l-2 13l1 16v60zM169 134l20 -25l12 -2l18 -7h30l30 14l10 8
l11 28v29l3 36l-2 24v48l2 30l-4 27v35l4 10l-4 17v43l3 20l-3 10v64l-3 15l-5 11l-18 22l-14 3l-10 7l-46 -5l-12 -10l-15 -17l-7 -11l-6 -15v-32l3 -14l-3 -13l3 -19l-4 -12v-34l3 -12l-3 -18v-60l4 -9l-3 -18l3 -28l-4 -32v-18l3 -25v-49zM185 -25l28 -3h36l34 7
q2 1 6 2.5t7 2.5h14l15 12l13 2l18 11l24 26v-1l9 9l6 13l12 12l9 20l8 32q0 2 -0.5 8t-0.5 9l5 17l-3 47v24l3 32l-2 15l2 17v76l-2 30l2 9v63l-3 20l2 9v64l-10 34l1 -1l-4 12l-6 14l6 -7l6 -14l9 -12l5 -11l4 -15l9 -31v-63l-2 -11l3 -20v-61l-2 -9l2 -30v-76l-2 -17
l2 -14l-3 -32v-26l3 -45l-5 -18l1 -14l-8 -31l-7 -15l-10 -10l-6 -13l-9 -9l-22 -24l-12 -8l-16 -3l-14 -11h-13l-12 -5l-34 -7h-31l-28 3l-13 6l-16 3zM180 201l-3 25v15l4 34l-3 28l3 17q-1 1 -2 4.5t-2 5.5v59l4 19l-4 13v28l5 14l-4 18l4 16l-4 18v24l5 13l-2 -2l7 11
l-1 -3l15 17l7 6q11 1 18 2.5t18 2.5l14 -8q2 -1 3.5 -0.5t3.5 -0.5l6 -8l-34 -3l-12 -10l-15 -17l-7 -11l-6 -15v-32l3 -14l-3 -13l3 -19l-4 -12v-34l3 -12l-3 -18v-60l4 -9l-3 -18l3 -28l-4 -32v-18l3 -25v-47q-1 0 -1 0.5t-1 0.5q-4 5 -7 9t-7 8l-4 12v49z" />
    <glyph glyph-name="P" unicode="P" horiz-adv-x="463" 
d="M308 695l16 -4l15 -8l12 -12l11 -6l13 -13l19 -22l12 -21l12 -32l9 -26l1 -16l5 -21v-9l-3 -46v-17l-2 -16l-5 -12l-2 -15l-5 -18l-14 -28l-20 -27l-18 -18l-27 -18l-15 -6l-29 -9l-16 2l-29 -5l-17 4l-17 -3l-16 1l-15 -18l2 -29l-3 -11l2 -20l-2 -25l4 -16l-2 -29v-20
l-2 -15l4 -11l-3 -19v-30l-6 -24l-41 -9l-12 2l-15 -2l-30 9l-6 42l3 16l-2 17v29l2 15l-4 13l4 32l-3 11l2 14l-2 15v94l3 30v31l-3 15v14l3 14l-2 16v41l2 16l-4 34v27l3 18l-3 26l3 18l-2 15l3 12l-4 18l4 13l3 34l30 3l33 -3l14 2l15 -2l31 5l15 -1l16 -5l14 2l48 -3h13
zM287 395l15 5l6 16l11 23v21l4 15v25l-5 31l-11 25l-19 27l-12 3l-28 2l-14 -1l-36 3l-15 -16v-11l3 -16l-3 -13v-20l3 -9l-4 -33l4 -11l-4 -17l3 -18v-30l15 -12l17 -2l15 2l15 -2l32 3zM113 -16l11 1l15 -2l51 11l8 33v32l3 21l-4 13l2 13v20l2 32l-4 14l2 24q0 4 -1 8
t-1 9l3 12q0 5 -1 12t-1 13l8 9l11 -1l15 2l14 -3l32 5l17 -2l32 10l13 5l38 25l12 12l27 38l14 26l5 21q0 2 0.5 6.5t1.5 6.5l5 12l2 20v16l3 46v12l-5 19l-1 18l-10 29l-9 24l6 -6l12 -21l12 -32l9 -26l1 -16l5 -21v-9l-3 -46v-17l-2 -16l-5 -12l-2 -15l-5 -18l-14 -28
l-20 -27l-18 -18l-27 -18l-15 -6l-29 -9l-16 2l-29 -5l-17 4l-17 -3l-16 1l-15 -18l2 -29l-3 -11l2 -20l-2 -25l4 -16l-2 -29v-20l-2 -15l4 -11l-3 -19v-30l-6 -24l-41 -9l-12 2l-15 -2l-30 9zM217 414l3 -17h-3q-3 0 -11 2l-6 4v25l-3 16l5 17l-5 13l4 32q-1 1 -1.5 5
t-1.5 6v13l4 16l-4 18v3l6 7l29 -2l15 1q5 0 11.5 -1t12.5 -1l8 -2l8 -12l-5 1l-14 -1l-36 3l-15 -16v-11l3 -16l-3 -13v-20l3 -9l-4 -33l4 -11z" />
    <glyph glyph-name="Q" unicode="Q" horiz-adv-x="478" 
d="M64 574l5 10l8 31l17 29l17 23l12 10l14 8l25 11l16 4l16 8h15l14 5l45 -5l29 -8l13 1l16 -8l28 -17l20 -23l19 -26l12 -23l10 -35v-27l4 -31l-4 -26v-16l4 -15v-14l-2 -15v-106l2 -29l-2 -32v-30l2 -29l-3 -47l-2 -27l-9 -30l-14 -28l5 -26l8 -7l6 -19l23 -25l10 -27
l-29 -31l-13 -6l-9 -8l-24 -9l-23 21l-9 11l-18 21l-5 10l-9 9l-26 8h-10l-15 -4l-47 3l-13 4l-17 2l-13 10l-14 1l-22 21l-14 9l-21 19l-4 11l-11 14l-7 32l-10 26v44l-3 28l3 18v29l-3 13l4 18l-2 33l2 13l-4 16l4 28l-2 14v29l2 30v34l-1 10v64zM173 139l20 -29l15 -9
l16 -4h30l15 10l15 6l11 10l7 17l6 40v75l-4 16l3 17v28l-3 28l4 31l-4 16l4 15l-3 14v35l2 13l-2 14l3 29l-4 46l-14 26l-10 9l-16 1l-10 8h-32l-12 -8l-15 -4l-8 -9l-9 -15l-2 -10l-8 -12v-29l3 -14l-2 -21l2 -10l-4 -14l2 -21l-1 -15l3 -13l-3 -31l3 -16l-3 -45l3 -10
l-4 -16v-49l3 -13l-1 -15l-2 -31l6 -31v-10zM426 37l4 -23l-7 8l-7 22l-6 5q-1 5 -2 7.5t-2 7.5l12 22l11 38q0 6 1 13.5t1 13.5l3 47l-2 30v30l2 32l-2 29v106l2 15v17l-4 13v15l4 25l-4 33v26l-12 41l-1 2l11 -15l12 -23l10 -35v-27l4 -31l-4 -26v-16l4 -15v-14l-2 -15
v-106l2 -29l-2 -32v-30l2 -29l-3 -47l-2 -27l-9 -30zM182 183l2 28l1 19l-3 13v44l5 17l-4 12l2 28l1 18l-3 15l3 31l-3 15l1 11q0 5 -1 8.5t-1 8.5l4 14l-2 14l2 25l-3 14v21l8 13q0 4 1 7l8 13h-1l1 2l13 4q2 1 5.5 3.5t6.5 4.5h25l12 -8q3 0 5.5 -0.5t6.5 -0.5q2 -5 5 -5
v-1h-22l-12 -8l-15 -4l-8 -9l-9 -15l-2 -10l-8 -12v-29l3 -14l-2 -21l2 -10l-4 -14l2 -21l-1 -15l3 -13l-3 -31l3 -16l-3 -45l3 -10l-4 -16v-49l3 -13l-1 -15l-2 -31l6 -31l-5 3q-4 6 -7.5 10.5t-7.5 9.5v10zM382 -102l15 6l12 10l-1 -1l15 7l37 39l-6 16l14 -15l10 -27
l-29 -31l-13 -6l-9 -8l-24 -9zM198 -26l3 -1l54 -3l14 4h5q5 -1 11 -3t11 -4q1 -2 3 -3.5t3 -2.5v-2l-14 -4l-47 3l-13 4l-17 2zM181 -22q3 -1 8 -1l9 -3l-14 1z" />
    <glyph glyph-name="R" unicode="R" horiz-adv-x="481" 
d="M293 701l17 -7l14 -3l16 -6l10 -8l26 -13l18 -26l11 -31l6 -9l2 -16l5 -19l-1 -10l5 -22l-1 -14l2 -17l-2 -31l1 -13l-4 -29l-2 -32l-7 -16l-1 -16l-9 -15l-14 -28l-2 -18l12 -9l8 -13v-18l7 -15l2 -11l-2 -26l2 -30l-3 -31l4 -26l-4 -35l4 -27l-1 -15l7 -27l-8 -14
l-33 -5l-19 2l-17 -4l-24 4l-13 15l-2 15v75l-4 29v57l3 17v26l-12 29l-43 8l-30 3l-18 -5l-14 -10v-17l-3 -15l3 -18v-13l-3 -13l3 -17l-2 -28l2 -17l-2 -30l1 -16l-2 -16l-1 -9v-48l-30 -2l-14 -5l-14 4l-13 -2l-30 6l-7 43v109l2 11l-3 30l2 32l-1 16l3 13v91l-3 13v60
l3 29l-4 34l1 15v28l2 33l-3 10l3 20l-2 15l3 11l-3 13v19l7 45l43 6l20 -2h29l14 2l18 -3l11 4l33 -6l29 2zM290 391l10 14l4 17l7 17l1 12l-2 19v32l2 28l-5 16l-8 23l-12 14l-9 5h-48l-12 2h-19l-14 -12l-2 -18l2 -30l-2 -16l3 -13l-3 -17l2 -9l-2 -18l3 -30l-3 -25
l15 -19l18 -2l14 3l47 3zM113 -15q2 0 3 0.5t3 0.5l17 -5l18 6l42 2v63l1 9l2 16l-1 16l2 30l-2 17l2 31q-1 2 -1.5 6t-0.5 6l2 11v19l-3 15l3 13v12l3 3q4 1 8 2.5t8 2.5l27 -3h-1l35 -7q2 -3 2 -5t1 -4l-1 1l-30 3l-18 -5l-14 -10v-17l-3 -15l3 -18v-13l-3 -13l3 -17
l-2 -28l2 -17l-2 -30l1 -16l-2 -16l-1 -9v-48l-30 -2l-14 -5l-14 4l-13 -2l-30 6zM343 -17l17 4l19 -2l41 6l15 27l-8 29l1 16l-4 25l4 36l-4 24l3 31l-2 31l2 26l-2 14l-7 16v6l12 -9l8 -13v-18l7 -15l2 -11l-2 -26l2 -30l-3 -31l4 -26l-4 -35l4 -27l-1 -15l7 -27l-8 -14
l-33 -5l-19 2l-17 -4l-24 4zM418 272v11l-12 20l-8 6q0 2 1 4t1 3l12 24l11 18q0 3 0.5 7.5t0.5 9.5l7 17q0 6 1 16.5t1 18.5l4 27l-1 15l2 31l-2 17l1 16l-5 20l1 12l-5 17l-2 19q-4 4 -8 12l-7 21l18 -26l11 -31l6 -9l2 -16l5 -19l-1 -10l5 -22l-1 -14l2 -17l-2 -31l1 -13
l-4 -29l-2 -32l-7 -16l-1 -16l-9 -15l-14 -28zM212 396q-2 0 -2 -0.5t-2 0.5l-9 11l2 19l-3 32l2 17q0 3 -2 7l4 19l-4 17l2 12l-2 30q0 6 1 10l6 5h13l12 -2h45l4 -3l-3 2q3 -3 5 -6.5t5 -6.5v-1h-21l-12 2h-19l-14 -12l-2 -18l2 -30l-2 -16l3 -13l-3 -17l2 -9l-2 -18
l3 -29z" />
    <glyph glyph-name="S" unicode="S" horiz-adv-x="443" 
d="M277 488l-3 29l2 19l-4 11l-5 33l-18 23l-16 2h-37l-11 -13l-10 -16l-4 -13l-6 -30v-42l7 -14l16 -27l10 -5l9 -16l21 -14l40 -26l10 -9l15 -9l11 -9l11 -14l10 -4l11 -15l19 -24l12 -7l15 -27l2 -15l10 -32l4 -11v-31l-3 -12v-30l-7 -35l-14 -25l-4 -15l-18 -23l-19 -24
l-28 -15l-11 -3l-15 -7l-16 -1l-29 -5l-45 5l-28 3l-15 5l-11 9l-14 5l-13 9l-8 11l-10 7l-11 14l-9 8l-12 32l-6 30l-5 10l-2 29v48l4 28l30 9l18 -6h15l18 6l31 -8l4 -27v-50l10 -25v-18l9 -10l23 -24l28 3l12 9l12 6l4 15l12 32l-1 12v50l-4 12l-14 20l-8 18l-25 15
l-25 17l-35 24l-14 7l-22 22l-25 21l-7 13l-11 6l-15 31l-8 9l-4 18l-9 12l-5 32l4 25l-3 17l3 11v18l3 18l12 28l1 14l10 11l7 14l19 19l8 13l16 8l9 9l17 3l26 7l33 6l28 -2l12 2l19 -6h14l12 -6l13 -3l25 -19l14 -7l19 -24l5 -11l5 -19l7 -10l4 -13l10 -29l2 -15l-3 -16
l4 -16v-31l-5 -28l-31 -4l-18 -5l-16 4l-16 -1l-31 9zM170 -21l17 -2l48 -5l28 5l19 1l18 8h-1l12 3l32 18l21 26l20 25l5 19l14 26l7 34v29l3 12v37l-5 14l-4.5 13.5l-4.5 13.5l-2 14l5 -2l15 -27l2 -15l10 -32l4 -11v-31l-3 -12v-30l-7 -35l-14 -25l-4 -15l-18 -23
l-19 -24l-28 -15l-11 -3l-15 -7l-16 -1l-29 -5l-45 5l-28 3l-15 5zM315 438q3 0 6.5 0.5t5.5 0.5l16 -5q4 1 9.5 3t10.5 3l44 5l6 40v36l-3 12l2 14l-2 20l-11 32l1 -1l-4 12q-1 2 -3 4.5t-4 5.5l-4 15l14 -18l5 -11l5 -19l7 -10l4 -13l10 -29l2 -15l-3 -16l4 -16v-31
l-5 -28l-31 -4l-18 -5l-16 4l-16 -1l-31 9zM200 461l-1 1q-4 7 -7 11t-7 11l-5 10v38l6 27l4 13l7 11l6 7h30q6 0 9 -1q2 -2 5 -5.5t5 -7.5v-1h-21l-11 -13l-10 -16l-4 -13l-6 -30v-42zM210 106l-15 15l-5 7v13l-10 25v49l16 -4l4 -27v-50l10 -25v-3z" />
    <glyph glyph-name="T" unicode="T" horiz-adv-x="410" 
d="M376 663l-1 -10v-28l-5 -31l-33 -6h-32l-16 4l-12 -1l-17 -18l-3 -14l2 -13v-19l2 -14l-4 -30l3 -13l-3 -14l2 -15l-1 -15l3 -16l-3 -15v-49l3 -13l-4 -15l4 -11l-3 -21v-26l2 -17l-2 -30l3 -27l-4 -18l1 -15l3 -11v-93l-8 -41l-28 -9l-15 -1l-11 4l-15 -2l-28 7l-7 24
l-2 19l2 12l-2 33l2 14l-2 16l4 16l-3 15l3 14v11l-4 35l3 25l-3 19l4 29l-1 16l-3 27l4 19l-2 25l1 15l-3 30l4 30l-3 36l3 26l-3 18l1 15l-2 11v19l-15 13l-14 -1h-31l-45 4l-7 30v32l-2 12l9 25l25 7l19 -2l12 4h29l16 -3l16 4l29 -5l14 6l16 -1l18 -5l11 4h49l11 -2
l32 3l32 -4zM411 633l-1 -10v-28l-5 -31l-33 -6h-32l-16 4l-12 -1l-17 -18l-3 -14l2 -13v-19l2 -14l-4 -30l3 -13l-3 -14l2 -15l-1 -15l3 -16l-3 -15v-49l3 -13l-4 -15l4 -11l-3 -21v-26l2 -17l-2 -30l3 -27l-4 -18l1 -15l3 -11v-93l-8 -41l-28 -9l-15 -1l-11 4l-15 -2
l-28 7l-3 9q3 1 9 1l11 -4l19 1l40 13l9 50v97l-3 11q0 3 -0.5 6.5t-0.5 6.5l4 17l-3 30l2 28l-2 17v26l3 22l-3 11l4 14l-4 17v44l4 16l-4 17l1 14q0 2 -1 5.5t-1 5.5l4 18l-4 16l4 26l-2 15v19q0 2 -1 5t-1 5l2 10q2 2 6 5.5t6 5.5h2l14 -4h38l44 8l6 43v29l1 11l-1 5
l16 -2zM74 574l12 -1h32q2 0 4.5 0.5t4.5 0.5l5 -4v-12h-10l-45 4z" />
    <glyph glyph-name="U" unicode="U" horiz-adv-x="494" 
d="M185 665l-2 -17v-61l2 -13l-3 -26l4 -15l-3 -18v-17l3 -15l-4 -13v-133l3 -30v-106l-3 -30l5 -45l18 -21l15 -6l13 2l28 -5l12 8h16l9 16l6 7l5 44l-3 28l4 35l-2 31l2 10l-4 15l3 18l-2 12l1 16l-2 16l4 30l-1 12v34l-2 31v101l2 33l-1 10l-2 32l4 12l-4 20l9 24l25 11
h17l12 -4l14 1l31 -8l4 -29v-42l-2 -14l3 -13l-3 -20l2 -14l2 -27v-34l-4 -15v-75l3 -14l-2 -12l3 -17l-1 -15l-3 -11l2 -19l-2 -10v-30l4 -33l-3 -12v-31l3 -16l-4 -28v-35l-2 -31l-5 -13l-10 -12l-4 -16l-9 -11l-25 -19l-25 -16l-30 -9l-28 -12l-14 1h-34l-16 5l-12 -1
l-16 7h-15l-27 14l-13 13l-11 6l-13 13l-15 22l-13 34l-2 26l-5 31l4 12v17l-3 16l2 16l-2 14l2 30l-3 15v77l2 26l-2 32l4 17l-3 14l2 27l-2 30l3 13l-4 20l2 14v31l2 25l-2 16v46l4 32l30 2h26l44 -4zM178 -17h5l15 -7q3 0 6.5 0.5t6.5 0.5l16 -5h37l18 -1l30 13h-2l35 10
l22 15l32 24l10 12q1 3 2.5 8.5t2.5 10.5l9 10l6 16l2 35v35l4 29l-3 18v24l3 13l-4 37v29l2 10q0 4 -1 8t-1 8l3 12l1 20l-3 16l2 14l-3 14v70l4 13v37l-2 27q0 2 -1 6t-1 6l4 23l-4 14l2 12v45l16 -4l4 -29v-42l-2 -14l3 -13l-3 -20l2 -14l2 -27v-34l-4 -15v-75l3 -14
l-2 -12l3 -17l-1 -15l-3 -11l2 -19l-2 -10v-30l4 -33l-3 -12v-31l3 -16l-4 -28v-35l-2 -31l-5 -13l-10 -12l-4 -16l-9 -11l-25 -19l-25 -16l-30 -9l-28 -12l-14 1h-34l-16 5l-12 -1l-16 7h-15l-27 14zM220 635l-2 -17v-61l2 -13l-3 -26l4 -15l-3 -18v-17l3 -15l-4 -13v-133
l3 -30v-106l-3 -30l3 -26l-5 2l-13 14q-1 11 -2.5 19.5t-2.5 19.5l3 30v108l-3 30v128l5 16l-4 17v16l3 18l-4 14l3 25l-2 15v61l2 18l13 -1z" />
    <glyph glyph-name="V" unicode="V" horiz-adv-x="477" 
d="M144 670l3 -18l6 -9l4 -32l6 -29l9 -31l7 -29l2 -31l4 -13l10 -30l5 -27l5 -13l-1 -15l5 -20l5 -12l2 -15l4 -13l4 -34l8 -27l3 -18l7 3l4 32l3 13l6 12l3 20l4 26l9 27l5 31l5 16l7 26v20l7 14v16l5 9l5 35l6 11v19l7 30l6 29l5 13l2 16l9 20l46 9l18 -6h26l7 -12v-23
l-4 -17v-14l-7 -30l-7 -17l-2 -14l-4 -11l-1 -16l-5 -31l-6 -26l-10 -29v-14l-11 -33v-14l-6 -17l-1 -15l-3 -13l-5 -27l-10 -32l-3 -28l-7 -15l-5 -26l-5 -33l-6 -12v-13l-7 -15l-1 -14l-6 -34l-6 -25l-2 -18l-7 -13l-11 -38l-29 -9l-14 4l-17 -5l-16 5h-26l-10 25v17
l-6 14l-1 13l-6 29l-11 34l1 15l-6 12v12l-7 34l-6 10l-2 21l-6 29l-9 28l-3 27l-7 12l-5 35l-7 25v18l-3 11l-8 17l-1 11l-8 34v16l-8 9v20l-8 25v19l-6 24l-7 19l-1 12l-9 27l-2 30l10 13h26l38 4l28 -4zM217 -16l12 -4l16 5l14 -4l43 14l13 45l-2 -3l9 17q0 2 0.5 8
t1.5 9l6 25l6 35q0 2 0.5 6t0.5 7l7 15v14l6 14q1 8 2.5 16.5t2.5 16.5q1 5 2.5 11t2.5 12l7 14l3 31l-1 -2l11 36q1 5 2.5 11.5t2.5 11.5l3 13q0 3 0.5 7t0.5 8l6 17v18l11 32v14l11 31l4 19l6 36q0 3 0.5 7t0.5 8l4 11q0 2 1 6t1 7l7 15l7 32v16l4 15v8h13l7 -12v-23
l-4 -17v-14l-7 -30l-7 -17l-2 -14l-4 -11l-1 -16l-5 -31l-6 -26l-10 -29v-14l-11 -33v-14l-6 -17l-1 -15l-3 -13l-5 -27l-10 -32l-3 -28l-7 -15l-5 -26l-5 -33l-6 -12v-13l-7 -15l-1 -14l-6 -34l-6 -25l-2 -18l-7 -13l-11 -38l-29 -9l-14 4l-17 -5l-16 5h-26zM179 640l3 -18
l6 -9l4 -32l6 -29l9 -31l7 -29l2 -31l4 -13l10 -30l5 -27l5 -13l-1 -15l5 -20l-1 -7l-3 -18l-3 -6l-3 27l-3 11l-2 15l-5 12l-2.5 7.5t-2.5 8.5l1 19l-5 13l-5 23l-11 34h1l-4 13l-2 30l-8 29l-9 32l1 -1l-6 29l-4 33l-6 9l-3 14l13 -2z" />
    <glyph glyph-name="W" unicode="W" horiz-adv-x="519" 
d="M136 666l9 -45l-2 -13l4 -15l3 -33l4 -31l-1 -14l2 -16l2 -28l4 -16l1 -15l2 -25l4 -32v-34l7 1v18l6 12v35l4 10v19l4 12l1 16l5 16l-1 16l5 12v18l5 14v11l5 20l-2 16l6 15l1 11v19l4 25l13 30l28 4l29 -3l10 -28l5 -33l-1 -12l4 -17l7 -31l-2 -14l9 -32v-28l5 -13v-17
l6 -14v-13l5 -32l2 -27l5 -33l6 -3v36l5 13v28l7 31l2 32l2 27l2 28l7 36v45l5 14l-3 14l11 44h28l13 3l17 -5h34v-51l-4 -31l-4 -13l-2 -17l-2 -25l-6 -29l2 -15l-2 -19l-5 -16v-28l-4 -13l-2 -18l-2 -28l-6 -29v-35l-3 -11l-3 -31v-17l-4 -30l-6 -26l-2 -33l-4 -10l2 -17
l-1 -15l-5 -17v-17l-3 -15l-2 -29l-3 -31l-11 -27l-22 -5l-17 5l-14 -5l-27 8l-9 25l1 16l-4 30l-4 32l-6 12v17l-3 15v14l-6 15v29l-5 14l-3 20v29l-8 28l-1 15l-2 31l-8 26l-3 3l-5 -27v-17l-3 -19l-6 -29v-14l-4 -32l-3 -13v-14l-7 -30l1 -16l-5 -29l-6 -16l2 -13l-2 -14
l-5 -31l-5 -13l2 -17l-9 -26l-30 -6l-10 3l-16 -1l-28 4l-9 41v31l-4 15l-3 32l-5 27v27l-5 30l-3 35l-5 12v16l-2 32l-7 28v29l-3 13l-3 29l-4 32l-2 28l-6 33v33l-5 25l-5 35l2 9l-6 16v35l-3 10l5 31l30 12l15 -2l11 -4l30 -4zM349 -17l10 3l15 -4l34 6l15 39l3 32
q0 6 1 14.5t1 14.5l3 13v19l5 15l1 18q0 4 -1 7.5t-1 7.5l4 9q0 8 1 16t1 16l5 24l5 35v17l3 28l3 13v34l6 29l2 31q0 2 0.5 7t1.5 7l4 13v29l5 16l2 22q0 3 -1 6t-1 6l6 29l2 28q0 2 0.5 6.5t1.5 6.5l4 12l4 35v22h20v-51l-4 -31l-4 -13l-2 -17l-2 -25l-6 -29l2 -15l-2 -19
l-5 -16v-28l-4 -13l-2 -18l-2 -28l-6 -29v-35l-3 -11l-3 -31v-17l-4 -30l-6 -26l-2 -33l-4 -10l2 -17l-1 -15l-5 -17v-17l-3 -15l-2 -29l-3 -31l-11 -27l-22 -5l-17 5l-14 -5l-27 8zM149 -12h9l13 -4l41 9l13 37q0 2 -1 7t-1 8l5 12l5 35l2 15q0 2 -1 5t-1 5l6 14l5 32
q0 3 -0.5 8t-0.5 9l7 28v13l2 11l5 37v12l1 6l5 -15v-30l3 -21l5 -15v-7l-1 -4v-14l-7 -30l1 -16l-5 -29l-6 -16l2 -13l-2 -14l-5 -31l-5 -13l2 -17l-9 -26l-30 -6l-10 3l-16 -1l-28 4zM346 531l4 -15l-2 -27q0 -7 -1 -14.5t-1 -14.5l-6 15v17l-5 13v25q-2 7 -4.5 16
t-4.5 17l2 15l-7 31l-4 15l1 12l-5 31l10 -1l10 -28l5 -33l-1 -12l4 -17l7 -31zM171 636l9 -45l-2 -13l4 -15l2 -25v-18l-5 -12q0 -3 0.5 -8t0.5 -9l-5 -16q0 -2 -0.5 -5t-0.5 -5l-2 7l-2 27l-2 16l1 15l-4 31l-3 37l-4 13l2 13l-8 39l13 -1z" />
    <glyph glyph-name="X" unicode="X" horiz-adv-x="466" 
d="M166 671l5 -9l3 -19l6 -16l9 -10l4 -18l11 -29l12 -28l10 -24l10 1l7 11l4 15l7 16l8 12l6 15l9 27l7 13l8 34l10 11l9 20l28 8l28 -3l14 3l32 -9l6 -11l-12 -44l-5 -9l-6 -18l-12 -26l-4 -13l-8 -11l-8 -31l-10 -28l-11 -26l-11 -32l-5 -8l-5 -14l-10 -18l-5 -14l-2 -13
l-6 -15v-25l10 -28l12 -26l7 -29l10 -12l1 -15l10 -12l2 -20l7 -10l6 -16l9 -28l8 -13l3 -12l7 -11l7 -16l2 -14l14 -29l3 -28l-6 -14l-31 -7l-15 3h-13l-40 3l-10 24l-9 11l-2 20l-12 25l-5 18l-10 12l-2 11l-9 17l-8 32l-9 9l-8 3l-5 -15l-8 -14l-10 -26l-13 -29l-2 -18
l-15 -30l-8 -28l-14 -24l-26 -4l-14 2h-17l-43 5l-9 12l11 27l2 16l7 17l3 13l16 25v17l12 26l11 31l7 8l5 18l8 12l6 25l9 16l5 17l6 11l3 14l6 12l8 41l-6 17l-13 24l-7 19l-7 24l-9 15l-7 25l-12 33l-6 8l-5 16l-8 17l-2 12l-10 25l-9 18l-4 15l-11 26l-7 29l7 13h28
l32 -2h41zM341 -15l10 -1h13l16 -4l41 9l11 26l-3 34l-15 30l-1 12l-7 17l-10 15l3 -4l-3 10l-10 18l-8 26l-5 15l-7 10l-2 21l-10 12l-1 15l-10 12l-7 27q-3 5 -6.5 14t-6.5 15q-2 5 -4.5 11.5t-4.5 11.5v20l6 15q0 2 0.5 6.5t1.5 6.5l5 14l-2 -3l12 23l5 12l3 5l12 35v-1
l11 26l11 32q2 8 4 14.5t4 14.5l9 14l3 9l-2 -3l13 28l6 18l5 9l9 35l18 -5l6 -11l-12 -44l-5 -9l-6 -18l-12 -26l-4 -13l-8 -11l-8 -31l-10 -28l-11 -26l-11 -32l-5 -8l-5 -14l-10 -18l-5 -14l-2 -13l-6 -15v-25l10 -28l12 -26l7 -29l10 -12l1 -15l10 -12l2 -20l7 -10
l6 -16l9 -28l8 -13l3 -12l7 -11l7 -16l2 -14l14 -29l3 -28l-6 -14l-31 -7l-15 3h-13l-40 3zM79 -15l16 -2h18l16 -2l33 5l20 35l4 14l4 14l15 30q0 4 1 8t1 9l10 24l12 30l4 7l6 -23l8 -17l-7 -18l-13 -29l-2 -18l-15 -30l-8 -28l-14 -24l-26 -4l-14 2h-17l-43 5zM201 641
l5 -9l3 -19l6 -16l9 -10l4 -18l6 -16l-2 -4l-2 -6v4l-12 29v-1l-10 27l-5 23l-11 12q-2 4 -2 6t-2 5l-2 16l-1 1h4z" />
    <glyph glyph-name="Y" unicode="Y" horiz-adv-x="430" 
d="M58 692l29 4l17 6l15 -4h29l12 -29l1 -10l7 -17l6 -26l11 -35l2 -13l8 -14l4 -14v-15l9 -11v-20l11 4l6 14l5 26l9 14v18l8 15v15l6 13l8 31l23 53h27l13 5l21 -6h26l10 -13l-6 -27l-5 -25l-11 -29l-8 -30l-7 -14l-5 -29l-9 -33l-5 -8l-3 -20l-7 -11l-5 -16l-1 -11
l-9 -28l-8 -31l-6 -11l-3 -15l-7 -17l-9 -43l4 -15l-4 -12l1 -16l3 -14l-4 -19l4 -14l-4 -15l1 -15l2 -13v-31l-3 -28l4 -12v-17l-3 -17l3 -12l-5 -30l-32 -7l-11 3l-15 -2l-43 9l-6 23v34l-2 30l4 15l-4 27l4 32v24l-3 20l3 15l-4 25l2 30l-3 34l-6 9l-2 15l-8 15v17
l-10 28l-11 29v14l-7 9l-6 20l-6 28l-5 14l-9 27l-13 42l-1 14l-7 13l-6 17v14l-6 14l-5 26zM198 -14l7 -2q3 0 7 1t8 1l14 -4l46 10l6 46l-2 11l2 12v24l-3 9l2 25v33l-2 13q0 3 -0.5 7t-0.5 7l5 16q-1 2 -2.5 6.5t-2.5 8.5l5 19l-4 17q0 2 -0.5 4t-0.5 4l5 15l-4 15l8 40
l7 17l3 16l6 10l8 32l9 29q0 2 0.5 5t0.5 5l5 15l7 13l2 17l4 6l11 41q1 7 2.5 12.5t2.5 12.5l8 19q2 8 3.5 12.5t3.5 12.5l-1 -2l12 32q1 6 2.5 12t2.5 12l3 13h13l10 -13l-6 -27l-5 -25l-11 -29l-8 -30l-7 -14l-5 -29l-9 -33l-5 -8l-3 -20l-7 -11l-5 -16l-1 -11l-9 -28
l-8 -31l-6 -11l-3 -15l-7 -17l-9 -43l4 -15l-4 -12l1 -16l3 -14l-4 -19l4 -14l-4 -15l1 -15l2 -13v-31l-3 -28l4 -12v-17l-3 -17l3 -12l-5 -30l-32 -7l-11 3l-15 -2l-43 9zM220 551l-4 -6l-2 -12v11l-4 12l-8 14l-2 11l-12 39h1l-6 25q-1 2 -3.5 7.5t-3.5 8.5l-1 7h8l12 -29
l1 -10l7 -17l6 -26z" />
    <glyph glyph-name="Z" unicode="Z" horiz-adv-x="395" 
d="M50 626v14l-3 10v17l6 24l48 10l30 -5l29 6l15 -5l18 4l31 -3l16 1l13 3h29l15 -6l19 5l26 -8l9 -44l-4 -15l4 -12v-32l-7 -16l-9 -33l-9 -9l-5 -17l-8 -30l-7 -11l-3 -17l-8 -14l-12 -26l-1 -13l-15 -27l-7 -29l-14 -25l-2 -18l-7 -14l-12 -25l-5 -15l-2 -17l-6 -12
l-12 -28l-10 -29l-8 -13l-3 -15l-6 -16l9 -12l17 2l27 -3h17l15 -2l11 3h16l14 -3l15 6l28 -6l6 -29l3 -33l-5 -42l-31 -2h-17l-31 -4l-12 4l-16 2l-19 -5l-12 4l-31 -4l-17 3h-15l-28 2l-18 -6l-46 11l-2 29l-4 30v25l4 19l12 33l1 14l15 28l1 12l7 11l4 15l14 33l1 11
l9 14l3 14l10 27l13 30l9 28l13 24l4 14l10 29l8 31l20 38l8 29l13 27l-9 16h-90l-12 4l-30 -3l-29 7zM218 124l-17 2q-7 0 -10 -1l3 8l3 16l6 10l11 30v-1l12 28l-1 -1l8 16q0 3 1 8t1 9l5 15l10 21l9 18q0 4 1 8.5t1 9.5l14 26l7 28l15 26q0 2 0.5 6.5t0.5 7.5l10 22
l10 18l3 16l7 14l8 28q0 2 1 5.5t2 5.5l8 8l11 39v-2l8 19v39l-3 9l4 14l-4 18l14 -4l9 -44l-4 -15l4 -12v-32l-7 -16l-9 -33l-9 -9l-5 -17l-8 -30l-7 -11l-3 -17l-8 -14l-12 -26l-1 -13l-15 -27l-7 -29l-14 -25l-2 -18l-7 -14l-12 -25l-5 -15l-2 -17l-6 -12l-12 -28
l-10 -29zM87 -17l12 -3l19 7l27 -2h12l18 -3l29 4l14 -5l21 6q3 0 6 -1t6 -1l13 -4l35 4h16l45 2l6 57l-3 35l14 -3l6 -29l3 -33l-5 -42l-31 -2h-17l-31 -4l-12 4l-16 2l-19 -5l-12 4l-31 -4l-17 3h-15l-28 2l-18 -6l-46 11zM89 574l24 3l10 -4h85l1 -1l-7 -14h-40l-12 4
l-30 -3l-29 7z" />
    <glyph glyph-name="bracketleft" unicode="[" horiz-adv-x="350" 
d="M263 728l2 -17l-2 -12l4 -18l-7 -27l-32 -8l-26 2l-18 -12v-17l2 -12l-3 -16l3 -19l-3 -12l2 -19l-3 -13l3 -11v-47l-3 -17v-16l3 -25v-32l-3 -33l2 -13l-1 -14l3 -14v-16l-3 -19v-44l2 -13l-3 -15l2 -32v-29l2 -32l-4 -14l2 -27l14 -17l27 4l13 -5l35 -6v-42l2 -10v-14
l-8 -31l-26 -8l-14 5l-16 -3l-13 4l-30 -2l-13 -4l-19 3l-13 -1l-45 10l-6 24l3 16v45l-3 15l3 34l-3 13l2 31l-2 10l4 36l-2 27l1 15l-2 12l3 20l-2 15l1 13l-3 18l4 15v25l-3 34l2 11v20l-2 27l2 13l-2 15l2 17l-3 30l4 27l-2 21l2 9l-4 17v15l4 33l-3 13v58l3 17l-4 14
l8 34h31l12 3h16l16 -4l17 3l11 -2l16 5l14 -3l46 -5zM298 698l2 -17l-2 -12l4 -18l-7 -27l-32 -8l-26 2l-18 -12v-17l2 -12l-3 -16l3 -19l-3 -12l2 -19l-3 -13l3 -11v-47l-3 -17v-16l3 -25v-32l-3 -33l2 -13l-1 -14l3 -14v-16l-3 -19v-44l2 -13l-3 -15l2 -32v-29l2 -32
l-3 -10l-13 -2l-6 7q0 5 -0.5 9t-1.5 8l4 14l-2 36v29q0 7 -1 15.5t-1 15.5l3 13l-2 16v42l3 19v22l-3 14l1 10q0 2 -1 5.5t-1 6.5l3 33v35l-3 25v11l3 17v52q-1 1 -1 3t-1 4l2 11q0 4 -0.5 9t-1.5 10l4 14l-4 19l3 15l-2 15v9l6 5l26 -2l42 10l9 39l-4 19l2 12l-2 14l16 -1
zM111 -75l9 -2q3 0 7 0.5t7 0.5l22 -4l14 5q6 0 12 1t12 1l16 -5l16 3l14 -5l40 11l10 41v17l-2 10v15l20 -3v-42l2 -10v-14l-8 -31l-26 -8l-14 5l-16 -3l-13 4l-30 -2l-13 -4l-19 3l-13 -1l-45 10z" />
    <glyph glyph-name="backslash" unicode="\" horiz-adv-x="247" 
d="M103 668l3 -12l5 -34l6 -29l1 -13l6 -17l-1 -13l2 -13l9 -32l1 -15l2 -23l4 -21l4 -10l3 -18l5 -24l2 -21l6 -26l-1 -16l6 -15l-2 -16l4 -11l4 -31l6 -11l-2 -19l5 -13v-12l4 -15l6 -32v-15l6 -11l3 -34l5 -10v-21l7 -26l-2 -32l-32 -10l-26 4l-11 31l-2 14l-5 26l-6 28
l-3 34l-6 12v19l-2 9l-3 30l-5 14v15l-8 32v13l-5 16l-11 55l-4 36l-4 28l-4 26l-4 27l-5 16v18l-4 14l-3 29l-6 13v19l-4 13l-5 28v13l-4 14v52l32 7l25 -5zM138 638l3 -12l5 -34l6 -29l1 -13l6 -17l-1 -13l2 -13l9 -32l1 -15l2 -23l4 -21l4 -10l3 -18l5 -24l2 -21l6 -26
l-1 -16l6 -15l-2 -16l4 -11l4 -31l6 -11l-2 -19l5 -13v-12l4 -15l6 -32v-15l6 -11l3 -34l5 -10v-21l7 -26l-2 -32l-32 -10l-26 4l-5 13l43 12l2 47l-7 26v19l-5 11l-3 35l-6 10v15l-6 32l-4 13v15l-5 13l2 18l-6 11l-4 30q-1 1 -2 4.5t-2 5.5l2 18l-6 16l1 16l-6 26l-2 19
l-5 24l-3 18q-1 1 -2 4.5t-2 5.5l-4 19l-2 23l-1 16q-2 7 -4.5 16t-4.5 17l-2 11l1 16l-6 18l-1 12l-6 29l-6 37l-2 7l12 -2z" />
    <glyph glyph-name="bracketright" unicode="]" horiz-adv-x="350" 
d="M274 722l1 -11l-3 -29l4 -32l-3 -13v-35l3 -12l-4 -32l2 -14v-18l2 -30l-4 -30v-14l4 -13v-46l-2 -14l2 -29l-4 -30l2 -31v-73l2 -20l-3 -12l2 -12l-3 -15v-50l4 -10v-32l-2 -33l2 -27v-19l-5 -40l-32 -9l-16 1l-10 3l-16 -5l-16 2l-15 -2l-12 1l-17 5l-15 -5l-11 4
l-29 2l-6 28v27l-2 14l6 30l30 4h14l10 6l17 -6l13 19l2 17l-2 15l2 26l-2 32l-2 12l2 16l-1 13l3 33l-4 17v26l2 33v31l2 16l-2 10v62l-2 31l3 17v26l-3 18l1 11l2 30v33l-3 14l4 33l-15 12l-16 -3l-18 2l-28 8l-7 28l2 26l-2 17l9 29l27 5l15 -3h30l31 -2l15 4l16 -3h43z
M309 692l1 -11l-3 -29l4 -32l-3 -13v-35l3 -12l-4 -32l2 -14v-18l2 -30l-4 -30v-14l4 -13v-46l-2 -14l2 -29l-4 -30l2 -31v-73l2 -20l-3 -12l2 -12l-3 -15v-50l4 -10v-32l-2 -33l2 -27v-19l-5 -40l-32 -9l-16 1l-10 3l-16 -5l-16 2l-15 -2l-12 1l-17 5l-15 -5l-11 4l-29 2
l-3 11l8 -3l7.5 2.5t7.5 3.5l14 -5l15 -1l15 2l19 -2l14 4l6 -2l20 -1l45 13l6 50v20l-2 27l2 33v34q-1 1 -2 4.5t-2 5.5v47l3 13q0 2 -1 5.5t-1 5.5l3 12l-2 24v73q0 7 -1 14.5t-1 15.5l4 30l-2 30l2 14v50l-4 13v9l4 30l-2 31v18q0 2 -1 6t-1 7l4 36l-3 13v27l3 14l-4 33
l3 29l-1 16l-1 2h15zM122 632l16 -1l10 2q2 -2 2 -1.5t1 -0.5l-2 -12l-25 7z" />
    <glyph glyph-name="asciicircum" unicode="^" horiz-adv-x="421" 
d="M275 669l5 -32l8 -26l2 -20l-1 -14l3 -13l6 -30l4 -28l6 -20l4 -24l2 -32l3 -19l4 -11l1 -13l7 -30v-21l5 -13l3 -27v-37l-30 -3l-30 2l-7 26l-8 34l1 13l-6 15v17l-9 26l-4 34l-6 13l-3 28l-5 19v14l-9 28l-5 31l-5 14l-3 -1l-6 -12l-3 -36l-5 -10l-3 -17v-15l-5 -16
l-1 -15l-9 -31l-5 -28l-6 -32l-5 -10v-19l-4 -13l-5 -29l-11 -30h-52l-5 9v43l4 14v20l2 10l6 33l5 14l-1 15l5 15l3 29l6 14v19l8 30v15l3 14l7 12v34l6 11v19l7 28l12 40l26 6l12 -2h48l25 -6zM310 639l5 -32l8 -26l2 -20l-1 -14l3 -13l6 -30l4 -28l6 -20l4 -24l2 -32
l3 -19l4 -11l1 -13l7 -30v-21l5 -13l3 -27v-37l-30 -3l-30 2l-4 13l44 4v53l-3 31l-5 11v20l-7 28l-1 14l-4 11l-3 19l-2 32l-4 24q-2 4 -3 10t-3 11l-4 29l-6 29l-3 14l1 10l-2 24l-8 26v-3l-5 26l12 -2zM118 235v6h33l15 45l5 25l4 13v20l5 12l6 29l5 30l9 32q0 3 0.5 6
t0.5 7l5 16v15l3 17l1 2l5 -16v-13q1 -5 2.5 -9.5t2.5 -9.5l2 -24l-1 -5l-1 -15l-9 -31l-5 -28l-6 -32l-5 -10v-19l-4 -13l-5 -29l-11 -30h-52z" />
    <glyph glyph-name="underscore" unicode="_" horiz-adv-x="220" 
d="M214 -52l-6 -50h-73l-31 -4l-16 5l-32 -5l-16 1l-32 10l-5 30v17l5 33l30 3h19l13 2l15 -5l15 3l17 -2l32 3l17 -5l13 6l31 -7zM249 -82l-6 -50h-73l-31 -4l-16 5l-32 -5l-16 1l-32 10l-1 5l15 -1q6 1 14 2.5t15 2.5l16 -5l34 4h85l8 64l-1 10l17 -4z" />
    <glyph glyph-name="grave" unicode="`" horiz-adv-x="310" 
d="M195 838l4 -15l7 -16l16 -38l-9 -12l-24 -11l-19 6l-29 24l-27 26l-26 34l5 17l52 7l16 -5h20zM230 808l4 -15l7 -16l16 -38l-9 -12l-24 -11l-19 6l-12 10l30 13l16 22l-19 46q-2 2 -3.5 5.5t-2.5 6.5h2z" />
    <glyph glyph-name="a" unicode="a" horiz-adv-x="426" 
d="M268 666l2 -14l5 -10l1 -14l8 -15v-34l4 -15l-1 -9l7 -15l-2 -15l5 -14l1 -16l7 -32l4 -30l4 -10l2 -17l2 -31l8 -29l5 -26l-1 -15l3 -14l7 -32l6 -27l-2 -20l6 -10l3 -18l-2 -14l7 -12v-17l5 -32l7 -24l-1 -16l4 -28v-37l-34 -3l-29 -5l-30 5l-11 29v18l-17 18h-46
l-13 -3l-18 3l-16 -13v-18l-9 -32l-33 -5l-16 4l-12 -6l-35 11l-3 35l7 24v17l6 17l-2 15l2 14l8 27v17l5 11l4 16l-2 14l8 31v16l4 26l7 29l1 14l9 31v18l4 23l4 33l5 32l4 8v18l4 17l1 15l5 9l2 21l4 26l4 14v12l3 17l5 14l2 18l-1 15l13 27l26 3l11 -4h16l14 4l30 -5z
M303 636l2 -14l5 -10l1 -14l8 -15v-34l4 -15l-1 -9l7 -15l-2 -15l5 -14l1 -16l7 -32l4 -30l4 -10l2 -17l2 -31l8 -29l5 -26l-1 -15l3 -14l7 -32l6 -27l-2 -20l6 -10l3 -18l-2 -14l7 -12v-17l5 -32l7 -24l-1 -16l4 -28v-37l-34 -3l-29 -5l-30 5l-4 10q7 1 14.5 2.5t14.5 2.5
l48 4v53l-4 26l1 20l-7 24q-1 7 -2.5 14t-2.5 14v20l-7 12l2 13l-3 20l-6 9l2 20l-6 27l-7 32l-3 15l1 13l-5 28l-8 26l-2 30l-2 19q-1 1 -2 4.5t-2 5.5l-4 33l-7 28l-1 19l-5 14l2 14l-7 15l1 9l-4 13v36l-8 16l-1 12l-5 10l-2 13l-1 1l16 -2zM243 205l-1 11l-6 18l-1 15
v18l-8 27l1 14l-5 15v18l-8 27l2 17l-6 1l-4 -32l-6 -12l-1 -15l-3 -30l-6 -35l-1 -15l-8 -26v-19l-4 -11l15 -16l12 1h27l13 11zM87 -19l3 -1l12 6l12 -3l46 6l13 45v11l6 5l14 -3l14 4h36q3 -4 5 -5t5 -4v-6h-13l-13 -3l-18 3l-16 -13v-18l-9 -32l-33 -5l-16 4l-12 -6
l-35 11zM217 191h-18l-4 4l1 4q0 4 0.5 8.5t0.5 9.5l8 26q0 3 0.5 7.5t0.5 8.5l6 33v-1l8 -27v-15l1 -17l4 -12v-3z" />
    <glyph glyph-name="b" unicode="b" horiz-adv-x="465" 
d="M279 699l18 -5l14 -7l11 -8l16 -8l12 -9l8 -12l22 -21l14 -26l10 -30l5 -29l7 -32v-33l-2 -14l-4 -26l-5 -15v-14l-7 -11l-5 -17l-14 -20v-26l14 -26l4 -17l9 -16v-11l8 -36v-43l-5 -29l-7 -31v-20l-9 -10l-8 -16l-16 -22l-7 -17l-15 -6l-22 -16l-18 -8l-28 -8l-44 -3
l-16 1l-15 -3l-16 2h-34l-12 -3l-15 4l-17 -4l-32 8l-4 28v45l-2 12v76l3 35v26l-3 19v14l4 25l-3 18v18l3 15v28l-4 15v17l4 10v18l-4 14l1 14v61l1 13v32l2 13v34l-4 16l2 25l7 45l42 8h35l13 -3l17 5l13 -5l35 5l30 -6zM279 410l9 11l13 28l3 29v30l-4 21v10l-14 33
l-24 14h-28l-33 3l-18 -12v-18l3 -15v-19l-4 -11l2 -32v-30l2 -33l14 -13l19 -4l14 5l31 -3zM277 120l11 8l5 14l9 12l-2 19l4 16l2 27l-9 29l-2 15l-19 28l-12 6l-30 -2h-31l-21 -13l3 -13l-2 -15l3 -17l-3 -14l3 -15v-32l-3 -18l1 -13v-17l15 -16l20 3l12 -1h32zM112 -17
l15 4l15 -5l14 4h32l19 -2l13 3l15 -1l48 3l24 7l25 11l22 16l20 8l9 21l16 23l6 12l12 13v26l7 28l5 31v47q-2 8 -4 17t-4 17v16q-2 2 -4.5 7.5t-4.5 8.5l-4 15l-14 26v20l14 20q1 4 2.5 8t2.5 8l7 13v13l5 14l4 28l2 16v36l-7 32v-1l-5 27l-11 32l7 -6l14 -26l10 -30
l5 -29l7 -32v-33l-2 -14l-4 -26l-5 -15v-14l-7 -11l-5 -17l-14 -20v-26l14 -26l4 -17l9 -16v-11l8 -36v-43l-5 -29l-7 -31v-20l-9 -10l-8 -16l-16 -22l-7 -17l-15 -6l-22 -16l-18 -8l-28 -8l-44 -3l-16 1l-15 -3l-16 2h-34l-12 -3l-15 4l-17 -4l-32 8zM218 127h-1l-12 -2
l-6 7v10q0 2 -0.5 6t-0.5 7l3 16v37l-2 10l3 15l-4 21l2 16q0 1 -0.5 1t-0.5 1l7 5h28q7 0 13.5 1t13.5 1q1 -1 2 -1t3 -1l10 -15h-38l-21 -13l3 -13l-2 -15l3 -17l-3 -14l3 -15v-32zM219 417h-1l-10 2l-7 7l-2 26v30q0 8 -1 15t-1 15l4 11v24l-3 13v9l6 5l29 -3h26
q3 -2 7.5 -4.5t7.5 -4.5l2 -6h-7l-33 3l-18 -12v-18l3 -15v-19l-4 -11l2 -32v-35z" />
    <glyph glyph-name="c" unicode="c" horiz-adv-x="440" 
d="M52 566l5 29l8 13l12 29l9 13l10 9l10 13l13 11l15 8l24 10l31 10l14 1h49l14 -3l30 -11l10 -11l25 -16l10 -15l13 -8l6 -17l16 -25l2 -10l10 -30v-53l-6 -28l-27 -3h-43l-25 3l-7 33l-3 46l-8 11l-21 21l-14 5l-31 -2l-13 -3l-9 -12l-12 -8l-3 -18l-8 -9v-46l3 -14
l-3 -21l3 -29l-3 -13l3 -29l-3 -33l3 -13v-19l-4 -10v-35l2 -27l-2 -15l2 -20l-1 -13l2 -27v-33l8 -30l12 -8l10 -12l43 -5l15 5l24 19l3 18l4 44l8 30l28 9l10 -6l28 4l33 -4l4 -36l-4 -41l-6 -32l-7 -16l-3 -13l-17 -23l-23 -28l-11 -5l-10 -8l-27 -16l-16 -4l-60 -9
l-31 6l-28 11l-13 10l-14 6l-12 14l-13 10l-17 21l-7 16l-8 9l-2 18l-6 16l-2 12l-5 14l3 30v18l-3 15l3 13l-3 15l3 12l-4 29l4 18l-2 15l2 13l-2 13l2 20l-4 27l2 13l2 33l-3 14v27l2 17v60zM195 122l1 -4l-7 8q-2 1 -3.5 2t-3.5 3q-2 7 -3.5 12.5t-3.5 11.5v30l-2 27
l1 13l-2 20l2 15l-2 27v33l4 9v26l-3 13l3 30l-2 25l2 14l-3 32l4 22l-4 14v40l8 11l2 12l13 11l3 4q1 0 2 0.5t2 0.5q7 0 13.5 1t13.5 1l10 -4l12 -12l-14 -1l-13 -3l-9 -12l-12 -8l-3 -18l-8 -9v-46l3 -14l-3 -21l3 -29l-3 -13l3 -29l-3 -33l3 -13v-19l-4 -10v-35l2 -27
l-2 -15l2 -20l-1 -13l2 -27v-33zM177 -24l28 -6l63 9l18 4l27 16l11 9l16 8l25 30l20 27l3 14l-1 -2l8 18l6 32l4 45l-1 8l17 -2l4 -36l-4 -41l-6 -32l-7 -16l-3 -13l-17 -23l-23 -28l-11 -5l-10 -8l-27 -16l-16 -4l-60 -9l-31 6l-28 11zM319 467h38l38 4l8 39v57l-10 29
l-2 15l-7 9l5 -2l6 -17l16 -25l2 -10l10 -30v-53l-6 -28l-27 -3h-43l-25 3z" />
    <glyph glyph-name="d" unicode="d" horiz-adv-x="541" 
d="M279 697l26 -2l29 -10l13 -11l14 -4l11 -8l13 -5l13 -13l10 -6l19 -25l19 -19l16 -31l11 -26l7 -9l4 -18l6 -12l5 -16l4 -25l5 -31l6 -14v-19l-2 -12l2 -18v-42l-2 -14v-17l-6 -33l-4 -24l-6 -35l-7 -8l-8 -32l-13 -28l-9 -8l-6 -13l-18 -27l-10 -9l-25 -25l-11 -4l-9 -7
l-26 -14l-28 -16l-30 -6l-14 3l-17 -7h-27l-18 3l-14 -2h-33l-11 3l-20 -5l-13 5l-16 -5l-30 12l-6 39l1 15l-2 18l3 17l-1 11l-2 32l4 29l-2 18l2 13v17l-4 11v15l3 18l-3 28l4 17l-3 10l2 19l-3 28l3 29l-3 30l3 33l-3 17l3 14v40l-2 31v34l2 26l-3 30l9 50l30 5l30 -6
l17 2l13 4l15 -6h29l16 3l30 -3zM277 116h17l12 8l14 3l11 11l8 11l21 26l6 13l9 10l3 16l13 31l1 11l4 14l4 33v33l2 28l-2 14l-4 29l-3 33l-6 15l-2 13l-7 15l-4 16l-10 14l-16 26l-33 27l-8 11l-16 6h-16l-12 7l-46 -3l-18 5l-16 -16v-15l3 -31v-123l-4 -12v-30l2 -16
l-1 -14v-135l3 -18l-3 -16l1 -10v-31l15 -15h16l18 -3h29zM113 -18l11 3l12 -5l21 6l9 -3h36q2 0 6 0.5t6 1.5l18 -3h32q3 1 6.5 2.5t7.5 3.5l13 -3l35 7l31 18l24 13l9 7l17 7l25 25l7 6l24 36q2 3 2 5t2 4l9 7l16 34l7 29l7 7l7 40l4 25v-1l6 33v20l2 14v42l-2 18l2 12v22
l-6 15l-5 28l-4 26l-5 17l-6 12l-4 19l-8 10l-11 26l-1 2l6 -6l16 -31l11 -26l7 -9l4 -18l6 -12l5 -16l4 -25l5 -31l6 -14v-19l-2 -12l2 -18v-42l-2 -14v-17l-6 -33l-4 -24l-6 -35l-7 -8l-8 -32l-13 -28l-9 -8l-6 -13l-18 -27l-10 -9l-25 -25l-11 -4l-9 -7l-26 -14l-28 -16
l-30 -6l-14 3l-17 -7h-27l-18 3l-14 -2h-33l-11 3l-20 -5l-13 5l-16 -5l-30 12zM219 124l-2 1h-11l-7 8v23q0 2 -0.5 4t-0.5 4l3 17l-3 21v133l1 14l-2 16v26l4 12v128l-3 31v7l6 6l11 -3l46 3l13 -7h13l11 -4l4 -7l-4 3l-46 -3l-18 5l-16 -16v-15l3 -31v-123l-4 -12v-30
l2 -16l-1 -14v-135l3 -18l-3 -16l1 -10v-2z" />
    <glyph glyph-name="e" unicode="e" horiz-adv-x="439" 
d="M376 666l3 -18l-2 -8l3 -17l-5 -26l-31 -8l-16 -2l-11 5h-16l-29 -6l-17 2h-43l-11 -2l-15 -10v-76l-4 -16l3 -17v-46l13 -16l16 -3h15l11 4l29 -5l16 5h59l33 -7v-43l3 -15l-1 -15l-7 -29l-43 -6l-15 5l-16 -4l-10 5h-15l-16 -5l-14 -1l-31 5l-15 -3l-12 -16v-27l-3 -17
l4 -19v-11l-3 -33l3 -33l-4 -11l17 -15l13 -2l16 3l13 -4h44l28 3l16 -5l17 6l29 -10l4 -43l-2 -14l3 -14l-9 -29h-26l-33 -5h-44l-14 4l-26 -2l-16 3h-16l-16 -4l-11 1l-17 -3h-15l-13 5l-13 -1l-29 3l-9 33l3 13v14l-4 18l4 10v51l-3 28v74l3 12v33l-4 13l4 14l-3 31l2 33
v30l-3 14l2 31l2 30l-3 16l2 16l-3 13l3 15l1 13v60l-3 19v25l6 33l29 5l15 -3l14 3l31 -4l15 4l13 -4l15 4l32 -3l11 5l15 -4l17 -2l13 4l14 -1l14 3l44 -7zM218 140l1 -14l-8 -2q-2 0 -1.5 -0.5t-1.5 0.5l-9 7l1 18l-2 21l3 32v14l-4 15l3 16v24l6 8q3 0 9 2l27 -5l18 1
l16 5h9l13 -6l15 4l15 -4l57 8l9 39l1 21l-3 13v16l20 -4v-43l3 -15l-1 -15l-7 -29l-43 -6l-15 5l-16 -4l-10 5h-15l-16 -5l-14 -1l-31 5l-15 -3l-12 -16v-27l-3 -17l4 -19v-11zM411 636l3 -18l-2 -8l3 -17l-5 -26l-31 -8l-16 -2l-11 5h-16l-29 -6l-17 2h-43l-11 -2l-15 -10
v-76l-4 -16l3 -17v-20h-3l-10 2q-2 3 -3.5 4t-3.5 3v44l-2 15l3 12v70q4 2 4 2.5t3 2.5l4 1h43l20 -2l29 6h11l10 -5l22 2l42 10l6 40l-3 18l2 8l-3 17l15 -2zM113 -14h7l13 -5h22l17 3l11 -1l14 4h12l16 -3q5 0 12 1t13 1l14 -4h49q8 1 16.5 2.5t16.5 2.5h36l14 45l-4 16
l2 11l-2 19l18 -6l4 -43l-2 -14l3 -14l-9 -29h-26l-33 -5h-44l-14 4l-26 -2l-16 3h-16l-16 -4l-11 1l-17 -3h-15l-13 5l-13 -1l-29 3z" />
    <glyph glyph-name="f" unicode="f" horiz-adv-x="369" 
d="M320 666l-3 -14v-18l3 -13l-7 -24l-27 -10l-17 3l-14 -4l-14 1l-16 5l-14 -1l-12 -3l-16 -14v-17l3 -32l-4 -11l3 -14v-20l-3 -17v-46l19 -12l14 -4l25 4h18l11 -6h42l7 -30l-1 -16l2 -13l-1 -12l-7 -26l-26 -8l-16 -3l-12 6l-14 -3l-31 2l-27 -14v-188l-3 -28l3 -30
l-6 -30l-45 -10l-10 6l-16 -6l-26 7l-6 34l-2 25v65l-2 10l3 31l-2 16l2 13l-2 31l2 16l-3 15l3 31l-1 13l2 14l-3 15v46l3 19v57l-2 12v33l-2 28l4 29v66l-4 11l1 16l8 45l29 6l16 -1l26 -3l16 4h15l41 -3l15 5l16 -5l15 4h16l26 -7zM115 -17l8 3l29 -2l40 9l8 41l-3 31
l3 27v180q6 3 8.5 5t7.5 4l31 -2q2 1 4.5 1t4.5 1l26 -3l6 1l36 10l9 35l1 16l-2 13l1 16h13l7 -30l-1 -16l2 -13l-1 -12l-7 -26l-26 -8l-16 -3l-12 6l-14 -3l-31 2l-27 -14v-188l-3 -28l3 -30l-6 -30l-45 -10l-10 6l-16 -6l-26 7zM355 636l-3 -14v-18l3 -13l-7 -24l-27 -10
l-17 3l-14 -4l-14 1l-16 5l-14 -1l-12 -3l-16 -14v-17l3 -32l-4 -11l3 -14v-20l-3 -17v-17l-12 4l4 -3l-12 7v36l3 17v27l-2 12l3 7l-3 35v9l7 7l10 2q2 0 3.5 0.5t3.5 0.5l16 -5l21 -1l10 3l17 -3l40 15l10 35l-4 17v10l4 17l-1 2l12 -3z" />
    <glyph glyph-name="g" unicode="g" horiz-adv-x="466" 
d="M45 564l8 16v17l6 14l8 10l6 15l22 27l19 19l27 9l16 8l16 2l30 9l16 -2l30 3l31 -5l30 -6l29 -10l11 -11l22 -21l21 -22l8 -14l13 -30l2 -17l2 -12v-43l4 -19l-9 -24l-28 -11l-15 -1l-11 6h-43l-6 31l2 13l-6 47l-6 15l-10 11l-12 7l-14 4l-15 -1l-32 3l-13 -4l-28 -10
l-17 -24l-3 -16l-4 -44l3 -16l-3 -31l4 -14v-49l-4 -30l2 -16l-2 -27v-34l3 -13l-3 -13v-16l4 -15l-2 -33v-44l2 -13l19 -27l13 -8l32 -7l26 -2l15 7l15 2l14 7l13 13l6 26v31l3 12l-4 17l2 11v17l-16 15l-12 -2l-45 4l-5 30v26l8 46l43 7l30 -4l14 4l12 -1l15 -4h34l29 -5
l4 -23l-3 -20v-12l3 -29v-19l-3 -25l4 -16l-5 -14v-76l-10 -28l-16 -29l-19 -26l-24 -17l-26 -13l-27 -9l-45 -13l-33 2l-32 3l-11 6l-32 8l-12 9l-13 4l-26 20l-27 39l-3 12l-13 33l-1 12l-5 15v60l4 28l-2 33l2 15l-4 16l4 27l-4 32l4 15l-4 12l3 33l-2 13l3 10v20l-4 14
l4 15l-3 16l3 15l-3 25zM166 -18l5 -1l10 -6l35 -3l34 -2l49 14l28 9l33 16l22 16l21 28l18 34l11 31v74l6 17l-2.5 7.5t-2.5 8.5l3 24v23l-3 29v8l2 18l17 -3l4 -23l-3 -20v-12l3 -29v-19l-3 -25l4 -16l-5 -14v-76l-10 -28l-16 -29l-19 -26l-24 -17l-26 -13l-27 -9l-45 -13
l-33 2l-32 3l-11 6l-32 8zM189 120l-3 3l-15 20l-2 9v44l2 36l-4 13v11l4 17l-4 17v30l2 27q0 3 -1 7t-1 8l4 30v54l-4 12l3 31l-3 17l4 38l2 14q3 5 6.5 8t6.5 8l23 9l-1 -1l11 4l29 -3q2 0 5.5 0.5t6.5 0.5l14 -4l-3 2l8 -5l8 -9h-3l-32 3l-13 -4l-28 -10l-17 -24l-3 -16
l-4 -44l3 -16l-3 -31l4 -14v-49l-4 -30l2 -16l-2 -27v-34l3 -13l-3 -13v-16l4 -15l-2 -33v-46zM348 456h8l12 -6l19 1l37 14l13 35l-4 20v43l-2 12l-2 20l-8 18l7 -7l8 -14l13 -30l2 -17l2 -12v-43l4 -19l-9 -24l-28 -11l-15 -1l-11 6h-43zM270 237l11 -1q4 0 7 1l7 -6v-8
l-23 2z" />
    <glyph glyph-name="h" unicode="h" horiz-adv-x="456" 
d="M183 667l2 -33l-3 -15l1 -15v-33l3 -15l-3 -26l2 -28l-3 -21l3 -29l-3 -13l2 -17l-2 -30l19 -15l12 -1l13 6l16 -2l14 -4l12 15l3 18l-3 15l3 28l-3 15l4 35l-4 9v18l3 18v43l-1 14l2 18l-2 11v31l6 32l42 6l15 -4l14 4l28 -9l3 -30l4 -17l-3 -15l1 -14l-2 -28l1 -12v-92
l3 -13l-4 -15l3 -21l-2 -10v-63l2 -27l-3 -19v-134l4 -32l-3 -30v-60l3 -28l-9 -29l-43 -8l-14 6h-13l-28 5l-6 41l3 16l-2 31l2 14l-4 10l2 15l-2 17l4 32l-3 16l1 9v20l2 9v15l-18 17l-12 1l-13 -4l-32 4l-14 -13l-1 -15l3 -16l-3 -18l4 -15v-43l-2 -16l2 -29l-3 -9v-62
l-5 -32l-43 -3l-14 1l-42 6l-5 28l2 18l-4 29l4 13l-3 12l3 17v15l-4 31l4 32v76l-3 24v21l3 10l-4 32l2 14l-2 31l4 15l-3 15l2 31l-3 13l4 33l-3 30v27l3 33l-3 16l3 10v33l5 26l29 9h14l27 -4l27 -2zM308 -13h5l17 -6l54 9l13 42l-3 31v57l3 31l-4 33v131l3 19l-2 29v63
l2 12l-3 19l5 15l-4 17v88l-1 12l2 28q0 2 -0.5 6t-0.5 7l4 16l-5 18l-1 4l18 -5l3 -30l4 -17l-3 -15l1 -14l-2 -28l1 -12v-92l3 -13l-4 -15l3 -21l-2 -10v-63l2 -27l-3 -19v-134l4 -32l-3 -30v-60l3 -28l-9 -29l-43 -8l-14 6h-13l-28 5zM112 -14l7 -1l16 -1l57 4l6 45v60
l3 10l-2 31l2 16v46l-4 13l3 17l-3 19v4l6 6l28 -4l13 4h3l10 -11v-7l-25 3l-14 -13l-1 -15l3 -16l-3 -18l4 -15v-43l-2 -16l2 -29l-3 -9v-62l-5 -32l-43 -3l-14 1l-42 6zM218 637l2 -33l-3 -15l1 -15v-33l3 -15l-3 -26l2 -28l-3 -21l3 -29l-3 -13l1 -14l-9 -4l-12 9l2 22
q0 2 -1 6.5t-1 6.5l3 15l-3 32l3 18q0 7 -1 14t-1 14l3 29l-3 17v30q0 3 -0.5 7t-0.5 7l3 13l-2 34l15 -1z" />
    <glyph glyph-name="i" unicode="i" 
d="M183 664l3 -28v-35l-2 -9v-31l-2 -19l4 -26l-3 -20v-84l3 -31l-4 -14l3 -35v-29l-1 -11v-19l-2 -11v-21l3 -10v-47l-3 -30l3 -12v-18l-3 -27l4 -35l-3 -10v-17l-6 -27l-25 -9l-16 1l-12 -2l-14 1l-31 6l-7 29l4 27l-2 17v62l-2 15l2 14l-2 13l4 15l-3 16v34l1 10v65l2 11
v15l-3 18v59l3 12l-2 16l2 19l-4 27v32l3 16l-1 12l2 15l-4 18l3 11l-3 16v48l7 30l31 4l10 -3l16 4l41 -6zM218 634l3 -28v-35l-2 -9v-31l-2 -19l4 -26l-3 -20v-84l3 -31l-4 -14l3 -35v-29l-1 -11v-19l-2 -11v-21l3 -10v-47l-3 -30l3 -12v-18l-3 -27l4 -35l-3 -10v-17
l-6 -27l-25 -9l-16 1l-12 -2l-14 1l-31 6l-2 9l12 -1l12 2l18 -1l36 13l8 35v17l3 12l-4 36l3 25v24l-3 12l3 25v50q-1 1 -1.5 5t-1.5 6v18l2 11v19l1 11v30l-3 32l4 13l-3 35v81l3 22l-4 26l2 19v31l2 9v37l-3 30l14 -2z" />
    <glyph glyph-name="j" unicode="j" horiz-adv-x="382" 
d="M321 665l1 -13l-3 -15l4 -20l-2 -25l2 -30l-3 -16l3 -14v-31l-4 -28l3 -19l-2 -24l3 -14v-31l-4 -16l2 -27v-17l-2 -30l2 -17v-69l-2 -20v-71l-6 -32l-5 -13l-12 -28l-12 -13l-9 -5l-11 -12l-15 -7l-10 -9l-17 -6l-11 1l-14 -9h-32l-15 3l-25 8l-16 10l-22 14l-20 27
l-16 24l-5 30l-6 14l2 14l-2 28v31l-2 30l8 42l25 3h32l13 2l28 -8l5 -28l2 -24l-2 -33l2 -12v-29l3 -19l13 -10h30l7 10l6 18v58l2 29l-3 35v29l4 16l-3 26l3 15l-4 29l3 19l-2 11l2 19l-3 13l2 11l-2 16l3 13v21l-2 13l3 12v29l-4 31l3 19l-3 25l3 17l-1 12l4 46l32 6h13
l28 -2l28 -4zM356 635l1 -13l-3 -15l4 -20l-2 -25l2 -30l-3 -16l3 -14v-31l-4 -28l3 -19l-2 -24l3 -14v-31l-4 -16l2 -27v-17l-2 -30l2 -17v-69l-2 -20v-71l-6 -32l-5 -13l-12 -28l-12 -13l-9 -5l-11 -12l-15 -7l-10 -9l-17 -6l-11 1l-14 -9h-32l-15 3l-25 8l-10 6l12 -2h40
l14 9l9 -1l23 8l11 10l15 7q2 3 6 6.5t6 6.5l6 2l16 17l15 35l5 12l6 33v74l2 20v69l-2 17l2 30v17q0 6 -1 13t-1 13l4 14v38l-3 14l2 22l-3 18l4 25v37l-2 12l2 11l-2 33l2 27l-4 17l3 13l-1 17l15 -2zM186 117h-15l-3 2l-2 13v28l-2 12l2 33l-2 26l15 -4l5 -28l2 -24
l-2 -33l2 -12v-13z" />
    <glyph glyph-name="k" unicode="k" horiz-adv-x="477" 
d="M183 662l3 -30l-2 -16l1 -9l-3 -18l3 -12l-3 -21l4 -9v-31l-4 -17v-30l4 -18l-2 -11l6 -3l10 13l10 26l17 29l3 15l8 8l9 13l7 15l13 30l13 21l12 31l9 15l9 11l5 14l15 22l21 -4l16 6l14 -6h32l10 -16l-12 -32l-13 -22l-14 -29l-12 -27l-8 -9l-5 -18l-14 -20l-5 -16
l-9 -14l-5 -13l-13 -27l-12 -13v-28l8 -11l3 -17l6 -12l2 -18l7 -9l5 -13l5 -35l9 -14l5 -27l7 -10l10 -33l1 -14l7 -12l4 -18l7 -14l14 -43v-9l10 -28l9 -30l5 -32l-7 -8l-28 -8l-17 3h-45l-14 44l-12 23l-1 15l-12 31l-2 13l-6 16l-8 10v18l-7 10l-7 35l-8 12l-1 15l-7 14
l-11 27l-7 5l-8 -18l-11 -21l-14 -26l-9 -43l3 -17l-3 -26l3 -47l-2 -12l2 -12v-20l-5 -39l-30 -9l-31 -2l-39 6l-8 31v17l2 16v44l-3 13v14l4 20v13l-4 12l4 14v35l-3 30l2 15l-2 25v34l1 16l-2 16l3 24v66l-3 14v26l4 14l-4 21l2 27v88l5 48l27 6l18 -5h13l15 6l27 -9z
M358 -15h12l20 -4l36 10l15 16l-6 38l-10 34l-9 25v8l-16 49l-5 11l-4 18l-7 13l-1 10l-11 39l-6 8l-5 29l-9 13l-6 36l-4 10l-7 10l-2 17l-6 12l-3 18l-8 10v18l9 10l16 34l3 9l10 15q1 4 3 9.5t3 9.5l14 20q0 2 2 8.5t3 8.5l6 6l13 28l14 29l-1 -1l15 25l8 22h14l10 -16
l-12 -32l-13 -22l-14 -29l-12 -27l-8 -9l-5 -18l-14 -20l-5 -16l-9 -14l-5 -13l-13 -27l-12 -13v-28l8 -11l3 -17l6 -12l2 -18l7 -9l5 -13l5 -35l9 -14l5 -27l7 -10l10 -33l1 -14l7 -12l4 -18l7 -14l14 -43v-9l10 -28l9 -30l5 -32l-7 -8l-28 -8l-17 3h-45zM113 -18l5 -1
l34 2l43 13l6 49v21l-2 12l2 12l-3 46l3 28l-2 16q2 9 4 20t4 20l12 22l8 14l2 -5l6 -12l1 -15l4 -7l-13 -24l-9 -43l3 -17l-3 -26l3 -47l-2 -12l2 -12v-20l-5 -39l-30 -9l-31 -2l-39 6zM218 632l3 -30l-2 -16l1 -9l-3 -18l3 -12l-3 -18l-1 -1l-4 -20l-15 -25v15l4 15v36
l-3 9l3 21l-4 11l3 15l-1 11l2 17l-3 30l-1 5l17 -5z" />
    <glyph glyph-name="l" unicode="l" horiz-adv-x="333" 
d="M183 664l3 -16l-4 -14l3 -13v-33l-2 -15l1 -13v-19l-2 -25l4 -15v-16l-3 -17l1 -16v-75l2 -31l-3 -24v-18l3 -32l-1 -10l-3 -34l4 -13l-2 -29v-59l16 -19l11 2l28 -4h28l29 -4l6 -40l2 -32l-6 -25l-28 -5h-18l-28 2l-13 -3l-29 3l-30 -5l-31 3h-39l-6 37v10l-3 16l3 18
l-3 14v16l2 15v25l-3 30v51l4 14l-4 27v34l4 29l-4 31l3 15l-1 13v89l2 33l-2 11l2 29l-2 18l1 15l-2 28l5 28v48l43 6l17 -4h41zM218 634l3 -16l-4 -14l3 -13v-33l-2 -15l1 -13v-19l-2 -25l4 -15v-16l-3 -17l1 -16v-75l2 -31l-3 -24v-18l3 -32l-1 -10l-3 -34l4 -13l-2 -29
v-32l-6 1q-1 0 -2.5 -0.5t-3.5 -0.5l-8 9v53l2 33l-4 11l3 31l1 12l-3 32v17l3 22l-2 33v75q0 3 -0.5 6t-0.5 7l3 17v22l-4 13l2 24v19l-1 13l2 15v37l-2 10l4 11l-4 20h16zM114 -15h6l32 -3l28 5l33 -4l13 4l26 -2h20l39 6l8 35l-2 38l-2 10l16 -2l6 -40l2 -32l-6 -25
l-28 -5h-18l-28 2l-13 -3l-29 3l-30 -5l-31 3h-39z" />
    <glyph glyph-name="m" unicode="m" horiz-adv-x="598" 
d="M187 674l3 -19l7 -11l5 -30l10 -28l2 -13l9 -29l3 -17l6 -31l10 -28l5 -30l12 -27v-15l7 -9v-21l6 -14l6 -28l10 -29l2 -11l7 -18l7 3l7 28l2 16l4 12l6 27l12 34l1 13l6 28l8 14l3 13v18l5 9l4 15l7 14l6 29l6 33l7 12l3 14v19l5 12l10 31l16 38l26 -2l24 2l45 -7l5 -24
l2 -31l-4 -33l3 -27v-60l-3 -33l4 -15l-4 -11l4 -16l-2 -19l2 -29l-4 -31l2 -31l-2 -24v-65l1 -13v-17l2 -11l-2 -20l3 -11v-64l-3 -14l3 -11l-4 -16v-17l3 -17l-4 -29l-32 -6h-10l-16 6l-14 -5l-28 8l-6 44l2 14l-2 14l2 22l-2 13v30l2 30l-2 15v34l3 9l-2 19l1 12v21l-2 9
v19l-2 3l-4 -20l-1 -16l-7 -24v-19l-7 -10v-20l-5 -10l-5 -16v-27l-3 -17l-6 -14v-16l-6 -18v-11l-7 -31l-12 -40l-27 -6l-16 1l-29 -2l-27 10l-9 20v17l-9 28l-3 29l-6 14l-3 21l-4 13l-2 15l-3 27l-5 14l-3 17v13l-10 28v18l-4 13l-3 19l-5 -7l4 -9v-16l-3 -18v-27l3 -19
v-27l-4 -20l3 -13l-3 -19l3 -28v-30l-3 -17l3 -15l-6 -40l-29 -10l-11 2h-29l-28 6l-6 31l-2 25l4 31v47l-4 15l3 16v30l-3 30l2 10l-1 15v19l3 28l-4 13v95l3 25l-3 15v18l3 18l1 11v29l-4 20v45l3 11l-3 16l4 15l-3 16l9 47l25 4l29 -4h39zM453 -17q3 0 7 2l14 -4h16l43 8
l5 43l-3 19v13l5 17q-1 1 -1.5 4.5t-1.5 5.5l2 11v70l-3 11l2 18l-2 11v17l-1 13v65l2 24q0 7 -1 14.5t-1 15.5l4 31l-2 30l2 22l-4 13l5 10l-5 17l3 31v63l-3 25l4 32l-2 28l15 -2l5 -24l2 -31l-4 -33l3 -27v-60l-3 -33l4 -15l-4 -11l4 -16l-2 -19l2 -29l-4 -31l2 -31
l-2 -24v-65l1 -13v-17l2 -11l-2 -20l3 -11v-64l-3 -14l3 -11l-4 -16v-17l3 -17l-4 -29l-32 -6h-10l-16 6l-14 -5l-28 8zM281 -17l24 1l19 -1l35 8l17 56l6 25v11l6 19v15l7 19l2 12v27l2 6l1 -9l-2 -30v-30l2 -13l-2 -22l2 -14l-2 -16l1 -12l-4 -21l-12 -40l-27 -6l-16 1
l-29 -2l-27 10zM113 -15h24l13 -2l41 14l7 52l-2 14l2 14v35l-3 26l4 20l1 -13l4 -13l3 -20l6 -16l3 -26l2 -7v-13l-3 -17l3 -15l-6 -40l-29 -10l-11 2h-29l-28 6zM222 644l3 -19l7 -11l5 -30l10 -28l2 -13l9 -29l3 -17l6 -31l10 -28l5 -30l12 -27v-15l7 -9v-21l2 -5l-1 -3
v1l-4 -12q0 -1 -0.5 -2t-0.5 -3l-5 17l1 -2l-6 28l-6 15v20l-7 10v15l-12 27l-5 29l-11 30l1 -2l-6 31l-3 14q-2 7 -4.5 16.5t-4.5 16.5l-2 11q-2 5 -5 13t-5 14l-5 33l-7 11l-2 8h7z" />
    <glyph glyph-name="n" unicode="n" horiz-adv-x="492" 
d="M187 672l6 -11l3 -17l9 -12v-17l11 -27l10 -27l9 -33l5 -12l1 -11l6 -16l14 -42l10 -27l3 -19l11 -27l2 -15l12 -30l1 -14h4l4 36l-3 13v63l3 24l-3 20l3 13l-4 12l3 15v36l-3 10l2 18l-2 11v36l4 27l-1 12l7 32l25 7l15 2l16 -3l11 3l28 -6l6 -31v-16l3 -31l-3 -15
l2 -11v-36l-2 -15l3 -11v-29l-4 -17v-27l4 -18l-1 -12v-21l-3 -13v-17l3 -29l-3 -11l3 -32l-1 -13l2 -14l-1 -16v-75l-3 -20l4 -28l-2 -11l2 -19l-3 -16l1 -13l-2 -13l4 -16l-5 -15v-29l-31 -5h-14l-17 -5l-12 1l-28 8l-17 38l-7 29l-7 25l-7 12l-3 17l-6 12l-4 19l-5 13
l-3 15l-11 27l-9 26l-7 27l-8 31l-8 14l-5 27l-6 17l-6 11l-3 18l-6 -2l3 -17l-4 -14l3 -13v-46l-3 -29l4 -31l-4 -16l2 -17l-2 -11l4 -17l-2 -12l2 -19l-4 -27v-49l3 -25l-5 -36h-31l-14 -3h-28l-31 5v47l-3 13l2 13v93l-3 26v36l2 10v17l2 16l-3 30v17l2 28l-2 14l2 28
l-3 35l2 15v70l-2 33l3 27l-3 14v32l4 33l-4 15l7 31l30 5l12 -1l18 -5l12 6l29 -6zM343 -18l11 -1l15 5h14l45 6v40l6 18l-5 17l2 12q0 2 -0.5 4.5t-0.5 5.5l3 16l-2 22l2 13l-4 25l3 19v77l1 16l-2 14l1 14l-3 30l3 10l-3 33v11l3 13v25l1 14l-4 16v26l4 15v34l-3 11l2 13
v36q0 1 -1 4t-1 5l3 15l-3 34v19l14 -3l6 -31v-16l3 -31l-3 -15l2 -11v-36l-2 -15l3 -11v-29l-4 -17v-27l4 -18l-1 -12v-21l-3 -13v-17l3 -29l-3 -11l3 -32l-1 -13l2 -14l-1 -16v-75l-3 -20l4 -28l-2 -11l2 -19l-3 -16l1 -13l-2 -13l4 -16l-5 -15v-29l-31 -5h-14l-17 -5
l-12 1l-28 8zM111 -26v10h28l14 3h41l6 52l-3 26v47l4 25l-2 21l2 15l-4 15l2 10q0 3 -1 7.5t-1 8.5l4 15l-4 31l3 29v6l2 -3l8 -30l7 -25v-5l4 -31l-4 -16l2 -17l-2 -11l4 -17l-2 -12l2 -19l-4 -27v-49l3 -25l-5 -36h-31l-14 -3h-28zM222 642l6 -11l3 -17l9 -12v-17l11 -27
l10 -27l9 -33l5 -12l1 -11l6 -16l8 -26v-33q-2 4 -2 6l1 -3l-3 19l-11 30v-1l-16 49q-1 2 -2 4.5t-1 4.5l-1 11l-6 12l-9 33l-10 28l-10 24v20l-10 13l-2 15l-2 3l9 -2z" />
    <glyph glyph-name="o" unicode="o" horiz-adv-x="445" 
d="M63 577l7 30l6 13l10 13l6 16l7 10l14 7l9 11l14 10l28 15h15l11 7l16 5l45 -5l17 -5l14 -1l28 -17l23 -17l9 -14l11 -9l5 -11l10 -15l4 -15l10 -24v-47l3 -13v-20l-3 -29l4 -11v-19l-4 -26l4 -19l-4 -30l3 -13l-3 -14l4 -11v-48l-4 -11l4 -17v-74l-3 -15l2 -33l-7 -26
l-11 -26l-15 -29l-8 -10l-23 -19l-12 -13l-41 -12l-33 -11l-27 7h-32l-15 7l-27 12l-22 17l-22 20l-12 25l-15 32l-4 25v34l2 11l-3 21v26l2 32l-3 14l2 10l-2 19v30l3 14l-1 11v65l2 9l-3 18l2 13l-1 16v18l-2 10v15l5 47zM176 120l12 -14l16 -4l30 -3l12 4l15 9l7 7l8 15
v26l-4 20l3 30l-2 12l2 17l-3 28l3 27v34l-2 11v34l3 28l-4 10l2 21l-1 12l3 29l-2 31v32l-5 38l-7 14l-13 10l-12 4h-27l-14 -10l-20 -14l-6 -15v-29l-2 -13l1 -15l-2 -29l3 -21l-1 -9l2 -19l-3 -13l2 -27l-2 -18l3 -12l-2 -14v-35l2 -11l-3 -33l1 -13l-2 -31l4 -28l-1 -14
v-47zM178 -23h27l29 -7l38 12l47 14l13 14h-1l23 19l13 17l14 27l13 33l6 21q0 7 -1 17.5t-1 18.5l3 13v80l-4 14l4 8v53l-3 8l3 14l-4 17l4 28l-4 18l4 24v23q-1 1 -2 4t-2 5l3 27v26l-3 13v45l-11 27l1 -2l-4 11l5 -3l5 -11l10 -15l4 -15l10 -24v-47l3 -13v-20l-3 -29
l4 -11v-19l-4 -26l4 -19l-4 -30l3 -13l-3 -14l4 -11v-48l-4 -11l4 -17v-74l-3 -15l2 -33l-7 -26l-11 -26l-15 -29l-8 -10l-23 -19l-12 -13l-41 -12l-33 -11l-27 7h-32l-15 7zM185 179l1 16l-4 26l2 31q0 2 -0.5 5.5t-0.5 6.5l3 33l-2 12v35l2 18l-3 12l2 14q0 5 -1 11.5
t-1 11.5l3 13l-2 23l1 11l-3 19l2 29l-1 15l2 13v25q2 3 2 5t1 5l21 14l5 4h19l11 -4l7 -5l3 -5v-1h-9l-14 -10l-20 -14l-6 -15v-29l-2 -13l1 -15l-2 -29l3 -21l-1 -9l2 -19l-3 -13l2 -27l-2 -18l3 -12l-2 -14v-35l2 -11l-3 -33l1 -13l-2 -31l4 -28l-1 -14v-32q-2 0 -4.5 1
t-4.5 2l-4.5 4.5t-3.5 4.5l-3 6v44z" />
    <glyph glyph-name="p" unicode="p" horiz-adv-x="433" 
d="M274 698l12 -6l16 -5l12 -9l38 -23l10 -16l12 -27l10 -14l2 -12l7 -11l4 -19l5 -28l-2 -19l3 -31l-1 -10l-5 -33l-6 -12l-2 -16l-8 -12l-2 -19l-9 -14l-9 -7l-11 -17l-10 -10l-25 -15l-27 -13l-12 -2h-19l-29 -5h-31l-13 -16l2 -27l-2 -19v-25l2 -31l-4 -33l4 -17l-3 -11
v-21l3 -14l-4 -13l2 -18l-3 -46l-29 -5l-16 -1l-13 1h-17l-24 6l-8 31l2 17v28l-4 18l3 27l-3 17l4 11l-2 29v35l-2 12v32l4 32l-1 13v30l-3 12l3 19v121l-1 11v18l-2 25l3 20v13l-3 17l4 25l-3 18l3 13l-1 16l4 31l30 2l13 5h31l31 -2l13 -3l17 5l47 -4zM269 412l15 25
l8 33l-2 13v45l-2 13l-5 10l-4 19l-9 5l-12 12h-29l-16 4l-12 -2l-18 -13l3 -20l-4 -13v-15l4 -34l-2 -15l2 -14l-4 -17v-31l16 -14h18l40 7zM114 -18h9l13 -1l18 1l41 6l4 59q0 4 -1 7.5t-1 7.5l5 16l-4 19v14l4 14l-5 18l4 31l-2 32v25l2 19q0 6 -1 11t-1 11l5 6h26l27 5
h19l16 2l30 15l29 17l10 10q2 3 6.5 9.5t6.5 10.5l11 10l9 14q0 4 0.5 9.5t1.5 10.5l8 13q0 3 1 7.5t1 8.5l6 14l5 33l1 12l-3 31l2 20l-5 28l-4 21l-8 11l-1 13l-12 17l-3 7l3 -2l10 -16l12 -27l10 -14l2 -12l7 -11l4 -19l5 -28l-2 -19l3 -31l-1 -10l-5 -33l-6 -12l-2 -16
l-8 -12l-2 -19l-9 -14l-9 -7l-11 -17l-10 -10l-25 -15l-27 -13l-12 -2h-19l-29 -5h-31l-13 -16l2 -27l-2 -19v-25l2 -31l-4 -33l4 -17l-3 -11v-21l3 -14l-4 -13l2 -18l-3 -46l-29 -5l-16 -1l-13 1h-17l-24 6zM217 418h-14l-3 3l-3 3v23l4 15l-2 17l2 16l-4 34v10l5 15l-3 16
l7 5q2 1 6 1l14 -4h25l11 -10q-1 0 3 -2v-3h-1l-16 4l-12 -2l-18 -13l3 -20l-4 -13v-15l4 -34l-2 -15l2 -14z" />
    <glyph glyph-name="q" unicode="q" horiz-adv-x="516" 
d="M59 543l5 18l10 29l11 27l7 11l18 25l22 15l24 21l28 12l13 -1l16 6l29 6l30 -4l17 2l15 -4l28 -10l26 -7l22 -21l14 -5l11 -10l17 -23l8 -17l13 -24l9 -26v-16l5 -44l-2 -21l2 -15l-4 -27l3 -34v-42l-2 -19v-90l3 -28l-4 -16l3 -13l-3 -48l-4 -25l-8 -16l4 -29l10 -9
l5 -13l17 -19l13 -30l-33 -26l-18 -19l-29 -13l-22 20l-11 15l-7 16l-25 6l-14 -6l-12 -8l-18 -2l-28 -2l-43 -4l-15 7l-15 1l-15 9l-12 -1l-16 12l-12 3l-22 21l-14 7l-14 23l-11 11l-8 18l-9 27l-7 27l2 15l-4 46l3 27l-4 19l2 17v28l-1 16v46l2 13v29l-2 30l3 19l-4 11
l5 15v47zM176 151l2 -11l13 -18l23 -16l13 -6l16 1l26 -4l17 4l14 7l27 15l9 15l9 27l-2 31l4 16l-4 13v51l4 13v60l-3 18l3 15v10l-4 16v34l3 26v65l-9 26l-13 12l-21 24l-13 6h-50l-25 -12l-17 -2l-7 -14l-13 -9l-5 -19l-5 -46l2 -15v-32l-3 -9l4 -22l-4 -12l3 -15l-1 -15
l2 -13l-4 -15v-75l4 -16v-35l-3 -15l3 -15v-32zM186 198l-3 12l3 12v41l-4 14v73l4 13l-2 16l1 18l-2 11l4 11q-1 5 -2.5 11t-2.5 11l3 8v35q0 3 -1 6.5t-1 7.5q1 11 2.5 22.5t2.5 22.5l3 12l12 9l2 4t3 5l10 1l25 12h44l8 -4l9 -11h-29l-25 -12l-17 -2l-7 -14l-13 -9
l-5 -19l-5 -46l2 -15v-32l-3 -9l4 -22l-4 -12l3 -15l-1 -15l2 -13l-4 -15v-75l4 -16v-35l-3 -15l3 -15v-32l2 -5l-7 5q-2 4 -4.5 6t-4.5 5l-1 11l-5 12v31zM476 79l2 -19l-4 5l-5 14q-2 1 -4.5 3.5l-4.5 4.5q-1 6 -2 10t-2 9l8 14l4 28l3 53l-2 12l3 13l-3 31v88l2 19v43
l-3 33l4 25l-2 17l2 21q-1 11 -2.5 22.5t-2.5 22.5v17l-10 29l-12 22l12 -16l8 -17l13 -24l9 -26v-16l5 -44l-2 -21l2 -15l-4 -27l3 -34v-42l-2 -19v-90l3 -28l-4 -16l3 -13l-3 -48l-4 -25zM424 -59l25 11l19 20l40 32l-7 17l11 -12l13 -30l-33 -26l-18 -19l-29 -13z
M198 -21q3 0 6.5 -0.5t6.5 -0.5l16 -7l47 4h-1l28 2l21 2l16 10q1 0 3 1.5t3 1.5l15 -3l4 -10l5 -6l-2 -1l-12 -8l-18 -2l-28 -2l-43 -4l-15 7l-15 1l-15 9l-12 -1zM179 -12h2l3 -2l-4 1z" />
    <glyph glyph-name="r" unicode="r" horiz-adv-x="471" 
d="M284 693h12l18 -6l22 -17l15 -4l9 -15l12 -9l16 -26l2 -14l8 -17l9 -27v-17l7 -26l-4 -31v-35l-5 -11l-7 -31l-5 -9l-9 -26l-18 -24l-2 -23l14 -8l8 -11l9 -32l8 -25l-4 -31l4 -30l-2 -13l2 -17l-3 -14l-1 -16l6 -19v-95l-4 -8l-30 -8l-11 1l-15 -3h-14l-22 6l-13 17
l-5 35l3 13l-5 29l4 20l-3 29l3 28l-3 31l1 16v28l-16 32l-18 10l-56 4l-18 -15l1 -16l-2 -16v-62l2 -13v-33l-2 -12l2 -18l-2 -13l4 -15v-34l-7 -42l-27 -9l-15 6l-28 -5l-28 5l-8 31v47l2 27l-3 15v14l4 19l-4 26l3 18l-2 13l3 34l-3 26l2 20l-3 9l4 32l-4 14v107l2 28
l-2 29l4 15v20l-4 27l3 19l-2 27l2 13v18l-3 14l8 33l44 5l13 -3l15 2h30l12 -5l17 3l15 -2l41 3zM281 416l8 12l7 24l8 31v25l-6 19l-4 27l-8 15l-18 19h-43l-26 -2l-17 -14l4 -16v-15l-3 -11l3 -36l-4 -15v-31l4 -15l-2 -11l15 -18l27 3l12 -2l31 3zM113 -17l21 4l16 -7
l43 14l8 51v39l-4 13l2 12l-2 18l2 12v33l-2 13v62l2 16q0 2 -0.5 4t-0.5 4q0 1 3 3.5t6 4.5q14 -1 23.5 -2t23.5 -2l10 -6l3 -8l-31 3l-18 -15l1 -16l-2 -16v-62l2 -13v-33l-2 -12l2 -18l-2 -13l4 -15v-34l-7 -42l-27 -9l-15 6l-28 -5l-28 5zM337 -19h11l13 3l13 -1l37 9
l9 19v100l-6 20q0 2 0.5 4.5t0.5 4.5l3 14l-2 21l2 14l-4 28l4 34l-9 27l-4 13l8 -4l8 -11l9 -32l8 -25l-4 -31l4 -30l-2 -13l2 -17l-3 -14l-1 -16l6 -19v-95l-4 -8l-30 -8l-11 1l-15 -3h-14l-22 6zM400 308l-1 4l-12 17l-8 4q0 6 2 10l16 21l10 29l6 13l7 29l-1 -2l6 14v36
l4 35l-7 27v15l-10 30l-8 17l-1 7l4 -2l16 -26l2 -14l8 -17l9 -27v-17l7 -26l-4 -31v-35l-5 -11l-7 -31l-5 -9l-9 -26l-18 -24zM217 421l-11 -1l-6 7l1 9l-4 13v29l4 14l-3 37l3 9v21q0 4 -2 8l5 4l21 2h36q2 -2 6.5 -7t6.5 -7v-1h-14l-26 -2l-17 -14l4 -16v-15l-3 -11
l3 -36l-4 -15v-28z" />
    <glyph glyph-name="s" unicode="s" horiz-adv-x="410" 
d="M254 499v47l-5 14v19l-14 24l-14 7h-34l-11 -7l-8 -15l-8 -9l-4 -19v-76l9 -14l4 -13l12 -9l10 -14l11 -6l7 -12l36 -25l11 -13l11 -8l10 -12l13 -11l20 -20l18 -27l10 -11l13 -28l5 -21l10 -31v-30l-2 -26l-6 -31l-3 -31l-13 -30l-13 -23l-13 -12l-9 -13l-14 -2l-29 -17
l-28 -7h-64l-14 7l-12 -3l-15 11l-15 5l-22 14l-18 22l-6 12l-13 34l-9 30l2 17l-4 13l-1 15v41l4 23l28 10h31l13 -5l29 -3l7 -30l-3 -16v-28l4 -16v-20l7 -13l8 -8l17 -7h27l16 6l8 10l5 16l8 10l-3 20l4 24l-2 31l-10 13l-14 28l-9 12l-14 13l-19 23l-24 12l-10 13
l-24 16l-21 23l-10 18l-20 21l-5 14l-10 16l-13 26v16l-7 16v30l3 15l-2 11l5 34l5 16l1 14l8 17l12 25l15 23l11 11l16 4l12 10l12 6l16 2h19l14 7l47 -7h27l31 -15l11 -10l21 -18l8 -13l11 -31l11 -26l2 -32l6 -32l-3 -9v-30l-2 -21l-32 -10l-11 4l-15 -4l-13 2l-31 10z
M152 -23q2 0 2.5 0.5t2.5 0.5l14 -6h68l29 7l29 17l17 2l14 19l-1 -2l12 11l18 31l13 30l3 34v-2l6 31l2 29v31l-11 34l1 -2l-5 24l7 -7l13 -28l5 -21l10 -31v-30l-2 -26l-6 -31l-3 -31l-13 -30l-13 -23l-13 -12l-9 -13l-14 -2l-29 -17l-28 -7h-64l-14 7l-12 -3l-15 11z
M292 446l13 -1l12 4l9 -5l49 15l2 32v27l4 12l-7 33l-2 33l-12 29v-1l-6 17l8 -7l8 -13l11 -31l11 -26l2 -32l6 -32l-3 -9v-30l-2 -21l-32 -10l-11 4l-15 -4l-13 2l-31 10zM191 459q-2 1 -4 2.5t-4 3.5l-4 11q-2 2 -4 6t-4 7v71l4 15l11 17v1l3 2h29q1 -2 6 -3
q2 -3 3.5 -6.5t3.5 -5.5h-9l-11 -7l-8 -15l-8 -9l-4 -19v-71zM193 107l-10 4q-2 1 -3 2q-2 1 -2.5 2t-1.5 2l-3 6v20l-4 14v24l4 19l-1 1l13 -1l7 -30l-3 -16v-28l4 -16v-3z" />
    <glyph glyph-name="t" unicode="t" horiz-adv-x="380" 
d="M339 665v-29l-7 -44l-30 -3l-14 3l-12 -1l-16 -5l-17 -13l3 -27v-35l-4 -30v-56l3 -19v-57l-3 -13l3 -16l-3 -18l4 -14l-4 -17l2 -14v-27l2 -30l-3 -17l2 -27v-33l-3 -17l3 -11l1 -14l-2 -14v-36l-3 -27l-30 -6h-17l-10 4l-17 -2l-27 2l-8 30l2 14v34l-2 11l4 30l-2 21
l1 12l-3 15l4 27v21l-3 15l3 14l-3 13l2 29l-3 18l2 11l-1 15l2 29v93l-2 30l2 12l-3 16v33l3 14l-3 17l-15 12l-14 -2l-16 5l-12 -5l-32 10l-4 29l2 12l-3 11v19l7 24l46 9l16 -3h29l31 5h31l15 -5l14 3l18 -3h29l31 5l28 -7zM374 635v-29l-7 -44l-30 -3l-14 3l-12 -1
l-16 -5l-17 -13l3 -27v-35l-4 -30v-56l3 -19v-57l-3 -13l3 -16l-3 -18l4 -14l-4 -17l2 -14v-27l2 -30l-3 -17l2 -27v-33l-3 -17l3 -11l1 -14l-2 -14v-36l-3 -27l-30 -6h-17l-10 4l-17 -2l-27 2l-4 14q3 0 5.5 0.5t5.5 0.5l9 -4h23l41 8l4 38v38l2 14l-1 16q-1 2 -1 4t-1 5
l2 14v36q0 6 -1 12t-1 12l3 17l-2 33v27q0 2 -1 6t-1 6l5 20l-5 14l3 17q-1 2 -1 6t-1 8l2 11v63l-3 19v53l4 30v38l-2 18l8 6l12 4q1 0 2.5 0.5t2.5 0.5l15 -3l46 4l9 56v34l14 -3zM77 570q6 4 10 5l13 -4q2 0 6 0.5t6 1.5l6 -5q1 -3 0.5 -5t-0.5 -4l-8 -3l-32 10z" />
    <glyph glyph-name="u" unicode="u" horiz-adv-x="454" 
d="M182 661l2 -15v-44l-2 -11l4 -17l-3 -14l3 -18v-28l-3 -18l3 -9v-31l-4 -19l4 -28v-31l-3 -18l2 -24l-3 -21l4 -9v-51l-2 -26v-33l2 -28l-4 -32l7 -26l12 -4l10 -6h27l26 12l6 27l-4 16l3 13v29l-3 17l4 11l-4 15v48l2 16l-2 30l2 14v17l2 30l-4 28l3 17v42l-2 19l2 13
v18l-2 26l2 15v19l-3 29v29l4 13l5 31l39 7l17 -5l12 2l33 -3v-47l4 -16v-14l-4 -31v-61l2 -9l-2 -20l4 -30l-3 -12v-34l3 -30l-4 -12v-17l3 -12v-20l-3 -30l3 -27v-32l-3 -16l4 -12l-2 -13l2 -18l-2 -16l2 -11l-2 -18v-33l-4 -8l-5 -21l-13 -24l-20 -20l-8 -13l-16 -6
l-26 -15l-16 -2l-15 -7l-44 -3l-13 6l-15 -1l-14 5l-27 14l-13 13l-14 6l-10 15l-10 6l-14 29l-5 27l-4 32v47l4 12v18l-3 15v57l3 17l-3 17l2 14l-3 30l2 11l-1 16l3 35l-2 14l2 13l-3 17l2 14v27l-3 15l4 36l-4 28l4 17l-1 14v26l-3 20l9 26l25 9l30 -4l16 3l26 -8z
M184 -25q4 1 11 1l12 -6l52 3l15 7l17 2q5 4 14 8.5t15 8.5l19 7l10 18l-2 -4l20 20l17 32q1 5 2.5 10.5t2.5 10.5l3 7l1 37l2 18l-2 11l2 16l-2 18l2 17l-3 8l2 13v37l-3 25l3 29v25l-3 12v9l4 13l-3 34v29l3 13l-4 33l2 20l-2 9v60l4 31v18l-4 14v18l20 -2v-47l4 -16v-14
l-4 -31v-61l2 -9l-2 -20l4 -30l-3 -12v-34l3 -30l-4 -12v-17l3 -12v-20l-3 -30l3 -27v-32l-3 -16l4 -12l-2 -13l2 -18l-2 -16l2 -11l-2 -18v-33l-4 -8l-5 -21l-13 -24l-20 -20l-8 -13l-16 -6l-26 -15l-16 -2l-15 -7l-44 -3l-13 6l-15 -1l-14 5zM217 631l2 -15v-44l-2 -11
l4 -17l-3 -14l3 -18v-28l-3 -18l3 -9v-31l-4 -19l4 -28v-31l-3 -18l2 -24l-3 -21l4 -9v-51l-2 -26v-33l2 -28l-3 -23h-4l-12 6l-5 19l4 27l-2 29v33l2 26v53l-3 9l2 17q0 5 -1 13t-1 13l3 16v35l-4 26l4 17v35q-1 1 -1.5 3.5t-1.5 4.5l3 15v32l-2 14l3 15q-1 3 -2.5 8.5
t-2.5 10.5l2 10v44l-2 16l-1 6l17 -5z" />
    <glyph glyph-name="v" unicode="v" horiz-adv-x="437" 
d="M146 668l-1 -12l3 -14l7 -14l1 -16l4 -15v-13l7 -30l9 -33l3 -27l5 -30l5 -13l2 -19l5 -13v-11l3 -17l6 -12v-20l7 -26l2 -16l6 -1l5 30l10 33l2 13l4 11l6 34l1 15l5 9l3 34l6 15l-1 13l4 18l6 9l-1 16l8 16v17l4 25l6 34l13 35l28 3l20 6l15 -5h30l8 -13l-2 -26l-6 -30
l-6 -14l-2 -31l-6 -10v-18l-2 -11l-6 -16l-3 -17l1 -10l-3 -21l-6 -12l-2 -11v-17l-5 -17l-1 -11l-5 -19l-5 -10l2 -20l-7 -13l-3 -30l-3 -9l-4 -29l-6 -20l-7 -30l2 -15l-7 -9l1 -15l-3 -19l-8 -10v-35l-7 -10l1 -13l-4 -18l-5 -11l-4 -33l-13 -40l-26 -7l-17 4l-13 -2
l-42 6l-12 27l-1 11l-5 13l-6 33l-2 31l-7 11l1 16l-5 14l-4 29l-8 28v19l-5 10l-5 15v20l-4 8v20l-6 10l-3 16l-6 30v13l-6 15l1 16l-7 14v16l-3 17l-5 11v14l-6 14l-2 14v20l-8 29l-7 29l2 12l-3 15l-6 12v18l-5 17l-2 27l9 9h26l19 2l45 -7zM200 -14l10 -2q2 0 6.5 1
t7.5 1l18 -5l37 10l17 52l4 31l5 10l4 20q0 2 -0.5 5t-0.5 6l7 12v33l8 12l3 19q0 2 -0.5 6t-0.5 7l7 11q0 3 -1 7.5t-1 8.5l7 28l6 21l4 28l3 10l3 28l7 13q0 5 -1 10.5t-1 10.5l5 11l5 19q0 2 0.5 6t0.5 6l5 15v20q0 5 1 7l7 13l3 22q0 2 -0.5 4.5t-0.5 4.5l2 15l7 17
l2 15v14l6 12q0 7 1 14.5t1 15.5l7 19l5 25v12h14l8 -13l-2 -26l-6 -30l-6 -14l-2 -31l-6 -10v-18l-2 -11l-6 -16l-3 -17l1 -10l-3 -21l-6 -12l-2 -11v-17l-5 -17l-1 -11l-5 -19l-5 -10l2 -20l-7 -13l-3 -30l-3 -9l-4 -29l-6 -20l-7 -30l2 -15l-7 -9l1 -15l-3 -19l-8 -10
v-35l-7 -10l1 -13l-4 -18l-5 -11l-4 -33l-13 -40l-26 -7l-17 4l-13 -2l-42 6zM181 638l-1 -12l3 -14l7 -14l1 -16l4 -15v-13l7 -30l9 -33l3 -27l5 -30l5 -13l1 -17l-3 -10q0 -2 -1 -5.5t-1 -6.5l-6 12l-3 17v12l-5 13l-2 19q-1 3 -2.5 6.5t-2.5 6.5v-3l-5 30l-3 25l-10 38
l1 -1l-7 28v15l-4 13l-1 18q-2 2 -3.5 6.5t-3.5 8.5l-3 14v4l9 -1z" />
    <glyph glyph-name="w" unicode="w" horiz-adv-x="609" 
d="M174 664v-26l3 -18l-2 -14l3 -15v-30l4 -17l-2 -18l2 -25l5 -34v-29l4 -33v-15l2 -11v-34l3 -13l3 -2l3 20l9 28v29l6 11l2 20l4 12l-1 16l5 11l1 14l6 17l5 32v11l10 28v14l4 15l5 32l5 12v20l12 25h58l13 -42l7 -27l4 -34l4 -11l1 -15l5 -15l4 -31l5 -27l7 -17l5 -27
l6 -32v-12l7 -28v-17l9 -29l5 -3l-3 21l4 9l3 31l-2 17l2 12v18l6 30v61l4 14l-2 18l3 11v20l5 31l-2 28l12 42l30 9l14 -5l17 3l33 -7l7 -33l-9 -31v-28l-4 -16l2 -12l-3 -29l-5 -34l-3 -29v-18l-3 -12l-5 -28l-2 -33l-4 -30v-12l-5 -31l-2 -30l-3 -30l-4 -27l-4 -36
l-7 -29l1 -16l-4 -24v-21l-6 -29l2 -16l-3 -12l-11 -40l-28 -10h-29l-26 9l-11 42l-6 27l-5 30l-1 16l-6 32l-5 9l-5 16l-2 16l-3 28l-6 19l1 12l-7 14l-5 34l-3 28l-5 14l-7 35h-6l-2 -21l-3 -26l-7 -17v-17l-5 -9v-18l-6 -17l-3 -15l-4 -29l-8 -32l-5 -25v-18l-5 -29
l-7 -18l1 -9l-4 -18l-5 -13l-2 -19l-11 -24l-24 -4h-31l-22 7l-12 28l-4 25l2 18l-3 32l-4 12l1 12l-5 20l1 12l-7 30l2 15l-5 14l2 17l-7 13v33l-4 16l-2 12v28l-7 50l-4 29l2 15l-2 13l-5 13l-2 20l2 11l-7 30v29l-6 15l2 18l-5 13l2 13l-5 21l-1 12v48l33 8l21 -4l13 2
l35 -6zM414 -18h24l39 14q2 10 6.5 23.5t6.5 23.5l3 12q0 3 -1 8t-1 9l6 29v24l4 22q0 3 -0.5 8t-0.5 9l7 26l4 39v-1l4 27l3 31q0 7 1 14.5t1 15.5l5 31v12l4 30q0 8 1 17t1 17l5 24l3 12v20l3 29l5 34l3 29q0 2 -1 6t-1 6l4 15v29l9 34l-1 5l14 -3l7 -33l-9 -31v-28
l-4 -16l2 -12l-3 -29l-5 -34l-3 -29v-18l-3 -12l-5 -28l-2 -33l-4 -30v-12l-5 -31l-2 -30l-3 -30l-4 -27l-4 -36l-7 -29l1 -16l-4 -24v-21l-6 -29l2 -16l-3 -12l-11 -40l-28 -10h-29l-26 9zM177 -15h24l33 5l15 36q0 2 0.5 8t1.5 9l4 11l5 22q0 2 -0.5 4t-0.5 4l7 19l5 29
v20q1 5 2.5 10.5t2.5 11.5l8 31l4 31v-1l3 14l6 17v19l5 9v17l1 3l2 -15l5 -35l7 -13l-1 -12v-1l-5 -15l-3 -15l-4 -29l-8 -32l-5 -25v-18l-5 -29l-7 -18l1 -9l-4 -18l-5 -13l-2 -19l-11 -24l-24 -4h-31l-22 7zM209 634v-26l3 -18l-2 -14l3 -15v-30l4 -17l-2 -12l-2 -8
q0 -3 -0.5 -7.5t-0.5 -7.5l-5 -10q0 -3 0.5 -7t0.5 -8l-4 -12q0 -2 -0.5 -5t-0.5 -6l-1 8v29q-1 8 -2.5 16.5t-2.5 16.5l-2 25l2 21l-4 15v32l-3 13l2 15l-3 16v28l13 -2zM406 492l4 -22v-1l-5 -25l-2 10l-5 28l-7 17q-1 6 -2.5 11.5t-2.5 12.5l-4 35q-1 3 -2.5 7t-2.5 6
l-1 14q-1 1 -2 4.5t-2 5.5l-4 38l-8 25l-3 9h11l13 -42l7 -27l4 -34l4 -11l1 -15l5 -15z" />
    <glyph glyph-name="x" unicode="x" horiz-adv-x="446" 
d="M166 669l8 -10l8 -28l13 -34l1 -15l9 -10l2 -16l11 -27l9 1l6 11l10 28l2 14l9 15l7 33l7 10l5 17l2 14l15 26h41l48 -5l8 -9l-8 -30l-8 -28l-6 -12l-10 -33l-9 -27l-9 -14l-2 -14l-6 -12l-3 -12l-7 -14l-6 -18l-3 -16l-6 -15l-12 -25l-2 -16l-13 -27v-26l9 -17l1 -15
l14 -24l5 -29l6 -14l9 -28l9 -15l6 -29l8 -19l6 -27l11 -27l4 -17l4 -9l13 -31l4 -26l-7 -12l-42 -10l-13 1l-25 8l-12 23l-5 15l-8 27l-12 28l-11 26l-8 29l-9 24l-9 16l-9 1l-6 -16l-1 -13l-11 -27l-7 -13l-4 -15l-12 -30l-10 -23l-9 -31l-9 -24l-27 -3l-25 -2l-30 7
l-5 12l3 29l9 27l8 11l1 15l6 19l6 11l11 32l1 14l14 26l1 16l8 10l2 20l11 24l10 32l10 24l4 20l-2 27l-8 30l-8 23l-10 29l-8 13l-2 15l-14 29l-1 13l-10 30l-13 27l-2 13l-9 16l-1 14l-12 28l-7 29l7 15l33 4l17 -5l16 5l24 -5zM330 -18l10 -1l49 11l12 24l-4 32l-14 33
v-1l-3 7l-4 14l-12 32l1 -2l-5 24l-10 24l1 -2l-7 32l-10 17l-8 25q-2 2 -2.5 5.5t-2.5 6.5l-5 29q-3 5 -7 11.5t-7 12.5l-1 17q-2 3 -4.5 7.5t-4.5 8.5v18l13 27q0 3 1 8t1 9l12 24l6 15l3 17q2 4 2.5 7.5t1.5 6.5l9 19l3 10l-2 -3l8 16q0 2 0.5 6t1.5 6l7 11l10 30l9 32
l8 15l8 28l3 13l17 -1l8 -9l-8 -30l-8 -28l-6 -12l-10 -33l-9 -27l-9 -14l-2 -14l-6 -12l-3 -12l-7 -14l-6 -18l-3 -16l-6 -15l-12 -25l-2 -16l-13 -27v-26l9 -17l1 -15l14 -24l5 -29l6 -14l9 -28l9 -15l6 -29l8 -19l6 -27l11 -27l4 -17l4 -9l13 -31l4 -26l-7 -12l-42 -10
l-13 1l-25 8zM96 -17l26 1l36 4l12 33l9 32v-2l10 23l13 32l4 16l6 10l11 30l5 -12l8 -27l1 -4l-4 -11l-7 -13l-4 -15l-12 -30l-10 -23l-9 -31l-9 -24l-27 -3l-25 -2l-30 7zM201 639l8 -10l8 -28l11 -29v-2l-6 -15v4l-2 20l-10 10v10l-14 37l1 -2l-8 29l-3 4l4 -1z" />
    <glyph glyph-name="y" unicode="y" horiz-adv-x="460" 
d="M152 671l5 -15l12 -24v-21l6 -8l6 -15l1 -16l12 -28l2 -19l8 -14l1 -10l6 -20l8 -29l6 -14h8l10 34l6 10l7 32l9 30l8 29l8 15v14l13 30l1 14l4 15l9 11l8 29h45l17 -5h29l10 -8l-14 -60l-8 -30l-9 -16v-10l-13 -33l-1 -13l-7 -18l-10 -25l-16 -62l-5 -9l-3 -18l-8 -11
v-19l-7 -13l-7 -29l-8 -16l-2 -16l-4 -9l-10 -49l-3 -41l2 -16v-82l2 -9l-3 -20l3 -26l-8 -33l-28 -3l-13 -5l-16 5l-39 3l-7 32l1 15l-2 15l2 32l-3 10l3 35l-4 16l3 28l-2 14l2 33l-3 32l-6 14l-10 25l-2 19l-12 23l-8 34l-6 10l-2 14l-8 30l-8 15l-5 19l-5 10l-5 29
l-6 13l-3 21l-12 28l-6 29l-12 30l-10 24l-5 34l13 11l27 -3l15 4l18 2l26 -7zM214 -12l4 -1l19 -6l15 6l39 4l10 46l-3 27l3 18l-2 11v82q0 3 -1 7.5t-1 7.5l3 41l10 47l-1 -2l5 12q0 2 0.5 7t1.5 7l8 15l7 31l7 12v20l8 12l3 17l5 9l8 31q2 8 4 15.5t4 15.5l-1 -2l10 25
l8 21q0 3 0.5 6.5t0.5 6.5l13 33v7l8 15l9 33l7 30l2 11h15l10 -8l-14 -60l-8 -30l-9 -16v-10l-13 -33l-1 -13l-7 -18l-10 -25l-16 -62l-5 -9l-3 -18l-8 -11v-19l-7 -13l-7 -29l-8 -16l-2 -16l-4 -9l-10 -49l-3 -41l2 -16v-82l2 -9l-3 -20l3 -26l-8 -33l-28 -3l-13 -5l-16 5
l-39 3zM187 641l5 -15l12 -24v-21l6 -8l6 -15l1 -16l12 -28l2 -19l3 -7v-2l-6 -11l-1 6l-7 23l-1 10l-8 15l-2 19l-12 28l-1 15l-8 21l-4 5v18l-12 24l-3 7l6 -1z" />
    <glyph glyph-name="z" unicode="z" horiz-adv-x="390" 
d="M330 664v-56l-5 -34l-6 -13l-3 -20l-5 -14l-7 -9l-3 -18l-5 -12l-10 -34l-9 -25l-7 -32l-5 -13l-9 -31l-8 -29l-11 -25l-2 -13l-9 -16l-5 -30l-8 -12l-8 -34l-9 -24l-6 -30l-9 -14l13 -14l14 -1h45l13 -5l15 6l16 -1l29 -5l5 -32l-4 -26v-13l-5 -33l-44 -4l-13 4l-19 -3
l-15 2l-29 -4l-13 3l-20 -3l-13 2l-29 2l-15 -4h-18l-29 7l-7 30v17l2 25l-2 14l5 17v19l4 14l10 26l13 33l7 28l6 13l1 16l13 32v14l13 28l6 30l8 10l8 34l1 13l8 16l2 10l11 33l2 15l13 23l2 20l10 29l2 11l-7 14l-17 2l-26 -2l-32 4l-13 -2l-43 8l-4 23l-4 30l7 40l30 5
h17l58 6l16 -3l18 3l12 -4l17 4h47l46 -6zM365 634v-56l-5 -34l-6 -13l-3 -20l-5 -14l-7 -9l-3 -18l-5 -12l-10 -34l-9 -25l-7 -32l-5 -13l-9 -31l-8 -29l-11 -25l-2 -13l-9 -16l-5 -30l-8 -12l-8 -34l-9 -24l-3 -14h-20q-2 0 -3.5 0.5t-3.5 0.5l-1 2l4 4l7 34l9 25l4 16
l4 16l8 12q1 7 2.5 14t2.5 15l9 16q0 3 1 7t1 8l11 26l4 14l4 14l-1 -1l9 31l6 13l7 33l7 21l11 37l6 13l2 16l9 14l4 11l2 19l7 13l5 37v58l-1 3l16 -2zM98 -18h17l13 4l28 -2l15 -2l17 2l11 -3l33 5l16 -2l16 2l11 -3l61 5l6 46v14l4 25l-1 5l16 -2l5 -32l-4 -26v-13
l-5 -33l-44 -4l-13 4l-19 -3l-15 2l-29 -4l-13 3l-20 -3l-13 2l-29 2l-15 -4h-18l-29 7zM98 576l8 -1q2 0 6.5 1t7.5 1l32 -4l27 2q2 0 3.5 -0.5t3.5 -0.5q0 -1 1 -1.5t1 -1.5q-2 -2 -2 -7l-2 -6l-28 4l-13 -2l-43 8z" />
    <glyph glyph-name="braceleft" unicode="{" horiz-adv-x="360" 
d="M255 668l-29 -18l-5 -6l-4 -34l-4 -13l3 -17l-2 -27l2 -13v-32l-3 -12l2 -15v-35l-3 -13l-2 -29l-7 -10l-4 -18l-21 -20l-12 -5l2 -15l17 -10l18 -17l3 -16l6 -15l4 -18l-3 -12l3 -33l-3 -28l3 -11l-2 -14l2 -19l-1 -9l2 -20l1 -14v-40l11 -9l10 -14l15 1l28 -13v-29
l3 -20l-8 -32l-31 -3l-27 7l-29 7l-29 13l-11 15l-11 7l-12 29l-13 23l-3 35v46l-3 31l3 17v31l-2 17l-4 43l-8 13l-11 8l-39 19l-5 40l6 41l28 9l8 12l14 4l6 14l3 25v110l3 13l1 15l-4 16l4 46l4 21l6 9l20 28l20 20l14 5l11 11l14 5l33 6l13 7l34 -5l5 -31v-17l-8 -34z
M300 703v21l-1 2l16 -2l5 -31v-17l-8 -34l-22 -4l-29 -18l-5 -6l-4 -34l-4 -13l3 -17l-2 -27l2 -13v-32l-3 -12l2 -15v-35l-3 -13l-2 -29l-7 -10l-4 -18l-21 -20l-4 -2l-13 13l-10 6l27 25l5 22l7 12q0 6 1 13t1 14l3 13v39q0 2 -1 5.5t-1 5.5l3 12v36l-2 13l2 30l-2 13l3 9
l4 34l1 1l22 13l31 6zM253 52h-7l-6 10l-7 6v32l-1 14l-2 20l1 9l-2 19l2 16l-3 9l3 27l-2 31l3 13l-5 25l-6 11l17 -15l3 -16l6 -15l4 -18l-3 -12l3 -33l-3 -28l3 -11l-2 -14l2 -19l-1 -9l2 -20l1 -14v-18zM197 -62l19 -5l28 -7l46 4l10 45l-3 23v6l20 -9v-29l3 -20l-8 -32
l-31 -3l-27 7l-29 7z" />
    <glyph glyph-name="bar" unicode="|" horiz-adv-x="320" 
d="M194 764v-30l-1 -16v-17l3 -27l-4 -13v-15l3 -18v-15l-3 -12l3 -19l-2 -32l3 -29l-3 -11l3 -19l-2 -12l2 -15v-31l-4 -34l3 -11v-44l-2 -15l2 -18l-1 -16l2 -26l-2 -21l2 -25l-4 -31l2 -16l-1 -16l3 -11l-3 -20v-28l2 -17l-2 -14l1 -15l2 -31l-4 -11l2 -33v-33l-6 -45
l-29 -4l-29 5l-6 30v34l-2 12l3 19l-3 14l4 12v47l-4 14l4 16l-3 16v11l3 32l-3 33l3 15l-4 13l3 32l-3 14l4 13l-2 17l2 12l-3 21l2 27l-3 27l4 21l-4 26v20l4 9l-2 15v20l-2 15l4 28l-4 12v30l4 18l-4 18l2 10l2 32l-4 17v13l4 29l-3 20l1 14l-2 14l10 33h29l27 -3z
M229 734v-30l-1 -16v-17l3 -27l-4 -13v-15l3 -18v-15l-3 -12l3 -19l-2 -32l3 -29l-3 -11l3 -19l-2 -12l2 -15v-31l-4 -34l3 -11v-44l-2 -15l2 -18l-1 -16l2 -26l-2 -21l2 -25l-4 -31l2 -16l-1 -16l3 -11l-3 -20v-28l2 -17l-2 -14l1 -15l2 -31l-4 -11l2 -33v-33l-6 -45
l-29 -4l-29 5l-2 11l38 4l8 57v35q0 8 -1 15.5t-1 15.5l4 11l-2 33l-1 15l2 14l-2 17v26l3 22q-1 1 -1.5 6t-1.5 7l1 14q0 3 -1 7t-1 8l4 31l-2 26l2 21l-2 26l1 16l-2 18l2 15v46l-3 11l4 31v32l-2 15l2 14l-3 17l3 9l-3 33l2 32l-2 15l2 10v21l-3 16v11l4 14l-3 32v15
l1 16v32l14 -1z" />
    <glyph glyph-name="braceright" unicode="}" horiz-adv-x="360" 
d="M110 756l17 -3h16l12 -8l32 -12l11 -7l9 -13l23 -21l10 -28l8 -32v-61l3 -11l-3 -17v-35l3 -25v-44l10 -29l12 -10l38 -16l5 -40l-7 -45l-24 -7l-27 -17l-8 -30l-2 -32v-62l3 -32l-4 -12l2 -33l-2 -15l-5 -27l-10 -13l-4 -19l-21 -23l-12 -9l-14 -5l-27 -13l-14 -2
l-29 -3h-32l-6 30l4 16v36l27 5l17 6l10 9l9 15l3 39v62l-2 13l4 12l-4 31l4 27v20l7 30l7 11l5 14l13 10l12 6l3 15l-15 3l-10 14l-6 13l-8 8l-6 26v17l-5 13v45l2 19l-2 15l3 11l-4 20l4 9l-4 35l4 13l-3 30l-23 17l-14 3l-25 15l-5 46l7 32h28zM111 -70h2l29 3l16 2
l27 13l16 6l19 14l22 24q1 4 2.5 10.5t2.5 11.5l10 13l5 30l2 17q0 8 -1 14.5t-1 14.5l4 13l-3 36v61q0 7 1 15.5t1 15.5q1 5 3 10.5t4 10.5l19 13l32 9l8 56l-2 18l17 -7l5 -40l-7 -45l-24 -7l-27 -17l-8 -30l-2 -32v-62l3 -32l-4 -12l2 -33l-2 -15l-5 -27l-10 -13l-4 -19
l-21 -23l-12 -9l-14 -5l-27 -13l-14 -2l-29 -3h-32zM286 411l-7 3l-5 4q-2 5 -4 11t-4 11v45l-3 25v30l4 20l-4 13v62l-8 29l-4 10l14 -12l10 -28l8 -32v-61l3 -11l-3 -17v-35l3 -25v-42z" />
    <glyph glyph-name="asciitilde" unicode="~" horiz-adv-x="386" 
d="M59 380l10 14l21 25l10 7l44 8l11 -6l14 -12l10 -4l13 -10l14 -5l24 -13l33 3l12 6l34 10l17 -24l4 -15l-15 -24l-9 -7l-23 -19l-13 -5l-14 -11l-26 3l-28 15l-13 11l-12 7l-9 8l-14 4l-34 3l-45 -23l-13 4l-7 17l-2 18zM240 284l20 -2l15 12l14 6l27 22l11 9l19 30
l-3 11l1 1l17 -24l4 -15l-15 -24l-9 -7l-23 -19l-13 -5l-14 -11l-26 3zM90 316l33 17l30 -2h-3l14 -4l5 -6l7 -4l-21 2l-45 -23l-13 4z" />
    <glyph glyph-name="uni00A0" unicode="&#xa0;" horiz-adv-x="0" 
 />
    <glyph glyph-name="exclamdown" unicode="&#xa1;" 
d="M65 38l4 27l-1 16l2 17l-1 14l2 13l-3 16v11l4 19l1 15l2 24v32l-3 14l3 32v61l4 11v14l3 36l-3 26l4 18v24l7 46l48 8l29 -5l12 -46l-2 -15v-47l3 -10v-19l2 -11l-3 -35l6 -24l1 -15v-65l2 -11l-4 -15l4 -12l-2 -20l2 -15l-1 -13l2 -13v-29l4 -17l-3 -12l5 -30v-21
l-7 -27l-28 -7l-18 2h-25l-46 8zM104 -13l11 -2h27l21 -2l38 9l9 37v25q-1 7 -2.5 13t-2.5 13l4 14q-1 3 -2.5 8.5t-2.5 10.5v28l-2 13l1 13l-2 15l2 24l-3 9l3 11l-2 14v65l-1 19l-5 23l2 31l-2 12v21q-1 1 -1.5 5t-1.5 6v44l2 15l-5 18l13 -2l12 -46l-2 -15v-47l3 -10v-19
l2 -11l-3 -35l6 -24l1 -15v-65l2 -11l-4 -15l4 -12l-2 -20l2 -15l-1 -13l2 -13v-29l4 -17l-3 -12l5 -30v-21l-7 -27l-28 -7l-18 2h-25l-46 8zM82 674l18 21l42 5l16 -6l19 -21l4 -13l3 -32l-15 -22l-23 -14h-33l-11 2l-9 14l-9 8l-19 13l13 32zM128 577h21l31 18l20 29
l-5 37l17 -18l4 -13l3 -32l-15 -22l-23 -14h-33l-11 2z" />
    <glyph glyph-name="cent" unicode="&#xa2;" horiz-adv-x="450" 
d="M242 691l19 -16l27 -5l27 -19l20 -15l11 -15l18 -20l7 -16l5 -28l7 -15v-41l-6 -26l-30 -8l-13 -1l-45 6l-6 29l-3 33l-3 12l-8 17l-12 4l-15 -3v-63l4 -19v-29l-3 -15l3 -29l-4 -32l1 -10v-20l3 -10l-4 -18v-44l3 -17l-2 -30v-34l3 -9l-4 -21l3 -12l-3 -13l16 -9l12 7
l9 18l1 15l5 26l3 30l30 5l13 -2l18 4l30 -5l4 -28l-3 -49l-3 -9l-6 -33l-9 -9l-15 -26l-9 -9l-25 -20l-10 -5l-30 -12l-16 -3l-12 -23l-8 -25l-21 -2v28l-17 23l-14 1l-25 9l-28 15l-19 23l-6 13l-9 8l-7 19l-11 27l-4 29v28l-3 15l3 27l-2 20l3 12v48l-3 29l3 15l-4 16
l3 12v33l-3 17l4 12l-4 17l1 14v46l5 18l1 11l5 17l5 8l13 29l22 19l8 12l12 9l12 6l30 14l12 -1l14 20l4 27l24 4zM181 156l6 -18l11 -8l16 4l2 15l-4 20l3 13l-3 16v27l4 36l-3 10v95l2 12v35l-3 29l2 12l2 32l-4 31l3 13v29l-15 13l-10 -12l-10 -17l-5 -16l-2 -30l4 -16
v-11l-4 -15v-19l3 -11l1 -16v-29l-3 -17l3 -30l-4 -32l2 -9v-35l-2 -10v-19l3 -31v-31zM251 -55v24l9 29l-2 -3l9 16l10 2l32 13h-1l12 6l31 24l7 7l7.5 12.5t7.5 13.5l12 12l7 38l3 10l3 51l16 -2l4 -28l-3 -49l-3 -9l-6 -33l-9 -9l-15 -26l-9 -9l-25 -20l-10 -5l-30 -12
l-16 -3l-12 -23l-8 -25zM277 245l1 -5h-4l-4 -43l-5 -25q0 -3 -0.5 -6.5t-0.5 -7.5l-3 -6l-4 13l4 20l-3 11v32l2 33l-3 17v41l4 18q-1 1 -1.5 5.5t-1.5 6.5v18q0 2 -0.5 4.5t-0.5 4.5l4 34l-3 28l3 12v34l-4 17v50h1l5 -11l2 -10l3 -34l8 -38l4 -1l1 -5v-29l-3 -15l3 -29
l-4 -32l1 -10v-20l3 -10l-4 -18v-44zM322 452l10 -1l18 1l40 10l8 35v48l-7 16l-4 23l12 -13l7 -16l5 -28l7 -15v-41l-6 -26l-30 -8l-13 -1l-45 6zM191 198l-3 31v18l2 10v35q0 2 -1 4t-1 4l4 33l-3 28l3 16v32l-1 18l-3 11v16l4 13v17l-4 14q0 7 1 13t1 13l4 13l6 10v-13
l-3 -14l4 -35l-2 -31l-2 -14l3 -29v-33l-2 -12v-97q0 -2 1 -5.5t2 -5.5l-4 -32v-31l2 -13l-3 -11l5 -22v-2h-2l-4 14l-4 8v29z" />
    <glyph glyph-name="sterling" unicode="&#xa3;" horiz-adv-x="475" 
d="M295 498l-2 17v30l-2 28l-9 12l-8 15l-25 11l-29 -3l-13 -4l-11 -14l-10 -27l2 -32l11 -41l12 -32l3 -27l7 -10l3 -33l9 -24l2 -30l17 -17h16l27 4l15 -1l35 -6v-39l-2 -33h-43l-18 -6l-27 2l-12 -15l-4 -27v-29l-5 -11l16 -17l12 -8l14 -5l13 -9l27 -10l16 -3l12 -4h28
l24 -4l14 -6l6 -28l-8 -38l-5 -10l-20 -21l-14 -5l-30 3l-14 5l-11 1l-14 4l-29 13l-13 2l-15 6l-13 2l-28 8l-29 4l-31 -8l-13 -11l-26 -7l-14 4l-8 10l-3 27l2 11l-2 14l4 19l14 20l5 11l11 9l5 19l11 26v15l6 14l1 14l-17 17l-32 4l-9 29l6 42l33 3l14 18l-5 13l-2 26
l-7 17l-3 15l-4 9l-5 33l-6 15l-9 24l-13 42v18l-3 12l2 14l2 33l5 13l8 8l5 17l22 24l21 19l10 6l16 1l14 11l12 -2l15 3l14 7l34 -6l30 -2l30 -5l25 -20l9 -4l15 -12l4 -14l17 -29l4 -11l6 -34l4 -30l-4 -33l3 -14l-4 -31l-33 -5l-13 3h-46zM274 143l-8 3l3 -2
q-2 1 -4.5 2.5t-4.5 3.5h1l-9 10l1 4q0 5 0.5 15.5t0.5 16.5l4 22l4 5l22 -2l17 6h57l2 48v12l20 -3v-39l-2 -33h-43l-18 -6l-27 2l-12 -15l-4 -27v-23zM268 334v-2h-9l-9 10l-2 24l-9 25l-3 34l-7 10l-3 27l-13 33l-10 39q0 8 -1 13.5t-1 13.5l9 23q1 2 2.5 3t2.5 3l9 3h-2
l26 3q2 -1 6.5 -2t7.5 -3l5 -12l-12 -1l-13 -4l-11 -14l-10 -27l2 -32l11 -41l12 -32l3 -27l7 -10l3 -33zM332 452h10l14 -3l50 6l5 48l-3 15l4 29l-4 35l-6 30l-5 16l-8 13l8 -6l4 -14l17 -29l4 -11l6 -34l4 -30l-4 -33l3 -14l-4 -31l-33 -5l-13 3h-46zM310 -18q2 0 5 -0.5
t6 -0.5l13 -5l38 -3l18 6l26 28l7 15l8 41l-1 3h1l14 -6l6 -28l-8 -38l-5 -10l-20 -21l-14 -5l-30 3l-14 5l-11 1l-14 4zM115 -2l19 4l13 11l27 8l26 -4h-1l28 -8q2 0 6 -1t6 -1l15 -6q2 0 6 -1t7 -1l29 -13l3 -1l-6 1l-15 6l-13 2l-28 8l-29 4l-31 -8l-13 -11l-26 -7l-14 4
l-8 10z" />
    <glyph glyph-name="currency" unicode="&#xa4;" horiz-adv-x="484" 
d="M80 410l5 31l6 12l5 16l10 14v20l-18 44l21 18l13 8l26 6l21 -21l10 -15l22 -13l10 2l43 -3l18 4l11 -3l26 14l5 9l24 30l29 -18l26 -21l-18 -37v-29l8 -9l8 -13l4 -18l5 -12l7 -27l-2 -15l5 -46l-6 -31l-4 -33l-8 -28l-15 -27l-2 -25l17 -41l-25 -20l-30 -13l-24 23
l-9 20l-19 12l-16 -3l-12 1h-27l-14 -3l-15 4l-21 -14l-11 -11l-22 -30l-27 11l-10 7l-18 19l17 43l-2 24l-15 24l-7 16l-1 10l-7 20l2 12l-4 18v57zM162 323l2 -18l5 -10l16 -29l12 -4l13 -1l17 -8h30l25 10l24 17l6 11l5 17l3 29v25l-3 20l-2 26l-8 12l-23 22l-13 5h-44
l-13 -4l-29 -11l-16 -25l-3 -10v-16l-4 -19l2 -24zM351 110l23 9l36 29q-3 8 -9 22.5t-11 25.5q0 5 1 10t1 10l15 26l8 28l4 34l6 32q-1 11 -2.5 24t-2.5 24l2 18l-7 27l-5 13l-4 17l-9 15l-7 8v22l14 29l24 -19l-18 -37v-29l8 -9l8 -13l4 -18l5 -12l7 -27l-2 -15l5 -46
l-6 -31l-4 -33l-8 -28l-15 -27l-2 -25l17 -41l-25 -20l-30 -13zM179 336q0 5 -1 13t-1 13l4 17v15q0 1 0.5 2.5t0.5 2.5q2 5 6.5 10.5t7.5 10.5l22 8l13 4h36q1 0 3.5 -1t3.5 -1l13 -13h-25l-13 -4l-29 -11l-16 -25l-3 -10v-16l-4 -19l2 -24l-2 -15l2 -16q-3 0 -5 2l-12 23
l-3 6l-2 15zM153 101l28 39l-1 -2l11 11q5 2 6.5 4.5t5.5 4.5l13 -4l18 4h23l15 -1q5 0 11 2l9 -6l5 -11l-5 1h-27l-14 -3l-15 4l-21 -14l-11 -11l-22 -30l-27 11z" />
    <glyph glyph-name="yen" unicode="&#xa5;" horiz-adv-x="410" 
d="M148 675l2 -21l10 -9v-20l9 -27l11 -25l14 -64l8 -11l9 2l2 12l11 30v15l13 28v14l6 15l9 26l3 19l17 38l28 3l61 -5l12 -9l-6 -29l-7 -15l-3 -16l-6 -27l-8 -17l-9 -26l-8 -34l-5 -10l-4 -16l-6 -30l-12 -32l-1 -15l-4 -13l-8 -14l-3 -17l-6 -11l-8 -33l14 -9l33 -10
l5 -38l-6 -32h-29l-11 -3l-17 -14l2 -17l12 -19h16l24 -8l9 -27l-9 -27l-27 -11l-13 1l-13 -14l-1 -13l3 -26l-4 -18l4 -14l-5 -27l-33 -8l-13 3l-11 -3l-14 -1l-30 11l-8 38l2 20l-2 25l3 12l-12 17l-15 -3l-29 9l-3 26l2 33l31 7l14 -1l9 16v18l-13 17l-12 -5l-25 12
l-9 23v16l8 30l30 2l11 16l-1 13l-12 28v16l-6 14l-5 18l-11 24l-2 17l-7 14l-2 16l-11 30l-5 26l-10 34l-7 9v18l-9 26l-12 46l9 15h30l16 -3l44 3zM311 329l-21 7q-1 0 -2 1t-2 1l6 23l6 10l3 18l7 11l5 15q0 3 0.5 7t0.5 8l12 32l6 31l4 16l5 12l4 16l4 16l8 23l9 19
l9 42l6 15l3 14l12 -1l12 -9l-6 -29l-7 -15l-3 -16l-6 -27l-8 -17l-9 -26l-8 -34l-5 -10l-4 -16l-6 -30l-12 -32l-1 -15l-4 -13l-8 -14l-3 -17l-6 -11zM189 -18h12l8 2l12 -3l49 11l6 42l-4 13l4 17l-3 28v3l6 7l8 -1l37 14l13 39l10 -3l9 -27l-9 -27l-27 -11l-13 1l-13 -14
l-1 -13l3 -26l-4 -18l4 -14l-5 -27l-33 -8l-13 3l-11 -3l-14 -1l-30 11zM300 201l-8 3h-13q-2 3 -2 4t-2 3q0 4 -1 7l9 8q1 0 2.5 0.5t3.5 0.5h39l8 45l-2 15l17 -5l5 -38l-6 -32h-29l-11 -3zM183 645l2 -21l10 -9v-20l9 -27l5 -12v-14l-4 -11l-10 44l-12 28l-8 25v24l-10 9
l-1 7l7 1zM128 101l4 1l1 -2l-1 -6l-3 1zM131 219h1v-1z" />
    <glyph glyph-name="brokenbar" unicode="&#xa6;" horiz-adv-x="320" 
d="M195 264l-3 -33l1 -13v-44l2 -18l-2 -24l3 -18l-4 -12v-15l4 -36l-4 -30l4 -9v-30l-2 -16l2 -14v-20l-7 -24l-29 -11l-28 11l-9 25v18l3 28l-4 16l3 15v41l-3 35l4 12l-4 19v12l4 15v14l-2 28l2 31v34l3 44l30 7l28 -5zM196 764l-2 -14l2 -16l-4 -29l2 -28v-20l-2 -26
v-33l4 -27l-4 -33l3 -11l-3 -30v-19l3 -11l-3 -16l3 -19l-6 -27l-31 -4l-29 6l-5 24l2 31l-2 31v34l2 27l-4 13l4 16l-2 16l1 15l-3 14v28l4 32v17l-3 17v27l5 42l30 10l33 -7zM230 234l-3 -33l1 -13v-44l2 -18l-2 -24l3 -18l-4 -12v-15l4 -36l-4 -30l4 -9v-30l-2 -16l2 -14
v-20l-7 -24l-29 -11l-28 11l-2 5l37 14l9 31v24l-2 14l2 16v32l-4 10l4 27l-4 37v10l5 14l-4 20l2 24l-2 18v44q0 2 -0.5 5.5t-0.5 6.5l3 36l-1 3l13 -2zM231 734l-2 -14l2 -16l-4 -29l2 -28v-20l-2 -26v-33l4 -27l-4 -33l3 -11l-3 -30v-19l3 -11l-3 -16l3 -19l-6 -27
l-31 -4l-29 6l-2 9l40 5l8 40l-2 19l3 17l-4 13v16l3 32q-1 1 -1.5 5.5t-1.5 6.5l4 32l-4 26v33l2 26v20q0 6 -1 14t-1 14l4 27l-2 18l2 15l-1 2l16 -3z" />
    <glyph glyph-name="section" unicode="&#xa7;" horiz-adv-x="476" 
d="M300 591l-8 12l-15 5l-10 9l-43 8l-12 -9l-29 -11l-8 -11l-10 -7l-2 -13l2 -33l29 -22l38 -19l16 -14l12 -8l40 -25l11 -4l12 -11l16 -8l12 -13l11 -8l9 -12l11 -7l12 -14l3 -12l3 -35l-6 -28l-6 -16l-10 -15l-17 -19v-21l11 -16l11 -9l8 -14l6 -18l4 -44l-2 -13l-6 -19
l-7 -14l-14 -27l-8 -10l-12 -7l-11 -12l-13 -7l-29 -14l-17 -3l-16 1l-13 -5l-30 -2l-31 6l-25 12l-31 10l-12 8l-19 22l-16 23l-11 40l7 9l30 5l46 -4l13 -21l11 -11l26 -12l10 -8h34l12 8l17 4l9 15l21 24l-9 31l-22 19l-28 17l-16 6l-12 11l-15 8l-12 4l-12 14l-11 7
l-16 4l-14 15l-12 7l-21 15l-13 16l-22 25l-3 12v47l4 15l10 13l6 15l21 25l-3 16l-11 15l-7 13l-17 29l-5 10v34l2 12l11 32l16 26l19 19l25 21l29 9l30 7h45l18 3l27 -11l29 -10l24 -14l22 -24l14 -19l7 -19l4 -22l-8 -8l-30 -5h-40zM278 299l12 1l9 15l8 8l8 17l-12 23
l-30 12l-11 10l-14 7l-12 12l-28 4l-11 -4l-24 -17l-13 -24l11 -25l15 -10l12 -3l29 -20l10 -10l26 -6zM198 -14l22 -4l37 2q2 1 6 2.5t7 2.5l15 -1l18 3l31 15l17 10q2 2 5.5 5t5.5 6l12 8l13 18q3 7 6.5 12t6.5 12l-1 -1l8 16l7 22l2 15l-4 46l-3 6l9 -6l8 -14l6 -18
l4 -44l-2 -13l-6 -19l-7 -14l-14 -27l-8 -10l-12 -7l-11 -12l-13 -7l-29 -14l-17 -3l-16 1l-13 -5l-30 -2l-31 6l-25 12zM396 212l-2 4q-2 2 -5 4.5t-5 4.5q-1 2 -3.5 6t-4.5 6v8l13 14l13 19l7 19l6 30l-3 36l5 -3l12 -14l3 -12l3 -35l-6 -28l-6 -16l-10 -15l-17 -19v-9z
M198 544v-9q-5 3 -9 6t-9 7l-2 26q0 1 0.5 2.5t0.5 2.5l8 7l4 6l29 11l8 6l32 -6l9 -9l5 -2l-15 3l-12 -9l-29 -11l-8 -11l-10 -7zM341 552h18l37 6l16 16l-5 30l-3 8l2 -2l14 -19l7 -19l4 -22l-8 -8l-30 -5h-40zM199 340l-9 3l-7 5l-7 15q2 5 4 6.5t4 5.5q6 4 10.5 8t9.5 8
q1 0 2.5 1t2.5 1l19 -4l9 -8l6 -3l-11 -4l-24 -17zM164 0l17 -8l-10 3z" />
    <glyph glyph-name="dieresis" unicode="&#xa8;" horiz-adv-x="410" 
d="M82 833l8 12l23 16l29 -4l15 -6l10 -10l10 -7l5 -13l3 -33l-9 -13l-31 -27l-30 2l-24 13l-17 26l2 30zM233 830l6 12l26 17l40 -4l23 -22l7 -13l-7 -44l-11 -11l-12 -8l-9 -3l-30 -2l-26 13l-16 26l3 29zM273 737l25 2l12 4l18 11l14 14l8 47l13 -12l7 -13l-7 -44
l-11 -11l-12 -8l-9 -3l-30 -2l-26 13zM125 734l26 -1l37 32l12 19l-2 31l4 -4l8 -6l-2 -18l11 -17l1 -12l-9 -13l-31 -27l-30 2l-24 13z" />
    <glyph glyph-name="copyright" unicode="&#xa9;" horiz-adv-x="563" 
d="M74 499l5 33l11 29l11 28l13 24l21 22l11 7l8 11l12 9l26 10l30 16l15 -2l13 2l46 6l13 -2l31 -5l15 -8l10 -1l29 -13l25 -24l19 -20l17 -19l5 -17l9 -13l5 -16l5 -8l3 -29l5 -33v-103l2 -16l-3 -29l3 -14l-2 -27l2 -31l-3 -17v-43l-2 -31l-6 -14v-17l-11 -30l-11 -10
l-6 -12l-11 -11l-6 -12l-15 -16l-11 -4l-13 -14l-25 -15l-16 -5h-14l-13 -3l-14 -8h-17l-29 5l-17 -4l-27 7l-29 8l-16 10l-12 4l-14 9l-11 13l-9 7l-18 26l-19 28l-10 27l-6 29v15l-6 16v46l4 12l-2 20l2 11v28l-4 29l2 17l-2 18v56l4 43zM139 197l1 -12l5 -16l13 -29
l9 -13l5 -11l26 -18l8 -13l14 -6l15 -1l29 -10h46l27 8l12 9l24 22l14 9l14 19l7 18l13 25l3 14v19l1 10v28l4 31l-4 15l2 33l-2 9l4 18v13l-3 18l3 15l-4 13l3 14v46l-7 27l-2 16l-6 12l-11 30l-9 11l-17 24l-23 19l-28 10l-16 3l-13 6l-32 -4l-14 1l-29 -15l-10 -1
l-25 -18l-10 -11l-16 -28l-7 -9l-8 -16l-1 -13l-9 -29l1 -16l-4 -33v-31l4 -56l-3 -20l1 -14l-2 -26l4 -36l-1 -11v-33zM184 483l7 18l7 8l6 17l24 18l11 4l29 10l27 -4l15 2l23 -16l26 -14l8 -12l3 -17l6 -11l4 -18l-1 -16l-8 -25l-26 -5l-22 10l-9 19l2 17l-9 16l-13 9
h-30l-10 -10l-6 -17l-3 -41v-17l2 -26l-3 -18l3 -18l-4 -14l4 -12l-3 -18l3 -30l-1 -14l6 -45l14 -5h29l14 6l6 14v19l5 20l25 4l26 -4l8 -40l-6 -25l-7 -16l-9 -9l-19 -24l-14 -1l-17 -8l-12 -4h-30l-25 9l-13 9l-11 3l-11 15l-14 22l-10 27v35l3 44v45l-4 12l1 16v17l3 14
l-4 19l3 15l2 29zM215 -2l4 -1l30 -8l18 5l26 -5h22l18 10l-3 -2l13 3h13l19 6l30 18l11 12l13 6l15 16l6 12l11 11l6 12l12 11l14 39v15l6 16l2 32v40l3 17l-2 34l2 31l-2 13l2 24l-2 18v104l-5 33l-3 31l-5 10l-6 17l-4 6l11 -12l5 -17l9 -13l5 -16l5 -8l3 -29l5 -33v-103
l2 -16l-3 -29l3 -14l-2 -27l2 -31l-3 -17v-43l-2 -31l-6 -14v-17l-11 -30l-11 -10l-6 -12l-11 -11l-6 -12l-15 -16l-11 -4l-13 -14l-25 -15l-16 -5h-14l-13 -3l-14 -8h-17l-29 5l-17 -4l-27 7l-29 8zM170 470q0 -6 -1 -14t-1 -13l-4 -15q0 -3 1 -6l2 -6v-14l-1 -4v-21
l-1 -20l4 -12v-36l-1 -6v-7l-2 -36v-37l4 -12v-28l4 -16l1 -12l5 -16l7 -15l-2 1l-6 11l-7 11q-2 6 -5.5 13.5t-6.5 13.5l-5 14l-1 12l-4 15v31l1 12l-4 35l2 26q0 3 -0.5 6t-0.5 6l3 20l-2 30l-2 28v30l4 33q0 3 -0.5 6.5t-0.5 7.5l9 30q0 2 0.5 5t0.5 6l7 14l-2 -2l10 13
l12 21l10 11l-2 -1q5 5 10.5 8t11.5 8h7l30 15l11 -1l28 4l12 -6l17 -3l-2 1l25 -9l3 -3l3 -3l-7 2l-13 6l-32 -4l-14 1l-29 -15l-10 -1l-25 -18l-10 -11l-5 -8l-15 -11q-2 -3 -2.5 -7.5t-2.5 -8.5l-8 -9l-9 -25zM281 228v-5h-11q-1 0 -2 0.5t-2 0.5l-5 35l1 14l-3 29l4 19
l-4 11l4 12l-4 20l3 16l-2 28v16l3 37l5 14l3 3h18l3.5 -3.5t3.5 -2.5l2 -4t3 -4v-1h-2l-10 -10l-6 -17l-3 -41v-17l2 -26l-3 -18l3 -18l-4 -14l4 -12l-3 -18l3 -30zM266 125h33l11 4l17 8l18 1l24 30l-1 -2l11 11l9 22l7 26l-3 14l14 -2l3 -19v-22l-3 -14l2 3l-14 -27
l-7 -17l-12 -16l-4 -2l-12 -1l-17 -8l-12 -4h-30l-25 9zM355 408l29 5l10 35l1 22l-4 20l-6 10v1l9 -5l8 -12l3 -17l6 -11l2 -9v-15l-4 -17l1 -5l-4 -13l-26 -5l-22 10z" />
    <glyph glyph-name="ordfeminine" unicode="&#xaa;" horiz-adv-x="325" 
d="M197 676l1 -10l3 -7l1 -9l6 -11v-24l3 -10l-1 -7l5 -10l-2 -11l4 -9l1 -12l4 -22l3 -21l3 -7l1 -12l2 -22l5 -20l4 -18l-1 -11l2 -9l5 -23l4 -19l-1 -14l4 -7l2 -12l-1 -10l5 -8v-12l3 -23l5 -17v-11l2 -19v-26l-23 -2l-21 -4l-21 4l-7 20v13l-12 12h-33l-9 -2l-12 2
l-11 -9v-13l-7 -22l-23 -3l-11 2l-8 -4l-25 8l-2 24l5 17v12l4 12l-1 10l1 10l6 19v12l3 8l3 11l-1 10l5 21v12l3 18l5 20l1 10l6 22v12l3 16l2 23l4 23l3 5v13l3 12v10l4 7l1 14l3 19l3 9v9l2 12l3 10l2 12l-1 11l9 19l18 2l8 -3h11l10 3l21 -4zM221 655l1 -10l4 -7l1 -9
l5 -11v-24l3 -10l-1 -7l5 -10l-1 -11l3 -9l1 -12l5 -22l3 -21l3 -7l1 -12l1 -22l6 -20l3 -18v-11l2 -9l5 -23l4 -19l-1 -14l4 -7l2 -12l-2 -10l5 -8v-12l4 -23l5 -17l-1 -11l3 -19v-26l-24 -2l-20 -4l-21 4l-3 7q5 0 10 1l10 2l34 3v37l-3 18l1 14l-5 17l-4 20v14l-5 8l2 9
l-2 14l-4 6l1 14l-4 19l-5 23l-2 10v9l-3 20l-6 18l-1 21l-1 13q-3 3 -3 7l-3 24l-5 19l-1 13l-3 10l1 10l-5 11l1 6l-3 9v25l-5 11l-1 9l-4 7l-1 9l-1 1l12 -2zM179 353l-1 8l-4 13l-1 10v13l-5 19l1 10l-4 10v13l-6 19l2 11l-4 1l-3 -22l-4 -9l-1 -10l-2 -21l-4 -25
l-1 -10l-6 -18v-14l-2 -7l10 -12l8 1h19l9 8zM70 197l2 -1l8 4l9 -2l32 4l9 32v7l4 4l10 -2l10 3h25q2 -3 3.5 -4t3.5 -3v-4h-9l-9 -2l-13 2l-11 -9v-13l-6 -22l-23 -3l-12 2l-8 -4l-24 8zM161 344h-13l-3 2l1 3q0 3 0.5 6.5t0.5 6.5l5 18q0 2 0.5 5.5t0.5 5.5l4 23l6 -19
v-11l1 -12l2 -8v-2z" />
    <glyph glyph-name="guillemotleft" unicode="&#xab;" horiz-adv-x="423" 
d="M229 411l12 11l14 4l7 15l12 5l11 11l21 26l38 28l15 -4l16 -10l3 -27v-19l-16 -21l-9 -7l-7 -14l-11 -8l-12 -13l-15 -25l-3 -18l10 -12l22 -27l16 -19l9 -18l17 -12l-2 -18l-6 -27l-8 -11l-18 -4l-38 27l-12 16l-10 7l-9 10l-12 9l-10 16l-23 15l-14 17l-4 26l2 16
l-2 17l3 19zM63 407l10 9l8 13l15 9l7 8l22 27l14 4l9 12l26 19h18l10 -12l6 -28l-2 -21l-22 -23l-8 -13l-20 -21l-21 -27l3 -20l26 -38l12 -9l10 -11l8 -16l13 -16l2 -14l-7 -30l-10 -12l-16 3l-28 15l-9 15l-10 8l-26 17l-8 14l-11 12l-13 5l-25 27v81zM341 324l-14 18
l-6 7q0 2 0.5 4t0.5 4q4 5 6 10t6 10l12 13l-3 -1l15 10l6 14l9 6l20 27v26l-1 5h2l16 -10l3 -27v-19l-16 -21l-9 -7l-7 -14l-11 -8l-12 -13l-15 -25zM198 375v-7l-7 -8l-21 -27l2 -12q-5 7 -10 12.5t-10 13.5q-1 4 -1 12l16 21l21 22l9 15l-2 -4l26 27l2 31l-2 7h6l10 -12
l6 -28l-7 -1l-17 -15l-18 -26zM356 184l15 3l15 21l6 28l1 11l4 -8l17 -12l-2 -18l-6 -27l-8 -11l-18 -4zM189 181l9 -1l18 23l8 33l-2 16l7 -13l13 -16l2 -14l-7 -30l-10 -12l-16 3z" />
    <glyph glyph-name="logicalnot" unicode="&#xac;" horiz-adv-x="410" 
d="M348 365l3 -18l-3 -30v-28l-3 -48l-44 -8h-16l-41 10l-6 27v23l-14 19l-16 -6l-13 3h-16l-13 -3l-15 3l-11 -2l-17 5l-16 -6l-43 9l-5 29v17l6 32l31 6l15 -3h28l16 3l15 -2h29l15 4l13 1l28 -2l30 -2h28l30 -4zM383 335l3 -18l-3 -30v-28l-3 -48l-44 -8h-16l-41 10l-2 6
l5 -1h21l56 10l4 60v28l3 32l-3 18l15 -2zM98 292l10 -2l16 6l13 -4q2 0 6 1t7 1l16 -4l17 4h8l17 -4q2 1 5 1.5t6 2.5l4 -6v-9h-9l-13 -3l-15 3l-11 -2l-17 5l-16 -6l-43 9z" />
    <glyph glyph-name="uni00AD" unicode="&#xad;" horiz-adv-x="300" 
d="M256 365l-4 -17l-4 -37h-27l-31 -3h-93l-15 5h-30l-8 32v17l7 30l30 5l12 4h32l17 -5l15 4l15 -4l15 5h18l15 -4l31 -3zM291 335l-4 -17l-4 -37h-27l-31 -3h-93l-15 5h-30l-4 13l11 -3h97l31 3h40l5 51l4 17v1l15 -1z" />
    <glyph glyph-name="registered" unicode="&#xae;" horiz-adv-x="563" 
d="M76 503l4 29l4 11l17 45l8 11l16 21l19 26l22 17l26 9l30 15l12 4h15l46 4l30 -10l30 -4l12 -8l15 -7l13 -3l8 -8l24 -20l9 -14l19 -20l8 -14l3 -13l12 -29l3 -16l5 -11v-63l3 -13l-2 -13v-35l2 -26l-4 -15l3 -12v-153l-6 -11v-17l-6 -17l-3 -15l-9 -14l-16 -26l-9 -7
l-6 -16l-11 -12l-16 -10l-8 -3l-14 -10l-16 -8l-26 -12l-18 -2l-14 -4l-45 5l-17 -5l-12 4l-30 7l-13 6l-16 12l-10 4l-15 10l-10 10l-22 24l-7 11l-16 23l-12 26l-9 34l-1 16l1 16v43l-3 11l2 30l-3 19l1 13v30l3 15v16l-4 28l3 29l-2 17l3 26v19zM136 199l9 -29l11 -26
l9 -13l20 -22l9 -16l12 -6l30 -9l14 -7l47 -5l12 2l27 14l26 10l13 9l11 11l15 28l8 10l11 29l2 11l3 34l3 44l-2 13v29l3 18l-3 11l3 28l-4 31l4 15l-4 28l3 27v19l-6 16v12l-8 15l-3 12l-7 16l-9 13l-12 9l-10 14l-10 10l-12 6l-11 9l-14 4l-29 8l-30 -4h-14l-19 -4
l-22 -11l-27 -18l-10 -13l-14 -26l-8 -12l-5 -13l-10 -31v-16l-5 -40l3 -17l-3 -32l3 -15v-42l-4 -18v-46l4 -12l-2 -13v-33zM321 532l11 -4l23 -21l6 -16l6 -10l6 -32l3 -34l-2 -18l-12 -28l-8 -13l3 -20l7 -16l2 -14l5 -51l-4 -12l3 -22l-2 -23l4 -18l-9 -10l-24 -4h-19
l-8 28l-4 31l2 33l-4 50l-9 8l-29 4l-15 -16l-3 -12v-18l4 -12l-4 -33l2 -12l-6 -47l-23 -8l-25 4l-5 31v33l-2 11l4 28l-4 29l2 15v35l2 15v26l-4 12l3 20l-1 12l-2 33l3 10v34l4 23l33 10l14 -3l14 2h45zM222 -4l10 -3l15 -5l19 6l47 -5l13 4l19 2l30 14l-1 -1l17 8l16 12
q2 1 4.5 2t1.5 0h1l18 11l15 17q1 3 2 7.5t3 7.5l11 10l14 23l-1 -1l11 17l4 17l6 17v18l6 12v159l-2 10l3 10l-2 29v35l2 17l-3 13v61l-6 14l1 -2l-3 17l-12 29l-1 3l10 -10l8 -14l3 -13l12 -29l3 -16l5 -11v-63l3 -13l-2 -13v-35l2 -26l-4 -15l3 -12v-153l-6 -11v-17
l-6 -17l-3 -15l-9 -14l-16 -26l-9 -7l-6 -16l-11 -12l-16 -10l-8 -3l-14 -10l-16 -8l-26 -12l-18 -2l-14 -4l-45 5l-17 -5l-12 4l-30 7l-13 6zM149 248l2 17l-4 12v42l4 16v47l-3 13l3 33l-3 18l5 36v17l9 27q1 3 3 6.5t3 6.5l6 9l14 26l9 11l23 15l-2 -2l20 10l15 4h15
l28 4q6 -2 12.5 -4t13.5 -4l12 -4l6 -5l1 -1l-9 3l-30 -4h-14l-19 -4l-22 -11l-27 -18l-9 -12l-27 -8l-5 -32v-25l-6 -18v-16l-5 -40l3 -17l-3 -32l3 -15v-42l-4 -18v-46l4 -12l-2 -13v-33l2 -16l9 -29l3 -7l-7 8q-3 3 -7 11l-10 23l-8 27l-2 15v31zM350 152l21 4l17 18
l-5 24l2 25l-2 19l3 10q-1 12 -2.5 26.5t-2.5 27.5l-2 17l-8 19q-1 4 -0.5 6t-0.5 6l7 10l12 29l2 23l-3 38l-6 30l8 -7l6 -16l6 -10l6 -32l3 -34l-2 -18l-12 -28l-8 -13l3 -20l7 -16l2 -14l5 -51l-4 -12l3 -22l-1 -14l-9 -22l-7 -8l-5 -10l-9 -1h-19zM311 400l7 14l-5 48
l-8 16l-33 4l-21 -17l1 -9v-62l17 -9h34zM231 149l29 10l7 56q0 2 -1 6t-1 7l4 37l-4 13v10l2 8l7 8l17 -3l2 -22l-5 -5l-3 -12v-18l4 -12l-4 -33l2 -12l-6 -47l-23 -8l-25 4zM287 400h-13l-7 4v54q2 2 5 4.5t5 4.5l18 -3q1 -3 3 -5q0 -4 0.5 -7t0.5 -7l-13 -10l1 -9v-26z
" />
    <glyph glyph-name="macron" unicode="&#xaf;" horiz-adv-x="330" 
d="M271 796l-7 -31l-32 -5l-12 -4l-15 3l-31 3l-15 -5l-18 4l-14 1l-17 -3l-17 4h-32v34l4 28l32 6l13 -5l29 6l16 -5l16 2l31 -3l19 4l44 -5zM306 766l-7 -31l-32 -5l-12 -4l-15 3l-31 3l-15 -5l-18 4l-14 1l-17 -3l-17 4h-32v14l14 -4l18 4q2 0 6 -0.5t7 -0.5l18 -5l16 6
l29 -3l16 -4l14 5l43 6l10 45l13 -1z" />
    <glyph glyph-name="degree" unicode="&#xb0;" horiz-adv-x="397" 
d="M88 615l2 31l9 12l6 18l10 10l12 7l10 11l31 5l12 5l33 -3l32 -8l14 2l13 -9l19 -20l7 -17l12 -27v-17l2 -9l-3 -33l2 -16l-8 -27l-2 -17l-21 -26l-24 -10l-14 -10l-15 -4l-13 4h-32l-15 -3l-12 7l-32 12l-8 8l-17 26l-5 14l-9 28l3 13l-3 31zM152 561l6 -17l10 -6l16 -3
l29 -2l11 3l15 8l8 30l-3 25v17l-8 14l-8 7l-18 5h-26l-14 -5l-12 -8l-9 -26l3 -32v-10zM169 449l14 3h27l16 -5l22 6l16 11l25 11l27 33q0 3 0.5 8.5t1.5 10.5l8 27q0 3 -1 8.5t-1 9.5l3 33l-2 10v21l-10 21l11 -11l7 -17l12 -27v-17l2 -9l-3 -33l2 -16l-8 -27l-2 -17
l-21 -26l-24 -10l-14 -10l-15 -4l-13 4h-32l-15 -3l-12 7zM164 601l6 18l6 3l12 5h22l9 -3q4 -4 6 -5l4 -6v-1h-10l-14 -5l-12 -8l-9 -26l2 -23l-14 3q-1 0 -2 1q-1 2 -2 5.5t-1 5.5v7z" />
    <glyph glyph-name="plusminus" unicode="&#xb1;" horiz-adv-x="420" 
d="M255 553l1 -14l-4 -12v-18l3 -13l-3 -10l14 -20l32 5l43 -8l5 -31l-9 -46l-39 -10l-14 5l-16 1l-13 -19v-28l-3 -26l2 -13l-3 -29l-50 -9l-31 9l-8 40l3 32l-3 10v14l-13 13l-12 3l-16 -2l-41 10l-7 29l5 49l30 7l29 -5l14 1l12 18v10l3 14l-3 15v28l6 30l31 2h50z
M203 243l62 11l4 40q0 3 -1 6.5t-1 6.5l3 26v27l5 7q2 0 3 -0.5t2 -0.5l17 -6l53 13l11 57l-1 6l16 -3l5 -31l-9 -46l-39 -10l-14 5l-16 1l-13 -19v-28l-3 -26l2 -13l-3 -29l-50 -9l-31 9zM290 523l1 -14l-4 -12v-13l-14 -2q0 1 -1 2q-3 3 -4 5l3 6l-4 18v10l4 12l-1 19v1
h15zM113 363l5 -1q2 0 7 0.5t8 1.5l8 -2l6 -6v-7l-32 8zM316 163l-4 -17l-4 -37h-27l-31 -3h-93l-15 5h-30l-8 32v17l7 30l30 5l12 4h32l17 -5l15 4l15 -4l15 5h18l15 -4l31 -3zM351 133l-4 -17l-4 -37h-27l-31 -3h-93l-15 5h-30l-4 13l11 -3h97l31 3h40l5 51l4 17v1l15 -1z
" />
    <glyph glyph-name="uni00B2" unicode="&#xb2;" horiz-adv-x="341" 
d="M64 661v6l4 14l7 17l21 25l9 6l8 9l10 2l8 5l11 3l23 5h22l9 -1l31 -9l18 -11l9 -9l8 -6l7 -9l10 -20l2 -7l5 -11l2 -23v-54l-12 -41l-5 -6l-4 -12l-9 -16l-8 -11l-4 -7l-7 -7l-5 -14l-12 -15l-9 -20l-9 -5l-3 -10l-7 -10l-9 -22l-7 -5l-2 -11l-6 -10l-7 -23l-5 -7l8 -12
h12l21 3l32 -2l10 2l13 -2l11 1l20 -5l4 -17v-33l-6 -19l-21 -5l-9 1l-11 -2l-20 3h-65l-9 -3l-12 3h-33l-9 -2l-23 7v33l4 31l3 7l4 22l5 10l2 11l10 20l6 19l12 16l3 11l7 8l4 12l13 18l3 9l13 14l7 13l6 5l3 12l8 8l3 9l13 17l1 12l7 8l4 31l-4 46l-5 8l-17 11h-24l-7 -7
l-8 -3l-8 -23l-3 -21l2 -10l-1 -11l2 -14l-4 -19l-22 -2h-10l-7 -3h-13l-18 8l-5 17v57zM192 342q-4 -1 -7.5 -2t-7.5 -1h-5q-1 1 -1 2l8 24l7 11l3 12l5 5l10 21l7 11q0 2 1 4l2 4l8 7l9 18l12 16l5 12l3 4l7 12v-1l8 10l11 20l4 11l-2 -2l6 9l14 43v56l-2 25l-7 12v5l-3 5
l6 -8l11 -20l1 -7l6 -11l2 -23v-54l-13 -41l-5 -6l-4 -12l-8 -16l-9 -11l-4 -7l-6 -7l-5 -14l-13 -15l-9 -20l-8 -5l-4 -10l-7 -10l-9 -22l-6 -5l-2 -11l-7 -10zM95 238v3h1l9 2h31l12 -3l10 3h64l21 -2l12 2l9 -2l28 7l7 26v33l11 -2l3 -17v-33l-5 -19l-21 -5l-9 1l-11 -2
l-21 3h-65l-8 -3l-12 3h-33l-9 -2zM89 556h8q1 0 3 1l4 2h10l30 4l6 28l-2 16l1 11l-2 9l3 20l-1 -2q1 4 2.5 7.5t3.5 8.5l6 2l6 6h16l13 -8l1 -2h-10l-7 -7l-9 -3l-7 -23l-3 -21l2 -10l-1 -11l2 -14l-5 -19l-21 -2h-11l-7 -3h-12l-19 8v2z" />
    <glyph glyph-name="uni00B3" unicode="&#xb3;" horiz-adv-x="341" 
d="M62 659l5 8l1 14l12 15l5 12l11 12l19 16l9 2l21 11l19 3h20l13 -2l9 -5h10l11 -4l26 -21l14 -13l5 -7l6 -13l2 -10l5 -9l5 -19l-2 -22v-48l-3 -9v-14l-6 -9l-2 -7l-8 -10l-5 -11v-12l6 -9l5 -11l7 -10l7 -26v-32l-1 -21l2 -10l-2 -10l1 -10l-3 -20v-12l-5 -21l-8 -16
l-9 -9l-6 -9l-8 -5l-9 -10l-14 -11l-20 -5l-11 -5l-10 3h-22l-11 -2l-9 2l-22 9l-15 13l-8 5l-21 25l-8 15l-10 31v35l1 10v20l3 21l19 5h11l10 -2l9 1l21 -4l4 -53v-32l3 -11l22 -18l29 2l14 16l5 12v52l1 8l-1 10l1 12l-2 21l-2 7l-6 10l-9 8l-9 4l-20 3l-19 6l-4 30l5 21
l18 6l20 1l8 8l7 4l9 8l3 11v48l-3 33l-16 14l-8 5h-18l-11 -1l-5 -12l-12 -16v-35l-5 -30l-18 -6l-21 1l-30 5l-5 19v14l3 11l-2 22zM152 234l12 3h19l13 -3q2 0 6 2t7 3l22 6l19 14l8 9l-2 -1l10 7l7 10l8 8l10 20l6 22v14l2 19q0 2 -0.5 5t-0.5 5l3 11l-3 13l1 18v35
l-7 26l3 -3l4 -11l7 -10l7 -26v-32l-1 -21l2 -10l-2 -10l1 -10l-2 -20v-12l-6 -21l-8 -16l-8 -9l-6 -9l-8 -5l-9 -10l-15 -11l-19 -5l-12 -5l-9 3h-23l-10 -2l-9 2zM289 486l3 -5l-7 11l-10 18v6l4 10l7 8l3 10l6 10v13l4 9v51l1 25l-4 18l-6 10l-1 9l3 -3l5 -7l6 -13l1 -10
l6 -9l4 -19l-1 -22v-48l-4 -9v-14l-5 -9l-2 -7l-8 -10l-5 -11v-12zM87 570l5 -1l25 -1l26 9l6 36v32l10 15l4 8h19q1 -2 2.5 -2.5t2.5 -1.5l7 -7h-4l-11 -1l-5 -12l-11 -16v-35l-6 -30l-17 -6l-22 1l-30 5zM162 332l-12 10l-2 7v30l-3 35l13 -3l4 -53v-26zM169 471l13 -1
l6 -3l6 -6l-5 1l-20 6v3z" />
    <glyph glyph-name="acute" unicode="&#xb4;" horiz-adv-x="310" 
d="M199 860l13 -13l2 -13l-20 -27l-20 -19l-8 -10l-28 -25l-17 -3l-25 3l-8 18l12 28l2 9l11 15l21 37h65zM125 735l19 4l32 28l10 13l-1 -3l17 16l26 37h6l13 -13l2 -13l-20 -27l-20 -19l-8 -10l-28 -25l-17 -3l-25 3z" />
    <glyph glyph-name="mu" unicode="&#xb5;" horiz-adv-x="454" 
d="M185 666l-2 -29l2 -21l-3 -13l3 -15v-58l-2 -14v-18l3 -13v-15l-4 -15l3 -31l-2 -20l2 -12l-3 -32l3 -16l-2 -25v-35l3 -9v-18l-4 -33v-30l3 -25v-33l9 -33l14 -2h44l10 8l7 26v19l-3 15l4 17l-2 13v31l-2 11v35l4 9l-4 17l4 19l-3 11v17l2 12l-3 19l4 15v89l-4 33v26
l4 34l-4 27l4 18l-2 15l2 30l5 25l26 5l29 3l12 -3l30 -2l4 -29v-34l4 -12l-2 -16l-2 -27l4 -17v-88l-4 -15l2 -17l-2 -19l3 -14l-3 -14l2 -14v-29l-2 -18l4 -15l-3 -16l3 -12l-4 -18l4 -12l-4 -16l4 -32l-4 -10l4 -34l-3 -17l3 -13v-30l-7 -11l-2 -19l-7 -11l-27 -39
l-13 -7l-10 -12l-16 -5l-28 -13l-15 3l-12 -2l-44 -3l-17 -11l4 -13l-4 -13l3 -16l-7 -31l-27 -6h-31l-13 5h-25l-9 32v62l2 30l-3 27v32l2 12l-1 16v32l2 29l-2 29v29l3 17l-3 15l1 9l-2 18l2 12v18l2 32l-4 24l4 33l-3 42v36l3 9l-4 15l3 15l-3 16l3 17l-1 11v19l-2 13
l4 19l-2 10v30l7 32l43 4l13 3l40 -7zM114 -116l2 -1h38l37 8l10 44l-3 14l4 14q0 4 -2 8l5 3l39 2q5 0 9 2l19 -4l30 14l21 6l11 15l14 8l28 40l10 16q0 4 0.5 9t1.5 10l7 13v36l-2 11l2 13l-4 34l4 10l-4 31l5 20q-1 3 -2.5 6.5t-2.5 6.5l5 17l-3 11l3 16l-2.5 7.5
t-2.5 8.5l2 17v29q0 2 -1 5.5t-1 5.5l4 17l-4 18l2 15q0 3 -1 7.5t-1 8.5l4 13v94l-4 15l2 26l2 20l-4 12v30l16 -1l4 -29v-34l4 -12l-2 -16l-2 -27l4 -17v-88l-4 -15l2 -17l-2 -19l3 -14l-3 -14l2 -14v-29l-2 -18l4 -15l-3 -16l3 -12l-4 -18l4 -12l-4 -16l4 -32l-4 -10
l4 -34l-3 -17l3 -13v-30l-7 -11l-2 -19l-7 -11l-27 -39l-13 -7l-10 -12l-16 -5l-28 -13l-15 3l-12 -2l-44 -3l-17 -11l4 -13l-4 -13l3 -16l-7 -31l-27 -6h-31l-13 5h-25zM220 636l-2 -29l2 -21l-3 -13l3 -15v-58l-2 -14v-18l3 -13v-15l-4 -15l3 -31l-2 -20l2 -12l-3 -32
l3 -16l-2 -25v-35l3 -9v-18l-4 -33v-30l3 -25v-23h-14l-6 20v35l-3 25v27l4 33v21q-1 1 -1.5 3.5t-1.5 4.5v34l2 28l-3 15l3 29l-2 13l2 21l-3 30l4 12v22l-3 13v14l2 14v61l-2 10l2 11l-2 25l2 30l12 -2z" />
    <glyph glyph-name="paragraph" unicode="&#xb6;" horiz-adv-x="499" 
d="M40 529l4 15l4 25l8 18l10 26l9 13l17 28l21 20l29 12l13 9l30 4h28l14 3l31 -3l26 -3h19l14 5l14 -1l12 2l18 -4l15 4l14 -5l30 -6l5 -30l-3 -11v-18l2 -27v-103l-2 -15l3 -21l-4 -14l2 -31l-2 -14l4 -28l-4 -13l4 -17l-3 -16l2 -12l-2 -17l3 -12l-3 -17l2 -15v-30
l-3 -16l4 -17l-1 -14l-2 -31l3 -12l-2 -14l-2 -33l1 -11l3 -35l-1 -11l-7 -28l-31 -7l-29 4l-2 26l-4 21l4 12l-4 33l3 27l-1 14l2 27v35l-3 25l3 30l-3 16l3 16l-4 13l2 20l-2 15l3 30v73l-2 16l3 15l-2 12v27l2 30l-3 32l3 32l-3 14l-15 11l-10 4h-18l-12 -16l2 -17
l-4 -14l3 -16v-61l-3 -9l4 -17v-14l-3 -17l2 -28l-2 -18l3 -24v-31l-4 -19l4 -15l-4 -10l4 -16l-4 -14l3 -34l-3 -15l3 -25v-21l-3 -15l3 -26l-3 -16l2 -31l-2 -15l3 -13l1 -15l-5 -13v-29l-34 -7l-27 8l-7 28l-1 15l4 31v27l-4 15l4 19v32l-4 13v30l4 17l-3 11l3 18l-2 15
l-15 15h-43l-13 10l-18 2l-12 9l-15 8l-8 10l-20 17l-19 31l-9 25l-12 31l2 16l-4 11l-1 45v20zM391 -13l39 8l9 38l1 15l-3 35l-1 10l2 33l2 18l-3 12l2 27l1 17l-2 6t-2 7l3 14v33q0 3 -1 6t-1 6l4 20l-4 14l2 15q0 2 -1 4.5t-1 4.5l4 19l-4 15l3 12l-4 33l2 12
q0 7 -1 13.5t-1 13.5l5 16l-4 23l2 15v103l-2 27v15l3 13l-1 4l16 -3l5 -30l-3 -11v-18l2 -27v-103l-2 -15l3 -21l-4 -14l2 -31l-2 -14l4 -28l-4 -13l4 -17l-3 -16l2 -12l-2 -17l3 -12l-3 -17l2 -15v-30l-3 -16l4 -17l-1 -14l-2 -31l3 -12l-2 -14l-2 -33l1 -11l3 -35l-1 -11
l-7 -28l-31 -7l-29 4zM266 -14l43 8v38l5 13l-1 23l-3 13l2 11q0 7 -1 14t-1 14l3 18l-3 27l3 12v26l-3 23l3 13l-3 34l5 15l-2.5 7.5t-2.5 8.5l5 10l-5 17l4 16v35l-3 22l2 18q0 6 -1 12t-1 13l3 17v20l-3 13l2 7v67l-2 13l3 10q0 2 -1 7t-1 8l6 7h7l7 -3l-3 1q3 -2 5 -4
t5 -4q0 -1 0.5 -2t0.5 -2l-1 -7l-7 -10l2 -17l-4 -14l3 -16v-61l-3 -9l4 -17v-14l-3 -17l2 -28l-2 -18l3 -24v-31l-4 -19l4 -15l-4 -10l4 -16l-4 -14l3 -34l-3 -15l3 -25v-21l-3 -15l3 -26l-3 -16l2 -31l-2 -15l3 -13l1 -15l-5 -13v-29l-34 -7l-27 8zM169 279h36l8 -7
q1 -2 1 -4v-4h-10l-13 10l-18 2z" />
    <glyph glyph-name="periodcentered" unicode="&#xb7;" horiz-adv-x="230" 
d="M67 385l8 8l26 17l41 -5l11 -14l10 -7l4 -16v-26l-7 -16l-8 -11l-11 -7l-12 -4l-31 -5l-11 11l-10 5l-18 23v31zM111 286l24 4l9 3l18 12l13 17l7 17v29l6 -7l10 -7l4 -16v-26l-7 -16l-8 -11l-11 -7l-12 -4l-31 -5l-11 11l-10 5z" />
    <glyph glyph-name="cedilla" unicode="&#xb8;" horiz-adv-x="286" 
d="M158 -15l-3 -17l13 -14l12 -8l24 -14l19 -21l3 -14v-31l-4 -14l-10 -7l-25 -15l-27 -10l-33 3l-12 -1l-13 8l-18 5l-24 17l12 27l31 -6h15l18 -5l16 3v27l-5 17l-14 2l-39 18l-7 5l5 27l7 31l6 15h57l-3 -19zM116 -193q2 0 4.5 0.5t5.5 0.5l35 -3l34 12l25 15l16 12l5 18
v38l17 -19l3 -14v-31l-4 -14l-10 -7l-25 -15l-27 -10l-33 3l-12 -1l-13 8l-18 5z" />
    <glyph glyph-name="uni00B9" unicode="&#xb9;" horiz-adv-x="233" 
d="M180 716l-2 -13l2 -10v-20l1 -11l-2 -9v-45l2 -10l-2 -10l1 -20l-2 -22l3 -12l-3 -17l2 -14l-2 -10l2 -9v-52l1 -20l-2 -21v-35l2 -19l-1 -9v-43l-5 -31l-29 -6l-10 1l-9 -2l-21 6l-4 21v94l2 10l-3 15l3 31l-2 18l2 13l-1 10v12l-2 10l2 11l-2 21v19l3 10v24l-2 8l1 12
l-2 19l3 11l-10 12h-8l-22 4l-3 33l4 22l20 8h10l15 17l10 21h25l12 1l20 -6zM204 695l-1 -13l1 -10v-20l2 -11l-2 -9v-45l2 -10l-2 -10l1 -20l-2 -22l3 -12l-3 -17l2 -14l-2 -10l1 -9v-52l2 -20l-2 -21v-35l2 -19l-1 -9v-43l-6 -31l-28 -6l-10 1l-10 -2l-20 6l-2 5l9 2
l10 -2l36 8l7 39v44l1 11l-2 18v33l2 20l-2 22v52q0 2 -0.5 3.5t-0.5 3.5l3 10l-3 16l3 18l-3 11l2 21q0 5 -0.5 9t-0.5 9l2 12l-2 12v41l2 9l-2 14v20l-1 10l1 13l11 -3z" />
    <glyph glyph-name="ordmasculine" unicode="&#xba;" horiz-adv-x="342" 
d="M55 618l5 21l4 9l7 9l4 11l5 7l10 5l6 8l10 7l20 10h10l8 5l11 4l32 -4l12 -3l9 -1l20 -12l16 -12l6 -10l8 -6l4 -8l7 -10l2 -11l7 -16v-33l2 -9v-14l-2 -21l3 -7v-14l-3 -18l3 -13l-3 -21l2 -9l-2 -10l3 -8v-33l-3 -8l3 -12v-52l-2 -10l1 -23l-4 -19l-8 -18l-11 -20
l-5 -7l-16 -13l-9 -9l-28 -9l-24 -8l-18 5h-23l-10 5l-19 9l-16 12l-15 14l-8 17l-11 22l-3 18v24l2 7l-2 15v18l1 23l-2 10l1 7l-1 13v21l2 10l-1 7v46l2 6l-2 13l1 9l-1 11v13l-1 7v10l3 33zM134 298l9 -10l11 -3l21 -2l8 3l11 6l5 5l5 11v18l-3 14l2 21l-1 8l1 12l-2 20
l2 19v24l-1 7v24l2 20l-3 7l2 14l-1 9l2 20l-1 22v22l-4 27l-5 10l-9 7l-8 2h-19l-10 -7l-14 -9l-4 -11v-20l-1 -9v-11l-1 -20l2 -15l-1 -6l2 -13l-2 -10l1 -18l-1 -13l2 -8l-2 -10v-25l2 -7l-2 -24v-9l-1 -21l3 -20l-1 -10v-33zM136 198h18l21 -5l26 8l33 10l9 10l16 13
l9 12l10 19l9 23l4 15q0 5 -0.5 12.5t-0.5 12.5l2 9v56l-3 10l3 6v37l-2 5l2 10l-3 12l3 20l-3 12l3 17v16l-3 6l2 19v18l-2 10v31l-8 19l1 -1l-3 7l4 -2l3 -8l7 -10l3 -11l7 -16v-33l2 -9v-14l-2 -21l3 -7v-14l-3 -18l3 -13l-3 -21l2 -9l-2 -10l3 -8v-33l-3 -8l3 -12v-52
l-2 -10l1 -23l-5 -19l-8 -18l-10 -20l-6 -7l-16 -13l-8 -9l-29 -9l-23 -7l-19 4h-22l-11 5zM140 339l1 11l-3 19l2 21q0 2 -0.5 4.5t-0.5 4.5l2 23l-1 8v25l1 12l-2 9l1 10q0 3 -0.5 7.5t-0.5 8.5l2 9l-1 16v8l-2 13l2 20l-1 11l1 9v17q2 2 2 3.5t1 3.5l14 10l4 3h13l8 -3
l5 -3l2 -4v-1h-7l-9 -7l-14 -9l-5 -11v-20l-1 -9l1 -11l-2 -20l2 -15v-6l1 -13l-2 -10l1 -18l-1 -13l2 -8l-1 -10v-25l1 -7l-2 -24l1 -9l-2 -21l3 -20l-1 -10v-22q-2 0 -6 2l-3 3t-2 3l-3 4v31z" />
    <glyph glyph-name="guillemotright" unicode="&#xbb;" horiz-adv-x="423" 
d="M189 298l-18 -21l-15 -7l-8 -12l-24 -18l-23 -25l-26 -19l-15 7l-12 10l-5 23l3 16l21 32l20 26l9 7l9 15l11 10v27l-20 17l-8 15l-20 21l-22 28v46l20 10l15 2l35 -26l8 -13l25 -22l19 -18l25 -18l15 -18v-78zM363 301l-12 -14l-10 -6l-11 -11l-11 -15l-15 -9l-8 -11
l-11 -11l-37 -28l-16 7l-14 10l-3 23l2 19l10 16l12 12l16 26l23 19l8 16v25l-10 9l-20 21l-7 15l-11 6l-8 15l-13 13v43l9 10l10 6l14 4l23 -18l34 -36l12 -8l9 -11l12 -7l9 -14l10 -7l16 -19v-39l4 -17l-4 -19zM394 336l-4 17v30l4 -3l16 -19v-39l4 -17l-4 -19l-12 -15
l-12 -14l-10 -6l-11 -11l-11 -15l-15 -9l-8 -11l-11 -11l-37 -28l-16 7l-13 9l44 33l6 6l9 13l17 9l12 17l10 10l-3 -1l16 10l6 8l18 23zM223 384l5 -3l15 -18v-45l-1 -1l-14 -23l-13 -13l-13 -21l-1 -16l-10 -4l-8 -12l-24 -18l-23 -25l-26 -19l-15 7l-12 10l28 21l23 25
l25 19l5 9l16 7l20 24l-1 -2l24 22v76z" />
    <glyph glyph-name="onequarter" unicode="&#xbc;" horiz-adv-x="691" 
d="M583 465l1 -23l-1 -6v-34l1 -7l-2 -13l2 -10l-1 -9l1 -11l-2 -22v-32l2 -9v-33l-2 -8l1 -9l-1 -11l2 -19v-24l-2 -18l2 -10l9 -11l19 -3l5 -37l-6 -23l-19 -4l-8 -7l-2 -12l2 -13v-21l-6 -21l-40 -8l-8 3l-21 2l-2 22v58l-21 1l-9 -3l-12 2l-11 -3l-10 2l-10 -1l-21 2
l-10 -2l-22 4l-5 22l2 15v25l4 9l2 10l7 11l8 32l6 6l16 49l5 9l2 14l11 17l1 11l9 19l2 10l6 11l6 18l9 20l1 11l5 7l3 12l7 18l6 9l5 20l8 19h71zM402 663l2 -18l-8 -47l-4 -13l-3 -25l-7 -20v-28l-7 -15l1 -12l-4 -17l-3 -28l-7 -27v-16l-3 -18l-8 -26l-1 -16l-3 -11v-19
l-7 -15v-30l-8 -28v-15l-6 -16l-4 -25v-19l-5 -12l-8 -46l1 -15l-6 -11l-5 -48l-9 -22l-25 -4l-32 8l-4 27l9 46l2 27l6 18l7 61l6 13v11l6 16v28l6 19l3 25v19l5 10l7 32l-2 13l5 17l8 46l-1 12l5 12l2 17l8 60l6 16l6 58l7 12l-1 13l4 30l10 29l27 4l32 -8v-29zM198 676
l-2 -13l2 -10v-20l1 -11l-2 -9v-45l2 -10l-2 -10l1 -20l-2 -22l3 -12l-3 -17l2 -14l-2 -10l2 -9v-52l1 -20l-2 -21v-35l2 -19l-1 -9v-43l-5 -31l-29 -6l-10 1l-9 -2l-21 6l-4 21v94l2 10l-3 15l3 31l-2 18l2 13l-1 10v12l-2 10l2 11l-2 21v19l3 10v24l-2 8l1 12l-2 19l3 11
l-10 12h-8l-22 4l-3 33l4 22l20 8h10l15 17l10 21h25l12 1l20 -6zM437 633l2 -18l-8 -47l-4 -13l-3 -25l-7 -20v-28l-7 -15l1 -12l-4 -17l-3 -28l-7 -27v-16l-3 -18l-8 -26l-1 -16l-3 -11v-19l-7 -15v-30l-8 -28v-15l-6 -16l-4 -25v-19l-5 -12l-8 -46l1 -15l-6 -11l-5 -48
l-9 -22l-25 -4l-32 8l-1 8l34 4l13 32q1 12 2.5 24.5t2.5 24.5l6 12q0 3 -0.5 8.5t-0.5 8.5l8 42l5 12v23l4 21l6 16v18l8 26v29l7 15v20l3 12q0 3 0.5 6.5t0.5 7.5l7 23l4 23v15l7 26l3 30l4 16q0 2 -0.5 5t-0.5 6l7 15v31l7 18l3 26v-2l3 11l9 51l-2 20v4l20 -5v-29z
M222 655l-1 -13l1 -10v-20l2 -11l-2 -9v-45l2 -10l-2 -10l1 -20l-2 -22l3 -12l-3 -17l2 -14l-2 -10l1 -9v-52l2 -20l-2 -21v-35l2 -19l-1 -9v-43l-6 -31l-28 -6l-10 1l-10 -2l-20 6l-2 5l9 2l10 -2l36 8l7 39v44l1 11l-2 18v33l2 20l-2 22v52q0 2 -0.5 3.5t-0.5 3.5l3 10
l-3 16l3 18l-3 11l2 21q0 5 -0.5 9t-0.5 9l2 12l-2 12v41l2 9l-2 14v20l-1 10l1 13l11 -3zM505 259l1 10v21h-3l-7 -16l-10 -23v-10l-6 -9l-7 -21l-15 -39l-2 -9l-6 -7l6 -12l10 -2l20 4l10 -4l9 11v106zM608 444l1 -23l-1 -6v-34l1 -7l-3 -13l3 -10l-1 -9l1 -11l-3 -22v-32
l3 -9v-33l-3 -8l2 -9l-2 -11l2 -19v-24l-1 -9l-9 1l-3 5l-2 6l1 16v27l-2 20l2 9q0 2 -1 3.5t-1 3.5l3 7v39l-3 9v28l3 22l-1 12l1 12l-3 9l3 9l-1 9v34l1 6l-1 25h9zM533 -13l4 -1l49 9l9 30v23l-2 14q0 1 0.5 2t0.5 2l1 2q0 1 1 1l24 6l7 31l-2 18l11 -2l5 -37l-5 -23
l-19 -4l-9 -7l-1 -12l2 -13v-21l-6 -21l-40 -8l-9 3l-21 2v6zM494 181l-10 -25l-16 -3q-1 1 -5 1v1l4 8l1 6l15 39l7 20l4 7v-54zM404 70q2 0 4 0.5t4 0.5l21 -2q5 0 9 2l12 -3l12 3l13 -1l10 3q2 0 4 -0.5t4 -0.5v-13l-7 2l-11 -3l-10 2l-11 -1l-21 2l-9 -2l-22 4z" />
    <glyph glyph-name="onehalf" unicode="&#xbd;" horiz-adv-x="729" 
d="M434 407v6l4 14l7 17l21 25l9 6l8 9l10 2l8 5l11 3l23 5h22l9 -1l31 -9l18 -11l9 -9l8 -6l7 -9l10 -20l2 -7l5 -11l2 -23v-54l-12 -41l-5 -6l-4 -12l-9 -16l-8 -11l-4 -7l-7 -7l-5 -14l-12 -15l-9 -20l-9 -5l-3 -10l-7 -10l-9 -22l-7 -5l-2 -11l-6 -10l-7 -23l-5 -7
l8 -12h12l21 3l32 -2l10 2l13 -2l11 1l20 -5l4 -17v-33l-6 -19l-21 -5l-9 1l-11 -2l-20 3h-65l-9 -3l-12 3h-33l-9 -2l-23 7v33l4 31l3 7l4 22l5 10l2 11l10 20l6 19l12 16l3 11l7 8l4 12l13 18l3 9l13 14l7 13l6 5l3 12l8 8l3 9l13 17l1 12l7 8l4 31l-4 46l-5 8l-17 11h-24
l-7 -7l-8 -3l-8 -23l-3 -21l2 -10l-1 -11l2 -14l-4 -19l-22 -2h-10l-7 -3h-13l-18 8l-5 17v57zM402 663l2 -18l-8 -47l-4 -13l-3 -25l-7 -20v-28l-7 -15l1 -12l-4 -17l-3 -28l-7 -27v-16l-3 -18l-8 -26l-1 -16l-3 -11v-19l-7 -15v-30l-8 -28v-15l-6 -16l-4 -25v-19l-5 -12
l-8 -46l1 -15l-6 -11l-5 -48l-9 -22l-25 -4l-32 8l-4 27l9 46l2 27l6 18l7 61l6 13v11l6 16v28l6 19l3 25v19l5 10l7 32l-2 13l5 17l8 46l-1 12l5 12l2 17l8 60l6 16l6 58l7 12l-1 13l4 30l10 29l27 4l32 -8v-29zM198 676l-2 -13l2 -10v-20l1 -11l-2 -9v-45l2 -10l-2 -10
l1 -20l-2 -22l3 -12l-3 -17l2 -14l-2 -10l2 -9v-52l1 -20l-2 -21v-35l2 -19l-1 -9v-43l-5 -31l-29 -6l-10 1l-9 -2l-21 6l-4 21v94l2 10l-3 15l3 31l-2 18l2 13l-1 10v12l-2 10l2 11l-2 21v19l3 10v24l-2 8l1 12l-2 19l3 11l-10 12h-8l-22 4l-3 33l4 22l20 8h10l15 17l10 21
h25l12 1l20 -6zM437 633l2 -18l-8 -47l-4 -13l-3 -25l-7 -20v-28l-7 -15l1 -12l-4 -17l-3 -28l-7 -27v-16l-3 -18l-8 -26l-1 -16l-3 -11v-19l-7 -15v-30l-8 -28v-15l-6 -16l-4 -25v-19l-5 -12l-8 -46l1 -15l-6 -11l-5 -48l-9 -22l-25 -4l-32 8l-1 8l34 4l13 32
q1 12 2.5 24.5t2.5 24.5l6 12q0 3 -0.5 8.5t-0.5 8.5l8 42l5 12v23l4 21l6 16v18l8 26v29l7 15v20l3 12q0 3 0.5 6.5t0.5 7.5l7 23l4 23v15l7 26l3 30l4 16q0 2 -0.5 5t-0.5 6l7 15v31l7 18l3 26v-2l3 11l9 51l-2 20v4l20 -5v-29zM222 655l-1 -13l1 -10v-20l2 -11l-2 -9v-45
l2 -10l-2 -10l1 -20l-2 -22l3 -12l-3 -17l2 -14l-2 -10l1 -9v-52l2 -20l-2 -21v-35l2 -19l-1 -9v-43l-6 -31l-28 -6l-10 1l-10 -2l-20 6l-2 5l9 2l10 -2l36 8l7 39v44l1 11l-2 18v33l2 20l-2 22v52q0 2 -0.5 3.5t-0.5 3.5l3 10l-3 16l3 18l-3 11l2 21q0 5 -0.5 9t-0.5 9
l2 12l-2 12v41l2 9l-2 14v20l-1 10l1 13l11 -3zM562 88q-4 -1 -7.5 -2t-7.5 -1h-5q-1 1 -1 2l8 24l7 11l3 12l5 5l10 21l7 11q0 2 1 4l2 4l8 7l9 18l12 16l5 12l3 4l7 12v-1l8 10l11 20l4 11l-2 -2l6 9l14 43v56l-2 25l-7 12v5l-3 5l6 -8l11 -20l1 -7l6 -11l2 -23v-54
l-13 -41l-5 -6l-4 -12l-8 -16l-9 -11l-4 -7l-6 -7l-5 -14l-13 -15l-9 -20l-8 -5l-4 -10l-7 -10l-9 -22l-6 -5l-2 -11l-7 -10zM465 -16v3h1l9 2h31l12 -3l10 3h64l21 -2l12 2l9 -2l28 7l7 26v33l11 -2l3 -17v-33l-5 -19l-21 -5l-9 1l-11 -2l-21 3h-65l-8 -3l-12 3h-33l-9 -2z
M459 302h8q1 0 3 1l4 2h10l30 4l6 28l-2 16l1 11l-2 9l3 20l-1 -2q1 4 2.5 7.5t3.5 8.5l6 2l6 6h16l13 -8l1 -2h-10l-7 -7l-9 -3l-7 -23l-3 -21l2 -10l-1 -11l2 -14l-5 -19l-21 -2h-11l-7 -3h-12l-19 8v2z" />
    <glyph glyph-name="threequarters" unicode="&#xbe;" horiz-adv-x="784" 
d="M80 619l5 8l1 14l12 15l5 12l11 12l19 16l9 2l21 11l19 3h20l13 -2l9 -5h10l11 -4l26 -21l14 -13l5 -7l6 -13l2 -10l5 -9l5 -19l-2 -22v-48l-3 -9v-14l-6 -9l-2 -7l-8 -10l-5 -11v-12l6 -9l5 -11l7 -10l7 -26v-32l-1 -21l2 -10l-2 -10l1 -10l-3 -20v-12l-5 -21l-8 -16
l-9 -9l-6 -9l-8 -5l-9 -10l-14 -11l-20 -5l-11 -5l-10 3h-22l-11 -2l-9 2l-22 9l-15 13l-8 5l-21 25l-8 15l-10 31v35l1 10v20l3 21l19 5h11l10 -2l9 1l21 -4l4 -53v-32l3 -11l22 -18l29 2l14 16l5 12v52l1 8l-1 10l1 12l-2 21l-2 7l-6 10l-9 8l-9 4l-20 3l-19 6l-4 30l5 21
l18 6l20 1l8 8l7 4l9 8l3 11v48l-3 33l-16 14l-8 5h-18l-11 -1l-5 -12l-12 -16v-35l-5 -30l-18 -6l-21 1l-30 5l-5 19v14l3 11l-2 22zM676 465l1 -23l-1 -6v-34l1 -7l-2 -13l2 -10l-1 -9l1 -11l-2 -22v-32l2 -9v-33l-2 -8l1 -9l-1 -11l2 -19v-24l-2 -18l2 -10l9 -11l19 -3
l5 -37l-6 -23l-19 -4l-8 -7l-2 -12l2 -13v-21l-6 -21l-40 -8l-8 3l-21 2l-2 22v58l-21 1l-9 -3l-12 2l-11 -3l-10 2l-10 -1l-21 2l-10 -2l-22 4l-5 22l2 15v25l4 9l2 10l7 11l8 32l6 6l16 49l5 9l2 14l11 17l1 11l9 19l2 10l6 11l6 18l9 20l1 11l5 7l3 12l7 18l6 9l5 20
l8 19h71zM484 663l2 -18l-8 -47l-4 -13l-3 -25l-7 -20v-28l-7 -15l1 -12l-4 -17l-3 -28l-7 -27v-16l-3 -18l-8 -26l-1 -16l-3 -11v-19l-7 -15v-30l-8 -28v-15l-6 -16l-4 -25v-19l-5 -12l-8 -46l1 -15l-6 -11l-5 -48l-9 -22l-25 -4l-32 8l-4 27l9 46l2 27l6 18l7 61l6 13v11
l6 16v28l6 19l3 25v19l5 10l7 32l-2 13l5 17l8 46l-1 12l5 12l2 17l8 60l6 16l6 58l7 12l-1 13l4 30l10 29l27 4l32 -8v-29zM519 633l2 -18l-8 -47l-4 -13l-3 -25l-7 -20v-28l-7 -15l1 -12l-4 -17l-3 -28l-7 -27v-16l-3 -18l-8 -26l-1 -16l-3 -11v-19l-7 -15v-30l-8 -28v-15
l-6 -16l-4 -25v-19l-5 -12l-8 -46l1 -15l-6 -11l-5 -48l-9 -22l-25 -4l-32 8l-1 8l34 4l13 32q1 12 2.5 24.5t2.5 24.5l6 12q0 3 -0.5 8.5t-0.5 8.5l8 42l5 12v23l4 21l6 16v18l8 26v29l7 15v20l3 12q0 3 0.5 6.5t0.5 7.5l7 23l4 23v15l7 26l3 30l4 16q0 2 -0.5 5t-0.5 6
l7 15v31l7 18l3 26v-2l3 11l9 51l-2 20v4l20 -5v-29zM170 194l12 3h19l13 -3q2 0 6 2t7 3l22 6l19 14l8 9l-2 -1l10 7l7 10l8 8l10 20l6 22v14l2 19q0 2 -0.5 5t-0.5 5l3 11l-3 13l1 18v35l-7 26l3 -3l4 -11l7 -10l7 -26v-32l-1 -21l2 -10l-2 -10l1 -10l-2 -20v-12l-6 -21
l-8 -16l-8 -9l-6 -9l-8 -5l-9 -10l-15 -11l-19 -5l-12 -5l-9 3h-23l-10 -2l-9 2zM598 259l1 10v21h-3l-7 -16l-10 -23v-10l-6 -9l-7 -21l-15 -39l-2 -9l-6 -7l6 -12l10 -2l20 4l10 -4l9 11v106zM701 444l1 -23l-1 -6v-34l1 -7l-3 -13l3 -10l-1 -9l1 -11l-3 -22v-32l3 -9v-33
l-3 -8l2 -9l-2 -11l2 -19v-24l-1 -9l-9 1l-3 5l-2 6l1 16v27l-2 20l2 9q0 2 -1 3.5t-1 3.5l3 7v39l-3 9v28l3 22l-1 12l1 12l-3 9l3 9l-1 9v34l1 6l-1 25h9zM626 -13l4 -1l49 9l9 30v23l-2 14q0 1 0.5 2t0.5 2l1 2q0 1 1 1l24 6l7 31l-2 18l11 -2l5 -37l-5 -23l-19 -4l-9 -7
l-1 -12l2 -13v-21l-6 -21l-40 -8l-9 3l-21 2v6zM307 446l3 -5l-7 11l-10 18v6l4 10l7 8l3 10l6 10v13l4 9v51l1 25l-4 18l-6 10l-1 9l3 -3l5 -7l6 -13l1 -10l6 -9l4 -19l-1 -22v-48l-4 -9v-14l-5 -9l-2 -7l-8 -10l-5 -11v-12zM105 530l5 -1l25 -1l26 9l6 36v32l10 15l4 8h19
q1 -2 2.5 -2.5t2.5 -1.5l7 -7h-4l-11 -1l-5 -12l-11 -16v-35l-6 -30l-17 -6l-22 1l-30 5zM587 181l-10 -25l-16 -3q-1 1 -5 1v1l4 8l1 6l15 39l7 20l4 7v-54zM180 292l-12 10l-2 7v30l-3 35l13 -3l4 -53v-26zM497 70q2 0 4 0.5t4 0.5l21 -2q5 0 9 2l12 -3l12 3l13 -1l10 3
q2 0 4 -0.5t4 -0.5v-13l-7 2l-11 -3l-10 2l-11 -1l-21 2l-9 -2l-22 4zM187 431l13 -1l6 -3l6 -6l-5 1l-20 6v3z" />
    <glyph glyph-name="questiondown" unicode="&#xbf;" horiz-adv-x="418" 
d="M371 131l-4 -13l-3 -27l-7 -17l-13 -27l-10 -7l-12 -14l-9 -6l-17 -5l-11 -7l-16 -5l-14 2l-29 -8l-31 6l-18 -3l-14 3l-14 -1l-14 7l-12 3l-13 10l-15 7l-20 18l-10 12l-4 17l-7 12l-7 32l1 10l-2 21v30l4 43v34l10 24l10 13l16 24l5 13l8 13l10 7l17 28l4 14l10 9
l10 30l11 30v18l4 13l2 28l8 31l28 11l16 -2l35 -10l4 -25l-3 -20v-15l-4 -31l-3 -13l-3 -28l-8 -18v-12l-15 -27l-4 -15l-8 -12l-6 -15l-11 -16l-4 -14l-12 -8l-12 -25l-3 -16l-5 -16v-82l8 -25l12 -11l16 -5l31 -2h17l20 17l8 17v63l3 13l3 47l33 6l12 -2l44 -8l9 -41
l-3 -20l1 -45v-17zM192 119l-9 3q-2 1 -2.5 2.5t-1.5 2.5l-7 21v75l5 16l3 16q3 5 4.5 9t3.5 9l15 8l5 19l10 14l6 16l-1 -1l10 16l4 15l15 26v13l8 19l3 28v-2l2 11l5 36v14l3 21l16 -4l4 -25l-3 -20v-15l-4 -31l-3 -13l-3 -28l-8 -18v-12l-15 -27l-4 -15l-8 -12l-6 -15
l-11 -16l-4 -14l-12 -8l-12 -25l-3 -16l-5 -16v-77zM258 631l-19 -23l-44 -8l-22 16l-16 27v31l25 33l46 3l11 -6l12 -10l15 -22l-2 -32zM386 148q0 11 -0.5 21.5t-0.5 21.5l4 23l-3 12l13 -2l9 -41l-3 -20l1 -45v-17l-4 -13l-3 -27l-7 -17l-13 -27l-10 -7l-12 -14l-9 -6
l-17 -5l-11 -7l-16 -5l-14 2l-29 -8l-31 6l-18 -3l-14 3l-14 -1l-14 7l-12 3l-7 6h8l16 -4l18 4l33 -7q5 2 14 4.5t16 4.5l16 -2l17 5q2 1 4.5 3t5.5 4l18 5l19 13q3 3 4.5 5.5t4.5 5.5l-3 -1l15 10l14 30l8 19l3 29v-2l4 13v21zM280 668l6 -4l15 -22l-2 -32l-6 -9l-19 -23
l-36 -7l-17 5l-13 10l-1 1l39 7l22 25l11 18z" />
    <glyph glyph-name="Agrave" unicode="&#xc0;" horiz-adv-x="516" 
d="M317 670l1 -16l10 -25v-15l7 -18l2 -11l5 -33l11 -28l1 -12l5 -16l1 -13l6 -17v-16l7 -28l7 -14l6 -33l9 -25v-16l7 -12v-18l7 -17l3 -30l10 -28l1 -13l6 -13l4 -19l4 -23l7 -16l1 -16l6 -13l5 -28l5 -34l7 -12l3 -29l-11 -7l-26 -10h-18l-18 5l-24 3l-18 41l-2 18
l-18 12l-15 3h-17l-15 -5h-48l-17 6l-30 -6l-16 1l-17 -11l-4 -15l-12 -42l-29 -5h-17l-14 -4l-31 3l-7 13l3 25v16l6 17l5 26l9 29l6 31l7 27l8 36l6 8v20l10 29v13l7 29l10 28l2 13l5 31l7 14l4 31l5 15l1 12l7 18v16l9 30l9 23v19l11 27v18l8 26l1 16l8 13l8 29l26 -2
l14 6l15 -4h40zM320 212l-5 12l-8 30l-7 17v17l-5 9v15l-7 18v10l-10 31l-2 17l-8 26l-6 33l-8 -4l-5 -15v-9l-5 -16l-2 -15l-7 -18l-1 -11l-7 -16l-3 -30l-5 -11l-2 -16l-11 -31l-1 -16l-5 -11l-4 -15v-17l9 -15h46l29 5l17 -5l20 2l6 17zM352 640l1 -16l10 -25v-15l7 -18
l2 -11l5 -33l11 -28l1 -12l5 -16l1 -13l6 -17v-16l7 -28l7 -14l6 -33l9 -25v-16l7 -12v-18l7 -17l3 -30l10 -28l1 -13l6 -13l4 -19l4 -23l7 -16l1 -16l6 -13l5 -28l5 -34l7 -12l3 -29l-11 -7l-26 -10h-18l-18 5l-24 3l-4 10l9 -3h22l29 11l22 14l-4 39l-7 13l-5 31l-5 30
l-6 14l-1 15l-7 17l-4 21l-4 20l-6 14l-1 11q-2 5 -5 13t-5 14l-3 33l-7 17v17l-7 13v14q-2 5 -4.5 13t-4.5 13l-6 33q-2 2 -3.5 6.5t-3.5 8.5l-7 27v16l-6 18l-1 12l-5 16l-1 11l-11 27q-1 8 -2.5 16t-2.5 16l-2 13q-1 3 -3 8t-4 9v16l-10 25l-1 12h7zM82 -17l6 -1l13 4h17
l38 6l18 61l8 6l15 -1l25 5l16 -5h54l15 5h13l12 -3l8 -4v-8h-1l-15 -5h-48l-17 6l-30 -6l-16 1l-17 -11l-4 -15l-12 -42l-29 -5h-17l-14 -4l-31 3zM234 196h-20l-3 5v11l3 12l6 13q0 3 0.5 8.5t0.5 9.5l11 30q0 3 1 6.5t1 7.5l5 10l2 29l8 18q0 2 0.5 5t0.5 6l7 19q0 5 1 7
l3 -9l2 -14l8 -26l-1 -4l-1 -11l-7 -16l-3 -30l-5 -11l-2 -16l-11 -31l-1 -16l-5 -11zM298 838l4 -15l7 -16l16 -38l-9 -12l-24 -11l-19 6l-29 24l-27 26l-26 34l5 17l52 7l16 -5h20zM333 808l4 -15l7 -16l16 -38l-9 -12l-24 -11l-19 6l-12 10l30 13l16 22l-19 46
q-2 2 -3.5 5.5t-2.5 6.5h2z" />
    <glyph glyph-name="Aacute" unicode="&#xc1;" horiz-adv-x="516" 
d="M317 670l1 -16l10 -25v-15l7 -18l2 -11l5 -33l11 -28l1 -12l5 -16l1 -13l6 -17v-16l7 -28l7 -14l6 -33l9 -25v-16l7 -12v-18l7 -17l3 -30l10 -28l1 -13l6 -13l4 -19l4 -23l7 -16l1 -16l6 -13l5 -28l5 -34l7 -12l3 -29l-11 -7l-26 -10h-18l-18 5l-24 3l-18 41l-2 18
l-18 12l-15 3h-17l-15 -5h-48l-17 6l-30 -6l-16 1l-17 -11l-4 -15l-12 -42l-29 -5h-17l-14 -4l-31 3l-7 13l3 25v16l6 17l5 26l9 29l6 31l7 27l8 36l6 8v20l10 29v13l7 29l10 28l2 13l5 31l7 14l4 31l5 15l1 12l7 18v16l9 30l9 23v19l11 27v18l8 26l1 16l8 13l8 29l26 -2
l14 6l15 -4h40zM320 212l-5 12l-8 30l-7 17v17l-5 9v15l-7 18v10l-10 31l-2 17l-8 26l-6 33l-8 -4l-5 -15v-9l-5 -16l-2 -15l-7 -18l-1 -11l-7 -16l-3 -30l-5 -11l-2 -16l-11 -31l-1 -16l-5 -11l-4 -15v-17l9 -15h46l29 5l17 -5l20 2l6 17zM352 640l1 -16l10 -25v-15l7 -18
l2 -11l5 -33l11 -28l1 -12l5 -16l1 -13l6 -17v-16l7 -28l7 -14l6 -33l9 -25v-16l7 -12v-18l7 -17l3 -30l10 -28l1 -13l6 -13l4 -19l4 -23l7 -16l1 -16l6 -13l5 -28l5 -34l7 -12l3 -29l-11 -7l-26 -10h-18l-18 5l-24 3l-4 10l9 -3h22l29 11l22 14l-4 39l-7 13l-5 31l-5 30
l-6 14l-1 15l-7 17l-4 21l-4 20l-6 14l-1 11q-2 5 -5 13t-5 14l-3 33l-7 17v17l-7 13v14q-2 5 -4.5 13t-4.5 13l-6 33q-2 2 -3.5 6.5t-3.5 8.5l-7 27v16l-6 18l-1 12l-5 16l-1 11l-11 27q-1 8 -2.5 16t-2.5 16l-2 13q-1 3 -3 8t-4 9v16l-10 25l-1 12h7zM82 -17l6 -1l13 4h17
l38 6l18 61l8 6l15 -1l25 5l16 -5h54l15 5h13l12 -3l8 -4v-8h-1l-15 -5h-48l-17 6l-30 -6l-16 1l-17 -11l-4 -15l-12 -42l-29 -5h-17l-14 -4l-31 3zM234 196h-20l-3 5v11l3 12l6 13q0 3 0.5 8.5t0.5 9.5l11 30q0 3 1 6.5t1 7.5l5 10l2 29l8 18q0 2 0.5 5t0.5 6l7 19q0 5 1 7
l3 -9l2 -14l8 -26l-1 -4l-1 -11l-7 -16l-3 -30l-5 -11l-2 -16l-11 -31l-1 -16l-5 -11zM302 860l13 -13l2 -13l-20 -27l-20 -19l-8 -10l-28 -25l-17 -3l-25 3l-8 18l12 28l2 9l11 15l21 37h65zM228 735l19 4l32 28l10 13l-1 -3l17 16l26 37h6l13 -13l2 -13l-20 -27l-20 -19
l-8 -10l-28 -25l-17 -3l-25 3z" />
    <glyph glyph-name="Acircumflex" unicode="&#xc2;" horiz-adv-x="516" 
d="M317 670l1 -16l10 -25v-15l7 -18l2 -11l5 -33l11 -28l1 -12l5 -16l1 -13l6 -17v-16l7 -28l7 -14l6 -33l9 -25v-16l7 -12v-18l7 -17l3 -30l10 -28l1 -13l6 -13l4 -19l4 -23l7 -16l1 -16l6 -13l5 -28l5 -34l7 -12l3 -29l-11 -7l-26 -10h-18l-18 5l-24 3l-18 41l-2 18
l-18 12l-15 3h-17l-15 -5h-48l-17 6l-30 -6l-16 1l-17 -11l-4 -15l-12 -42l-29 -5h-17l-14 -4l-31 3l-7 13l3 25v16l6 17l5 26l9 29l6 31l7 27l8 36l6 8v20l10 29v13l7 29l10 28l2 13l5 31l7 14l4 31l5 15l1 12l7 18v16l9 30l9 23v19l11 27v18l8 26l1 16l8 13l8 29l26 -2
l14 6l15 -4h40zM320 212l-5 12l-8 30l-7 17v17l-5 9v15l-7 18v10l-10 31l-2 17l-8 26l-6 33l-8 -4l-5 -15v-9l-5 -16l-2 -15l-7 -18l-1 -11l-7 -16l-3 -30l-5 -11l-2 -16l-11 -31l-1 -16l-5 -11l-4 -15v-17l9 -15h46l29 5l17 -5l20 2l6 17zM352 640l1 -16l10 -25v-15l7 -18
l2 -11l5 -33l11 -28l1 -12l5 -16l1 -13l6 -17v-16l7 -28l7 -14l6 -33l9 -25v-16l7 -12v-18l7 -17l3 -30l10 -28l1 -13l6 -13l4 -19l4 -23l7 -16l1 -16l6 -13l5 -28l5 -34l7 -12l3 -29l-11 -7l-26 -10h-18l-18 5l-24 3l-4 10l9 -3h22l29 11l22 14l-4 39l-7 13l-5 31l-5 30
l-6 14l-1 15l-7 17l-4 21l-4 20l-6 14l-1 11q-2 5 -5 13t-5 14l-3 33l-7 17v17l-7 13v14q-2 5 -4.5 13t-4.5 13l-6 33q-2 2 -3.5 6.5t-3.5 8.5l-7 27v16l-6 18l-1 12l-5 16l-1 11l-11 27q-1 8 -2.5 16t-2.5 16l-2 13q-1 3 -3 8t-4 9v16l-10 25l-1 12h7zM82 -17l6 -1l13 4h17
l38 6l18 61l8 6l15 -1l25 5l16 -5h54l15 5h13l12 -3l8 -4v-8h-1l-15 -5h-48l-17 6l-30 -6l-16 1l-17 -11l-4 -15l-12 -42l-29 -5h-17l-14 -4l-31 3zM234 196h-20l-3 5v11l3 12l6 13q0 3 0.5 8.5t0.5 9.5l11 30q0 3 1 6.5t1 7.5l5 10l2 29l8 18q0 2 0.5 5t0.5 6l7 19q0 5 1 7
l3 -9l2 -14l8 -26l-1 -4l-1 -11l-7 -16l-3 -30l-5 -11l-2 -16l-11 -31l-1 -16l-5 -11zM310 839l7 -11l18 -25l12 -25v-12l-12 -16l-33 13l-24 22l-12 7h-25l-10 -11l-14 -8l-8 -7l-22 -13l-19 3l-5 5v20l15 21l7 13l17 27l15 16h23l13 2l17 -4l25 2zM198 731v11l23 14l7 6
l13 7l7 8h15q3 -3 6 -4l12 -11h-5l-10 -11l-14 -8l-8 -7l-22 -13l-19 3zM340 732l22 29v20l-5 9l13 -17l12 -25v-12l-12 -16zM340 732l-4 1h1z" />
    <glyph glyph-name="Atilde" unicode="&#xc3;" horiz-adv-x="516" 
d="M317 670l1 -16l10 -25v-15l7 -18l2 -11l5 -33l11 -28l1 -12l5 -16l1 -13l6 -17v-16l7 -28l7 -14l6 -33l9 -25v-16l7 -12v-18l7 -17l3 -30l10 -28l1 -13l6 -13l4 -19l4 -23l7 -16l1 -16l6 -13l5 -28l5 -34l7 -12l3 -29l-11 -7l-26 -10h-18l-18 5l-24 3l-18 41l-2 18
l-18 12l-15 3h-17l-15 -5h-48l-17 6l-30 -6l-16 1l-17 -11l-4 -15l-12 -42l-29 -5h-17l-14 -4l-31 3l-7 13l3 25v16l6 17l5 26l9 29l6 31l7 27l8 36l6 8v20l10 29v13l7 29l10 28l2 13l5 31l7 14l4 31l5 15l1 12l7 18v16l9 30l9 23v19l11 27v18l8 26l1 16l8 13l8 29l26 -2
l14 6l15 -4h40zM320 212l-5 12l-8 30l-7 17v17l-5 9v15l-7 18v10l-10 31l-2 17l-8 26l-6 33l-8 -4l-5 -15v-9l-5 -16l-2 -15l-7 -18l-1 -11l-7 -16l-3 -30l-5 -11l-2 -16l-11 -31l-1 -16l-5 -11l-4 -15v-17l9 -15h46l29 5l17 -5l20 2l6 17zM352 640l1 -16l10 -25v-15l7 -18
l2 -11l5 -33l11 -28l1 -12l5 -16l1 -13l6 -17v-16l7 -28l7 -14l6 -33l9 -25v-16l7 -12v-18l7 -17l3 -30l10 -28l1 -13l6 -13l4 -19l4 -23l7 -16l1 -16l6 -13l5 -28l5 -34l7 -12l3 -29l-11 -7l-26 -10h-18l-18 5l-24 3l-4 10l9 -3h22l29 11l22 14l-4 39l-7 13l-5 31l-5 30
l-6 14l-1 15l-7 17l-4 21l-4 20l-6 14l-1 11q-2 5 -5 13t-5 14l-3 33l-7 17v17l-7 13v14q-2 5 -4.5 13t-4.5 13l-6 33q-2 2 -3.5 6.5t-3.5 8.5l-7 27v16l-6 18l-1 12l-5 16l-1 11l-11 27q-1 8 -2.5 16t-2.5 16l-2 13q-1 3 -3 8t-4 9v16l-10 25l-1 12h7zM82 -17l6 -1l13 4h17
l38 6l18 61l8 6l15 -1l25 5l16 -5h54l15 5h13l12 -3l8 -4v-8h-1l-15 -5h-48l-17 6l-30 -6l-16 1l-17 -11l-4 -15l-12 -42l-29 -5h-17l-14 -4l-31 3zM234 196h-20l-3 5v11l3 12l6 13q0 3 0.5 8.5t0.5 9.5l11 30q0 3 1 6.5t1 7.5l5 10l2 29l8 18q0 2 0.5 5t0.5 6l7 19q0 5 1 7
l3 -9l2 -14l8 -26l-1 -4l-1 -11l-7 -16l-3 -30l-5 -11l-2 -16l-11 -31l-1 -16l-5 -11zM132 820l7 17l14 9l24 9h31l13 -4h17l14 -9l12 -2l15 -9l16 -5l34 3l15 5h31l17 -16v-19l-15 -18l-26 -13l-25 -17h-30l-14 8l-15 5l-26 13l-24 9h-26l-13 -6l-45 -5l-11 15l-5 12z
M298 736h33l28 19h-1l30 15l19 23v11h3l17 -16v-19l-15 -18l-26 -13l-25 -17h-30l-14 8l-15 5zM156 762l25 3l14 6h19q5 -2 10 -3.5t10 -3.5l16 -8h-24l-13 -6l-45 -5l-11 15z" />
    <glyph glyph-name="Adieresis" unicode="&#xc4;" horiz-adv-x="516" 
d="M317 670l1 -16l10 -25v-15l7 -18l2 -11l5 -33l11 -28l1 -12l5 -16l1 -13l6 -17v-16l7 -28l7 -14l6 -33l9 -25v-16l7 -12v-18l7 -17l3 -30l10 -28l1 -13l6 -13l4 -19l4 -23l7 -16l1 -16l6 -13l5 -28l5 -34l7 -12l3 -29l-11 -7l-26 -10h-18l-18 5l-24 3l-18 41l-2 18
l-18 12l-15 3h-17l-15 -5h-48l-17 6l-30 -6l-16 1l-17 -11l-4 -15l-12 -42l-29 -5h-17l-14 -4l-31 3l-7 13l3 25v16l6 17l5 26l9 29l6 31l7 27l8 36l6 8v20l10 29v13l7 29l10 28l2 13l5 31l7 14l4 31l5 15l1 12l7 18v16l9 30l9 23v19l11 27v18l8 26l1 16l8 13l8 29l26 -2
l14 6l15 -4h40zM320 212l-5 12l-8 30l-7 17v17l-5 9v15l-7 18v10l-10 31l-2 17l-8 26l-6 33l-8 -4l-5 -15v-9l-5 -16l-2 -15l-7 -18l-1 -11l-7 -16l-3 -30l-5 -11l-2 -16l-11 -31l-1 -16l-5 -11l-4 -15v-17l9 -15h46l29 5l17 -5l20 2l6 17zM352 640l1 -16l10 -25v-15l7 -18
l2 -11l5 -33l11 -28l1 -12l5 -16l1 -13l6 -17v-16l7 -28l7 -14l6 -33l9 -25v-16l7 -12v-18l7 -17l3 -30l10 -28l1 -13l6 -13l4 -19l4 -23l7 -16l1 -16l6 -13l5 -28l5 -34l7 -12l3 -29l-11 -7l-26 -10h-18l-18 5l-24 3l-4 10l9 -3h22l29 11l22 14l-4 39l-7 13l-5 31l-5 30
l-6 14l-1 15l-7 17l-4 21l-4 20l-6 14l-1 11q-2 5 -5 13t-5 14l-3 33l-7 17v17l-7 13v14q-2 5 -4.5 13t-4.5 13l-6 33q-2 2 -3.5 6.5t-3.5 8.5l-7 27v16l-6 18l-1 12l-5 16l-1 11l-11 27q-1 8 -2.5 16t-2.5 16l-2 13q-1 3 -3 8t-4 9v16l-10 25l-1 12h7zM82 -17l6 -1l13 4h17
l38 6l18 61l8 6l15 -1l25 5l16 -5h54l15 5h13l12 -3l8 -4v-8h-1l-15 -5h-48l-17 6l-30 -6l-16 1l-17 -11l-4 -15l-12 -42l-29 -5h-17l-14 -4l-31 3zM234 196h-20l-3 5v11l3 12l6 13q0 3 0.5 8.5t0.5 9.5l11 30q0 3 1 6.5t1 7.5l5 10l2 29l8 18q0 2 0.5 5t0.5 6l7 19q0 5 1 7
l3 -9l2 -14l8 -26l-1 -4l-1 -11l-7 -16l-3 -30l-5 -11l-2 -16l-11 -31l-1 -16l-5 -11zM136 833l8 12l23 16l29 -4l15 -6l10 -10l10 -7l5 -13l3 -33l-9 -13l-31 -27l-30 2l-24 13l-17 26l2 30zM287 830l6 12l26 17l40 -4l23 -22l7 -13l-7 -44l-11 -11l-12 -8l-9 -3l-30 -2
l-26 13l-16 26l3 29zM327 737l25 2l12 4l18 11l14 14l8 47l13 -12l7 -13l-7 -44l-11 -11l-12 -8l-9 -3l-30 -2l-26 13zM179 734l26 -1l37 32l12 19l-2 31l4 -4l8 -6l-2 -18l11 -17l1 -12l-9 -13l-31 -27l-30 2l-24 13z" />
    <glyph glyph-name="Aring" unicode="&#xc5;" horiz-adv-x="516" 
d="M244 713l33 -2l32 13l22 30l10 18l2 14l-4 50l-1 2l8 -6l13 -30l4 -46l-2 -9l-9 -17l-18 -24l-24 -10h-5l12 -26l1 -16l10 -25v-15l7 -18l2 -11l5 -33l11 -28l1 -12l5 -16l1 -13l6 -17v-16l7 -28l7 -14l6 -33l9 -25v-16l7 -12v-18l7 -17l3 -30l10 -28l1 -13l6 -13l4 -19
l4 -23l7 -16l1 -16l6 -13l5 -28l5 -34l7 -12l3 -29l-11 -7l-26 -10h-18l-18 5l-24 3l-18 41l-2 18l-18 12l-15 3h-17l-15 -5h-48l-17 6l-30 -6l-16 1l-17 -11l-4 -15l-12 -42l-29 -5h-17l-14 -4l-31 3l-7 13l3 25v16l6 17l5 26l9 29l6 31l7 27l8 36l6 8v20l10 29v13l7 29
l10 28l2 13l5 31l7 14l4 31l5 15l1 12l7 18v16l9 30l9 23v19l11 27v18l8 26l1 16l8 13l8 29l26 -2l14 6l15 -4h16l-15 1l-14 7zM320 212l-5 12l-8 30l-7 17v17l-5 9v15l-7 18v10l-10 31l-2 17l-8 26l-6 33l-8 -4l-5 -15v-9l-5 -16l-2 -15l-7 -18l-1 -11l-7 -16l-3 -30
l-5 -11l-2 -16l-11 -31l-1 -16l-5 -11l-4 -15v-17l9 -15h46l29 5l17 -5l20 2l6 17zM192 838l5 8l5 14l14 10l10 12l14 -2h47l24 -18l13 -30l4 -46l-2 -9l-9 -17l-18 -24l-24 -10l-45 3l-14 7l-13 13l-8 12l-4 12v44zM352 640l1 -16l10 -25v-15l7 -18l2 -11l5 -33l11 -28
l1 -12l5 -16l1 -13l6 -17v-16l7 -28l7 -14l6 -33l9 -25v-16l7 -12v-18l7 -17l3 -30l10 -28l1 -13l6 -13l4 -19l4 -23l7 -16l1 -16l6 -13l5 -28l5 -34l7 -12l3 -29l-11 -7l-26 -10h-18l-18 5l-24 3l-4 10l9 -3h22l29 11l22 14l-4 39l-7 13l-5 31l-5 30l-6 14l-1 15l-7 17
l-4 21l-4 20l-6 14l-1 11q-2 5 -5 13t-5 14l-3 33l-7 17v17l-7 13v14q-2 5 -4.5 13t-4.5 13l-6 33q-2 2 -3.5 6.5t-3.5 8.5l-7 27v16l-6 18l-1 12l-5 16l-1 11l-11 27q-1 8 -2.5 16t-2.5 16l-2 13q-1 3 -3 8t-4 9v16l-10 25l-1 12h7zM82 -17l6 -1l13 4h17l38 6l18 61l8 6
l15 -1l25 5l16 -5h54l15 5h13l12 -3l8 -4v-8h-1l-15 -5h-48l-17 6l-30 -6l-16 1l-17 -11l-4 -15l-12 -42l-29 -5h-17l-14 -4l-31 3zM234 196h-20l-3 5v11l3 12l6 13q0 3 0.5 8.5t0.5 9.5l11 30q0 3 1 6.5t1 7.5l5 10l2 29l8 18q0 2 0.5 5t0.5 6l7 19q0 5 1 7l3 -9l2 -14
l8 -26l-1 -4l-1 -11l-7 -16l-3 -30l-5 -11l-2 -16l-11 -31l-1 -16l-5 -11zM240 770l33 5l11 13v32l-11 19h-31l-12 -15v-34zM245 819l4 5h15l5 -9v-16l-4 -5v-5l-17 -3l-3 7v26z" />
    <glyph glyph-name="AE" unicode="&#xc6;" horiz-adv-x="685" 
d="M624 662l2 -14v-22l-5 -29l-29 -8l-30 2l-15 -5l-16 2l-26 4l-15 -5h-16l-13 -11v-20l-2 -13v-49l2 -24v-34l-2 -14l3 -31l13 -16l33 2l12 -1l20 -5l11 5h16l31 -7l8 -54l-3 -16l-2 -28l-32 -5h-17l-12 -3l-18 4l-30 -4h-15l-16 -15v-64l-3 -28v-28l19 -21h14l11 5l28 -6
h19l14 2l12 -2l16 3l29 -7l6 -30l-1 -13v-27l-6 -24l-31 -12l-12 5l-17 -3l-13 4l-29 -6l-14 4l-28 -3l-32 4l-29 -4l-14 2l-13 -3l-33 12l-5 25v26l-13 18h-15l-28 -4l-18 5l-12 1l-32 -2l-11 2l-19 -4l-19 -14l-2 -14l-9 -7l-15 -40h-27l-11 -3l-14 3l-17 -3l-28 4l-8 18
l7 26l11 27l12 29l10 17l3 11l13 29l3 16l16 23l9 30l9 18l2 8l10 15l2 16l15 27l2 13l10 14l5 18l7 8l2 14l9 20l7 11l8 30l8 14l3 10l13 30l9 14l2 16l10 11l7 31l8 14l4 15l7 13l9 9l6 17l3 16l9 10l2 18l12 20l28 3l14 -2h33l14 -2l13 6l17 -3h31l12 -2l16 5l14 -4
l33 -2l15 5l46 -10zM339 438l-8 -15l-3 -19l-5 -14l-9 -13l-6 -14l-9 -25l-14 -27l-4 -14l-7 -15l-4 -14l-13 -28l-11 -31l-7 -11l8 -13h29l32 -5l15 1l15 5l12 15l2 28v85l-4 13l4 36l-4 9l3 29v35l-2 12l-5 1zM659 632l2 -14v-22l-5 -29l-29 -8l-30 2l-15 -5l-16 2l-26 4
l-15 -5h-16l-13 -11v-20l-2 -13v-49l2 -24v-34l-2 -14v-2h-11l-7 8l-2 25l2 13v34l-2 24v49l2 13v13l3 3h14l14 5l22 -4l21 -2l15 5l30 -2l40 10l6 40v24l-2 16l17 -3zM493 124l-4 -2h-5q-3 4 -6 6.5t-5 4.5v21l3 28v59l8 7h9l28 4l21 -5l14 4h14l46 6q0 6 1 18.5t1 20.5
l3 18l-4 28l16 -3l8 -54l-3 -16l-2 -28l-32 -5h-17l-12 -3l-18 4l-30 -4h-15l-16 -15v-64l-3 -28v-2zM388 -19l15 3l13 -2l27 4l32 -4l26 2l15 -4l29 6l13 -4l17 3l13 -5l44 17l8 31v31l1 16l14 -3l6 -30l-1 -13v-27l-6 -24l-31 -12l-12 5l-17 -3l-13 4l-29 -6l-14 4l-28 -3
l-32 4l-29 -4l-14 2l-13 -3l-33 12zM89 -18l15 2l13 -3l14 4h35q4 9 8.5 22.5t8.5 23.5l12 7v6t1 9q2 1 4 3l4 4l16 4l11 -2l32 2q2 0 6 -0.5t6 -0.5l17 -5l31 4h6l5 -7v-11l-6 -1l-18 5l-12 1l-32 -2l-11 2l-19 -4l-19 -14l-2 -14l-9 -7l-15 -40h-27l-11 -3l-14 3l-17 -3
l-28 4zM333 324l3 -11l-2 -5l-14 -27l-4 -14l-7 -15l-4 -14l-13 -28l-4 -12l-11 2h-20l2 3q2 8 6 16.5t6 16.5v-2l14 31l4 13l-1 -2l8 18l4 13l11 22l11 29l4 10l7 10v-7q0 -2 1.5 -5l2.5 -5z" />
    <glyph glyph-name="Ccedilla" unicode="&#xc7;" horiz-adv-x="446" 
d="M51 565l1 12l8 16l2 11l9 17l13 26l20 22l23 18l12 7l16 5l12 7l16 -2l17 5l41 5l17 -5l30 -8h14l26 -19l12 -5l11 -9l21 -22l17 -24l8 -30l7 -29v-63l3 -17l-9 -25l-28 -6l-12 -6l-17 2l-13 -1l-29 5l-4 33v64l-13 26l-11 14l-28 13l-29 -4l-16 -4l-24 -17l-9 -12
l-4 -20l-3 -47v-26l3 -16l-4 -18v-40l4 -15l-4 -18v-43l4 -34l-3 -28l3 -29l-4 -32l4 -47l6 -14l4 -17l11 -11l14 -10h46l31 13l11 9l9 29v50l7 44l27 5l16 -4l13 1h44l6 -46v-53l-7 -11v-34l-6 -15l-16 -21l-16 -27l-11 -9l-12 -14l-15 -3l-14 -13l-16 -4l-28 -6l-18 -16
l-2 -20l11 -19l27 -5l14 -9l15 -25l3 -15v-28l-3 -12l-19 -21l-15 -9l-30 -5l-45 4l-12 8l-15 3l-21 19l7 23l32 -2l35 -6l13 8l4 24l-22 18l-13 3l-28 12l-5 12l10 41l-10 21l-15 4l-29 12l-24 15l-25 25l-16 22l-4 18l-5 11l-3 18l-6 12v66l-3 10l-1 14l4 15v30l-4 33
l4 15l-4 25l4 34l-2 9v36l2 13l-4 26v28l3 21l-3 15l4 24v19zM196 122l2 -5l-7 5l2 -1l-8 8l-3 12l-6 15l-4 43l4 33l-3 28l3 27l-4 36v42l4 18l-4 16v39l4 18l-3 19v22l3 47l4 15q2 2 2 3t2 3l21 15l12 3h-1l24 4l21 -10l5 -7l-17 -2l-16 -4l-24 -17l-9 -12l-4 -20l-3 -47
v-26l3 -16l-4 -18v-40l4 -15l-4 -18v-43l4 -34l-3 -28l3 -29l-4 -32zM284 -53l-19 3q-2 2 -2.5 4t-2.5 4q0 2 0.5 4t0.5 4q4 4 6 6.5t6 5.5q7 2 12 2t11 2l21 5l14 13l16 4l14 16l10 8l18 30l18 24l7 18v33l7 13v57l-2 14h16l6 -46v-53l-7 -11v-34l-6 -15l-16 -21l-16 -27
l-11 -9l-12 -14l-15 -3l-14 -13l-16 -4l-28 -6zM332 432l9 1l20 -2l14 7l34 7l14 38l-4 18v65l-7 29l-6 22l1 -1l17 -24l8 -30l7 -29v-63l3 -17l-9 -25l-28 -6l-12 -6l-17 2l-13 -1l-29 5zM207 -204l41 -4l35 5l19 12l25 27l3 14v35l-2 10l4 -3l15 -25l3 -15v-28l-3 -12
l-19 -21l-15 -9l-30 -5l-45 4l-12 8l-15 3z" />
    <glyph glyph-name="Egrave" unicode="&#xc8;" horiz-adv-x="409" 
d="M348 663l1 -9l-2 -19l3 -14l-9 -24l-28 -7h-59l-14 -4h-39l-15 -14v-118l-4 -19l3 -46l13 -18h47l19 2l13 -1l16 5l32 -5l3 -29l-2 -30l2 -17l-4 -29l-31 -3h-31l-33 3l-27 -6l-16 -9v-21l-2 -13l2 -19v-59l-3 -12l16 -19l31 -3l28 6h55l31 -5l6 -48l-2 -12l2 -14l-8 -25
l-26 -8l-17 2l-15 -5l-13 2h-60l-14 -3h-17l-26 6l-17 -6h-11l-45 9l-8 44l2 27l-3 33v28l3 15l-1 15l2 15v31l-3 19l3 26l-4 18l3 11v34l-3 10v19l4 16l-3 27l2 18l-2 31l2 29l-2 15l2 27v64l-3 12v28l4 33l-1 15l5 32l31 3l29 -2l12 2l14 -4l15 5l14 -3h30l32 3l13 -2
l13 3l62 -11zM383 633l1 -9l-2 -19l3 -14l-9 -24l-28 -7h-59l-14 -4h-39l-15 -14v-118l-4 -19l1 -19h-13l-5 6l-3 43l4 17v113q4 3 6 6h37l14 4h58l36 9l14 37l-4 18l2 15l-1 10l17 -3zM221 122l-13 2l-8 8l1 6v61l-2 19l2 13v12l7 4l24 5l29 -3h33l44 4l5 41l-2 19l2 31
l17 -2l3 -29l-2 -30l2 -17l-4 -29l-31 -3h-31l-33 3l-27 -6l-16 -9v-21l-2 -13l2 -19v-47zM114 -17l9 -2h17q3 2 6.5 2.5t7.5 2.5l22 -5h25l14 3h56l16 -2l15 5l18 -2l35 10l10 34l-2 18l2 14l-2 18l16 -2l6 -48l-2 -12l2 -14l-8 -25l-26 -8l-17 2l-15 -5l-13 2h-60l-14 -3
h-17l-26 6l-17 -6h-11l-45 9zM242 838l4 -15l7 -16l16 -38l-9 -12l-24 -11l-19 6l-29 24l-27 26l-26 34l5 17l52 7l16 -5h20zM277 808l4 -15l7 -16l16 -38l-9 -12l-24 -11l-19 6l-12 10l30 13l16 22l-19 46q-2 2 -3.5 5.5t-2.5 6.5h2z" />
    <glyph glyph-name="Eacute" unicode="&#xc9;" horiz-adv-x="409" 
d="M348 663l1 -9l-2 -19l3 -14l-9 -24l-28 -7h-59l-14 -4h-39l-15 -14v-118l-4 -19l3 -46l13 -18h47l19 2l13 -1l16 5l32 -5l3 -29l-2 -30l2 -17l-4 -29l-31 -3h-31l-33 3l-27 -6l-16 -9v-21l-2 -13l2 -19v-59l-3 -12l16 -19l31 -3l28 6h55l31 -5l6 -48l-2 -12l2 -14l-8 -25
l-26 -8l-17 2l-15 -5l-13 2h-60l-14 -3h-17l-26 6l-17 -6h-11l-45 9l-8 44l2 27l-3 33v28l3 15l-1 15l2 15v31l-3 19l3 26l-4 18l3 11v34l-3 10v19l4 16l-3 27l2 18l-2 31l2 29l-2 15l2 27v64l-3 12v28l4 33l-1 15l5 32l31 3l29 -2l12 2l14 -4l15 5l14 -3h30l32 3l13 -2
l13 3l62 -11zM383 633l1 -9l-2 -19l3 -14l-9 -24l-28 -7h-59l-14 -4h-39l-15 -14v-118l-4 -19l1 -19h-13l-5 6l-3 43l4 17v113q4 3 6 6h37l14 4h58l36 9l14 37l-4 18l2 15l-1 10l17 -3zM221 122l-13 2l-8 8l1 6v61l-2 19l2 13v12l7 4l24 5l29 -3h33l44 4l5 41l-2 19l2 31
l17 -2l3 -29l-2 -30l2 -17l-4 -29l-31 -3h-31l-33 3l-27 -6l-16 -9v-21l-2 -13l2 -19v-47zM114 -17l9 -2h17q3 2 6.5 2.5t7.5 2.5l22 -5h25l14 3h56l16 -2l15 5l18 -2l35 10l10 34l-2 18l2 14l-2 18l16 -2l6 -48l-2 -12l2 -14l-8 -25l-26 -8l-17 2l-15 -5l-13 2h-60l-14 -3
h-17l-26 6l-17 -6h-11l-45 9zM246 860l13 -13l2 -13l-20 -27l-20 -19l-8 -10l-28 -25l-17 -3l-25 3l-8 18l12 28l2 9l11 15l21 37h65zM172 735l19 4l32 28l10 13l-1 -3l17 16l26 37h6l13 -13l2 -13l-20 -27l-20 -19l-8 -10l-28 -25l-17 -3l-25 3z" />
    <glyph glyph-name="Ecircumflex" unicode="&#xca;" horiz-adv-x="409" 
d="M348 663l1 -9l-2 -19l3 -14l-9 -24l-28 -7h-59l-14 -4h-39l-15 -14v-118l-4 -19l3 -46l13 -18h47l19 2l13 -1l16 5l32 -5l3 -29l-2 -30l2 -17l-4 -29l-31 -3h-31l-33 3l-27 -6l-16 -9v-21l-2 -13l2 -19v-59l-3 -12l16 -19l31 -3l28 6h55l31 -5l6 -48l-2 -12l2 -14l-8 -25
l-26 -8l-17 2l-15 -5l-13 2h-60l-14 -3h-17l-26 6l-17 -6h-11l-45 9l-8 44l2 27l-3 33v28l3 15l-1 15l2 15v31l-3 19l3 26l-4 18l3 11v34l-3 10v19l4 16l-3 27l2 18l-2 31l2 29l-2 15l2 27v64l-3 12v28l4 33l-1 15l5 32l31 3l29 -2l12 2l14 -4l15 5l14 -3h30l32 3l13 -2
l13 3l62 -11zM383 633l1 -9l-2 -19l3 -14l-9 -24l-28 -7h-59l-14 -4h-39l-15 -14v-118l-4 -19l1 -19h-13l-5 6l-3 43l4 17v113q4 3 6 6h37l14 4h58l36 9l14 37l-4 18l2 15l-1 10l17 -3zM221 122l-13 2l-8 8l1 6v61l-2 19l2 13v12l7 4l24 5l29 -3h33l44 4l5 41l-2 19l2 31
l17 -2l3 -29l-2 -30l2 -17l-4 -29l-31 -3h-31l-33 3l-27 -6l-16 -9v-21l-2 -13l2 -19v-47zM114 -17l9 -2h17q3 2 6.5 2.5t7.5 2.5l22 -5h25l14 3h56l16 -2l15 5l18 -2l35 10l10 34l-2 18l2 14l-2 18l16 -2l6 -48l-2 -12l2 -14l-8 -25l-26 -8l-17 2l-15 -5l-13 2h-60l-14 -3
h-17l-26 6l-17 -6h-11l-45 9zM254 839l7 -11l18 -25l12 -25v-12l-12 -16l-33 13l-24 22l-12 7h-25l-10 -11l-14 -8l-8 -7l-22 -13l-19 3l-5 5v20l15 21l7 13l17 27l15 16h23l13 2l17 -4l25 2zM142 731v11l23 14l7 6l13 7l7 8h15q3 -3 6 -4l12 -11h-5l-10 -11l-14 -8l-8 -7
l-22 -13l-19 3zM284 732l22 29v20l-5 9l13 -17l12 -25v-12l-12 -16zM284 732l-4 1h1z" />
    <glyph glyph-name="Edieresis" unicode="&#xcb;" horiz-adv-x="409" 
d="M348 663l1 -9l-2 -19l3 -14l-9 -24l-28 -7h-59l-14 -4h-39l-15 -14v-118l-4 -19l3 -46l13 -18h47l19 2l13 -1l16 5l32 -5l3 -29l-2 -30l2 -17l-4 -29l-31 -3h-31l-33 3l-27 -6l-16 -9v-21l-2 -13l2 -19v-59l-3 -12l16 -19l31 -3l28 6h55l31 -5l6 -48l-2 -12l2 -14l-8 -25
l-26 -8l-17 2l-15 -5l-13 2h-60l-14 -3h-17l-26 6l-17 -6h-11l-45 9l-8 44l2 27l-3 33v28l3 15l-1 15l2 15v31l-3 19l3 26l-4 18l3 11v34l-3 10v19l4 16l-3 27l2 18l-2 31l2 29l-2 15l2 27v64l-3 12v28l4 33l-1 15l5 32l31 3l29 -2l12 2l14 -4l15 5l14 -3h30l32 3l13 -2
l13 3l62 -11zM383 633l1 -9l-2 -19l3 -14l-9 -24l-28 -7h-59l-14 -4h-39l-15 -14v-118l-4 -19l1 -19h-13l-5 6l-3 43l4 17v113q4 3 6 6h37l14 4h58l36 9l14 37l-4 18l2 15l-1 10l17 -3zM221 122l-13 2l-8 8l1 6v61l-2 19l2 13v12l7 4l24 5l29 -3h33l44 4l5 41l-2 19l2 31
l17 -2l3 -29l-2 -30l2 -17l-4 -29l-31 -3h-31l-33 3l-27 -6l-16 -9v-21l-2 -13l2 -19v-47zM114 -17l9 -2h17q3 2 6.5 2.5t7.5 2.5l22 -5h25l14 3h56l16 -2l15 5l18 -2l35 10l10 34l-2 18l2 14l-2 18l16 -2l6 -48l-2 -12l2 -14l-8 -25l-26 -8l-17 2l-15 -5l-13 2h-60l-14 -3
h-17l-26 6l-17 -6h-11l-45 9zM80 833l8 12l23 16l29 -4l15 -6l10 -10l10 -7l5 -13l3 -33l-9 -13l-31 -27l-30 2l-24 13l-17 26l2 30zM231 830l6 12l26 17l40 -4l23 -22l7 -13l-7 -44l-11 -11l-12 -8l-9 -3l-30 -2l-26 13l-16 26l3 29zM271 737l25 2l12 4l18 11l14 14l8 47
l13 -12l7 -13l-7 -44l-11 -11l-12 -8l-9 -3l-30 -2l-26 13zM123 734l26 -1l37 32l12 19l-2 31l4 -4l8 -6l-2 -18l11 -17l1 -12l-9 -13l-31 -27l-30 2l-24 13z" />
    <glyph glyph-name="Igrave" unicode="&#xcc;" 
d="M186 662v-40l-4 -18l2 -15v-93l2 -29l-3 -14l3 -16l-4 -27l2 -19l2 -27l-2 -16l2 -29v-31l-2 -17v-44l-2 -27l1 -16l3 -32l-4 -13l2 -18v-30l2 -11v-16l-2 -12l-6 -49l-26 -3l-15 -4l-14 1l-13 5l-31 2l-6 32v59l3 15l-4 15v27l4 18l-1 15v30l-3 17l4 14l-4 11v20l4 15
v14l-4 13l4 14l-3 14l3 18l-4 31v41l4 17v14l-4 13v20l4 31l-2 13l1 16v31l-2 26v34l3 14l2 25l28 10l31 -2l41 -6zM221 632v-40l-4 -18l2 -15v-93l2 -29l-3 -14l3 -16l-4 -27l2 -19l2 -27l-2 -16l2 -29v-31l-2 -17v-44l-2 -27l1 -16l3 -32l-4 -13l2 -18v-30l2 -11v-16
l-2 -12l-6 -49l-26 -3l-15 -4l-14 1l-13 5l-31 2l-2 11l7 -3l21 -1l14 4l38 5l7 60l2 14v16l-2 11v30q0 2 -1 7t-1 7l4 14l-3 36l-1 15l2 27v44l2 17v31l-2 29l2 16l-2 27q0 4 -1 9.5t-1 9.5l4 28q-1 2 -1.5 6.5t-0.5 6.5l2 12l-2 33v93q0 3 -1 7.5t-1 7.5l4 16v45l12 -2z
M170 838l4 -15l7 -16l16 -38l-9 -12l-24 -11l-19 6l-29 24l-27 26l-26 34l5 17l52 7l16 -5h20zM205 808l4 -15l7 -16l16 -38l-9 -12l-24 -11l-19 6l-12 10l30 13l16 22l-19 46q-2 2 -3.5 5.5t-2.5 6.5h2z" />
    <glyph glyph-name="Iacute" unicode="&#xcd;" 
d="M186 662v-40l-4 -18l2 -15v-93l2 -29l-3 -14l3 -16l-4 -27l2 -19l2 -27l-2 -16l2 -29v-31l-2 -17v-44l-2 -27l1 -16l3 -32l-4 -13l2 -18v-30l2 -11v-16l-2 -12l-6 -49l-26 -3l-15 -4l-14 1l-13 5l-31 2l-6 32v59l3 15l-4 15v27l4 18l-1 15v30l-3 17l4 14l-4 11v20l4 15
v14l-4 13l4 14l-3 14l3 18l-4 31v41l4 17v14l-4 13v20l4 31l-2 13l1 16v31l-2 26v34l3 14l2 25l28 10l31 -2l41 -6zM221 632v-40l-4 -18l2 -15v-93l2 -29l-3 -14l3 -16l-4 -27l2 -19l2 -27l-2 -16l2 -29v-31l-2 -17v-44l-2 -27l1 -16l3 -32l-4 -13l2 -18v-30l2 -11v-16
l-2 -12l-6 -49l-26 -3l-15 -4l-14 1l-13 5l-31 2l-2 11l7 -3l21 -1l14 4l38 5l7 60l2 14v16l-2 11v30q0 2 -1 7t-1 7l4 14l-3 36l-1 15l2 27v44l2 17v31l-2 29l2 16l-2 27q0 4 -1 9.5t-1 9.5l4 28q-1 2 -1.5 6.5t-0.5 6.5l2 12l-2 33v93q0 3 -1 7.5t-1 7.5l4 16v45l12 -2z
M174 860l13 -13l2 -13l-20 -27l-20 -19l-8 -10l-28 -25l-17 -3l-25 3l-8 18l12 28l2 9l11 15l21 37h65zM100 735l19 4l32 28l10 13l-1 -3l17 16l26 37h6l13 -13l2 -13l-20 -27l-20 -19l-8 -10l-28 -25l-17 -3l-25 3z" />
    <glyph glyph-name="Icircumflex" unicode="&#xce;" 
d="M186 662v-40l-4 -18l2 -15v-93l2 -29l-3 -14l3 -16l-4 -27l2 -19l2 -27l-2 -16l2 -29v-31l-2 -17v-44l-2 -27l1 -16l3 -32l-4 -13l2 -18v-30l2 -11v-16l-2 -12l-6 -49l-26 -3l-15 -4l-14 1l-13 5l-31 2l-6 32v59l3 15l-4 15v27l4 18l-1 15v30l-3 17l4 14l-4 11v20l4 15
v14l-4 13l4 14l-3 14l3 18l-4 31v41l4 17v14l-4 13v20l4 31l-2 13l1 16v31l-2 26v34l3 14l2 25l28 10l31 -2l41 -6zM221 632v-40l-4 -18l2 -15v-93l2 -29l-3 -14l3 -16l-4 -27l2 -19l2 -27l-2 -16l2 -29v-31l-2 -17v-44l-2 -27l1 -16l3 -32l-4 -13l2 -18v-30l2 -11v-16
l-2 -12l-6 -49l-26 -3l-15 -4l-14 1l-13 5l-31 2l-2 11l7 -3l21 -1l14 4l38 5l7 60l2 14v16l-2 11v30q0 2 -1 7t-1 7l4 14l-3 36l-1 15l2 27v44l2 17v31l-2 29l2 16l-2 27q0 4 -1 9.5t-1 9.5l4 28q-1 2 -1.5 6.5t-0.5 6.5l2 12l-2 33v93q0 3 -1 7.5t-1 7.5l4 16v45l12 -2z
M182 839l7 -11l18 -25l12 -25v-12l-12 -16l-33 13l-24 22l-12 7h-25l-10 -11l-14 -8l-8 -7l-22 -13l-19 3l-5 5v20l15 21l7 13l17 27l15 16h23l13 2l17 -4l25 2zM70 731v11l23 14l7 6l13 7l7 8h15q3 -3 6 -4l12 -11h-5l-10 -11l-14 -8l-8 -7l-22 -13l-19 3zM212 732l22 29
v20l-5 9l13 -17l12 -25v-12l-12 -16zM212 732l-4 1h1z" />
    <glyph glyph-name="Idieresis" unicode="&#xcf;" 
d="M186 662v-40l-4 -18l2 -15v-93l2 -29l-3 -14l3 -16l-4 -27l2 -19l2 -27l-2 -16l2 -29v-31l-2 -17v-44l-2 -27l1 -16l3 -32l-4 -13l2 -18v-30l2 -11v-16l-2 -12l-6 -49l-26 -3l-15 -4l-14 1l-13 5l-31 2l-6 32v59l3 15l-4 15v27l4 18l-1 15v30l-3 17l4 14l-4 11v20l4 15
v14l-4 13l4 14l-3 14l3 18l-4 31v41l4 17v14l-4 13v20l4 31l-2 13l1 16v31l-2 26v34l3 14l2 25l28 10l31 -2l41 -6zM221 632v-40l-4 -18l2 -15v-93l2 -29l-3 -14l3 -16l-4 -27l2 -19l2 -27l-2 -16l2 -29v-31l-2 -17v-44l-2 -27l1 -16l3 -32l-4 -13l2 -18v-30l2 -11v-16
l-2 -12l-6 -49l-26 -3l-15 -4l-14 1l-13 5l-31 2l-2 11l7 -3l21 -1l14 4l38 5l7 60l2 14v16l-2 11v30q0 2 -1 7t-1 7l4 14l-3 36l-1 15l2 27v44l2 17v31l-2 29l2 16l-2 27q0 4 -1 9.5t-1 9.5l4 28q-1 2 -1.5 6.5t-0.5 6.5l2 12l-2 33v93q0 3 -1 7.5t-1 7.5l4 16v45l12 -2z
M8 833l8 12l23 16l29 -4l15 -6l10 -10l10 -7l5 -13l3 -33l-9 -13l-31 -27l-30 2l-24 13l-17 26l2 30zM159 830l6 12l26 17l40 -4l23 -22l7 -13l-7 -44l-11 -11l-12 -8l-9 -3l-30 -2l-26 13l-16 26l3 29zM199 737l25 2l12 4l18 11l14 14l8 47l13 -12l7 -13l-7 -44l-11 -11
l-12 -8l-9 -3l-30 -2l-26 13zM51 734l26 -1l37 32l12 19l-2 31l4 -4l8 -6l-2 -18l11 -17l1 -12l-9 -13l-31 -27l-30 2l-24 13z" />
    <glyph glyph-name="Eth" unicode="&#xd0;" horiz-adv-x="471" 
d="M110 700l17 2l13 -1l17 -5l31 3l17 -2l32 3l12 -2l31 -10l26 -10l11 -11l14 -8l19 -23l20 -19l8 -17l12 -24l10 -13l4 -19l8 -25l11 -31v-12l7 -33l-1 -13l6 -17l-2 -17l4 -34l-2 -28l-2 -30l2 -16l-3 -27l-4 -12l-2 -19l-5 -16l-1 -10l-5 -28l-9 -16l-8 -27l-12 -29
l-11 -15l-14 -21l-22 -24l-11 -5l-11 -14l-14 -7l-26 -10h-12l-17 -8l-13 -2h-79l-13 -2l-16 4l-46 7l-9 28l4 14l-3 17l2 30l-3 27l4 15l-4 11l4 19v75l-4 27l-12 13l-32 7l-7 28l10 32l29 2l15 16l-2 13l2 15l-2 17l2 14l-1 15l-2 31l4 13l-4 19l4 15l-3 27l3 13v28l-4 19
l3 15l-3 12l4 14l-3 17l9 28zM233 318l-5 -29l-28 -4l-14 -15v-17l-3 -14v-40l3 -18l-3 -12v-14l3 -13l-4 -16l19 -14h32l28 11l23 22l12 31l13 27l7 30l4 29v16l3 15v103l-2 31l-7 27l-4 26l-6 19l-6 12l-3 16l-6 13l-9 9l-18 25l-28 15l-32 -2l-20 -9l4 -32l-2 -16l1 -12
v-18l-3 -11l2 -31l-1 -15l3 -13l-4 -16l3 -15v-31l14 -13l31 -4zM113 -13l12 -2h-1l16 -4l16 2h79l16 2l17 8h11l29 11l19 10l11 13l10 5l25 27l15 23v-1l11 16l14 32q2 7 4 13t4 13l9 15l5 32q0 2 0.5 4.5t0.5 4.5l5 16q0 4 0.5 8.5t1.5 9.5l4 11l3 30l-2 18l2 30l2 29
l-4 33l2 20l-6 18l1 12l-7 31v12l-12 34h1l-8 25l-5 19l11 -21l10 -13l4 -19l8 -25l11 -31v-12l7 -33l-1 -13l6 -17l-2 -17l4 -34l-2 -28l-2 -30l2 -16l-3 -27l-4 -12l-2 -19l-5 -16l-1 -10l-5 -28l-9 -16l-8 -27l-12 -29l-11 -15l-14 -21l-22 -24l-11 -5l-11 -14l-14 -7
l-26 -10h-12l-17 -8l-13 -2h-79l-13 -2l-16 4l-46 7zM268 288l-5 -29l-28 -4l-14 -15v-17l-3 -14v-40l3 -18l-3 -12v-12h-14l-5 4l3 11l-4 17v6l4 14l-4 20v36l3 14v16l5 5l36 5l6 42l-1 6l18 -2zM220 368l-14 2l-6 6v26l-3 12l5 16l-4 17l1 11q0 7 -1 14t-1 14l3 12v20
l-1 12l2 17l-3 22q6 2 7 3q7 0 13 1t13 1l21 -11l3 -5l-18 -1l-20 -9l4 -32l-2 -16l1 -12v-18l-3 -11l2 -31l-1 -15l3 -13l-4 -16l3 -15v-1zM405 587l7 -16l-10 14l-5 9z" />
    <glyph glyph-name="Ntilde" unicode="&#xd1;" horiz-adv-x="522" 
d="M191 673l13 -28l2 -15l14 -26l3 -11l9 -31l15 -24l2 -12l7 -20l5 -8l9 -32l9 -13l4 -14l8 -25l15 -26l1 -14l11 -27l10 -14l3 -14l3 -1v43l4 17l-4 31l3 18v210l-2 12l5 46l28 3l29 4l15 -6l28 -2l6 -27l-2 -17l4 -16l-3 -16l2 -13v-17l-3 -28l4 -15v-30l-4 -14v-125
l3 -29l-2 -13l3 -18v-40l-4 -29v-35l3 -12l-3 -15l1 -15v-118l3 -16l-9 -32l-26 -4h-48l-24 6l-10 18l-11 29l-8 11l-2 19l-8 13l-5 13l-9 27l-9 10l-3 20l-10 27l-9 13l-3 11l-10 30l-8 11l-5 17l-6 8l-8 34l-8 10l-7 25l-9 15l-3 16l-4 -2v-44l-4 -19v-24l4 -18v-16
l-3 -29l2 -16l-3 -12l2 -16v-34l2 -11l-3 -30l3 -34l-5 -27v-45l-29 -10h-45l-28 8l-6 29l3 14l-3 14l3 16v65l-3 10l1 14v34l2 15v29l-3 13l3 14l-2 19l1 16v76l-3 15l3 28v62l-3 27l4 12l-3 32l3 19l-3 10l2 19l-3 12l4 18l-2 28l5 30l28 8l18 -6l14 6l14 -5l28 -3z
M371 -15h44l35 5l13 47l-3 18v115q0 3 -0.5 7t-0.5 7l4 16l-4 14v33l4 27v44l-3 16l2 15l-3 29v119l4 14v37l-4 12l3 26v19q0 2 -1 5t-1 5l4 19l-5 17l1 14l15 -1l6 -27l-2 -17l4 -16l-3 -16l2 -13v-17l-3 -28l4 -15v-30l-4 -14v-125l3 -29l-2 -13l3 -18v-40l-4 -29v-35
l3 -12l-3 -15l1 -15v-118l3 -16l-9 -32l-26 -4h-48l-24 6zM112 -19h42l42 14v56l5 26l-3 36l3 28l-2 12v34q0 2 -1 6t-1 6l3 12q0 4 -1 9t-1 9l3 29v20l-4 16v25l5 -5l9 -39l6 -7v-4l4 -18v-16l-3 -29l2 -16l-3 -12l2 -16v-34l2 -11l-3 -30l3 -34l-5 -27v-45l-29 -10h-45
l-28 8zM226 643l13 -28l2 -15l14 -26l3 -11l9 -31l15 -24l2 -12l7 -20l5 -8l9 -32l9 -13l6 -21l3 -21l-1 -4l-1 16q-4 5 -7.5 13t-7.5 14l-8 23l-4 15l-12 17l-8 30l-4 6l-6 16l-2 16l-17 27l1 -4l-9 31l-3 12q-2 5 -6 11.5t-7 12.5l-2 16l-7 15h4zM139 820l7 17l14 9l24 9
h31l13 -4h17l14 -9l12 -2l15 -9l16 -5l34 3l15 5h31l17 -16v-19l-15 -18l-26 -13l-25 -17h-30l-14 8l-15 5l-26 13l-24 9h-26l-13 -6l-45 -5l-11 15l-5 12zM305 736h33l28 19h-1l30 15l19 23v11h3l17 -16v-19l-15 -18l-26 -13l-25 -17h-30l-14 8l-15 5zM163 762l25 3l14 6
h19q5 -2 10 -3.5t10 -3.5l16 -8h-24l-13 -6l-45 -5l-11 15z" />
    <glyph glyph-name="Ograve" unicode="&#xd2;" horiz-adv-x="468" 
d="M62 570v18l10 29l17 22l7 15l21 21l16 6l11 11l15 7l30 10h26l34 5l15 -2l28 -8l17 -8l12 -3l14 -12l25 -15l19 -24l6 -14l9 -12l5 -11l4 -15l9 -31v-63l-2 -11l3 -20v-61l-2 -9l2 -30v-76l-2 -17l2 -14l-3 -32v-26l3 -45l-5 -18l1 -14l-8 -31l-7 -15l-10 -10l-6 -13
l-9 -9l-22 -24l-12 -8l-16 -3l-14 -11h-13l-12 -5l-34 -7h-31l-28 3l-13 6l-16 3l-25 19l-11 4l-14 10l-8 12l-18 21l-7 18l-8 13l-2 13l-6 14l-1 12l-6 47l1 16v31l2 28l-2 14l1 13v96l-2 13l3 16v31l-2 9l2 21l-2 13l1 16v60zM169 134l20 -25l12 -2l18 -7h30l30 14l10 8
l11 28v29l3 36l-2 24v48l2 30l-4 27v35l4 10l-4 17v43l3 20l-3 10v64l-3 15l-5 11l-18 22l-14 3l-10 7l-46 -5l-12 -10l-15 -17l-7 -11l-6 -15v-32l3 -14l-3 -13l3 -19l-4 -12v-34l3 -12l-3 -18v-60l4 -9l-3 -18l3 -28l-4 -32v-18l3 -25v-49zM185 -25l28 -3h36l34 7
q2 1 6 2.5t7 2.5h14l15 12l13 2l18 11l24 26v-1l9 9l6 13l12 12l9 20l8 32q0 2 -0.5 8t-0.5 9l5 17l-3 47v24l3 32l-2 15l2 17v76l-2 30l2 9v63l-3 20l2 9v64l-10 34l1 -1l-4 12l-6 14l6 -7l6 -14l9 -12l5 -11l4 -15l9 -31v-63l-2 -11l3 -20v-61l-2 -9l2 -30v-76l-2 -17
l2 -14l-3 -32v-26l3 -45l-5 -18l1 -14l-8 -31l-7 -15l-10 -10l-6 -13l-9 -9l-22 -24l-12 -8l-16 -3l-14 -11h-13l-12 -5l-34 -7h-31l-28 3l-13 6l-16 3zM180 201l-3 25v15l4 34l-3 28l3 17q-1 1 -2 4.5t-2 5.5v59l4 19l-4 13v28l5 14l-4 18l4 16l-4 18v24l5 13l-2 -2l7 11
l-1 -3l15 17l7 6q11 1 18 2.5t18 2.5l14 -8q2 -1 3.5 -0.5t3.5 -0.5l6 -8l-34 -3l-12 -10l-15 -17l-7 -11l-6 -15v-32l3 -14l-3 -13l3 -19l-4 -12v-34l3 -12l-3 -18v-60l4 -9l-3 -18l3 -28l-4 -32v-18l3 -25v-47q-1 0 -1 0.5t-1 0.5q-4 5 -7 9t-7 8l-4 12v49zM273 838l4 -15
l7 -16l16 -38l-9 -12l-24 -11l-19 6l-29 24l-27 26l-26 34l5 17l52 7l16 -5h20zM308 808l4 -15l7 -16l16 -38l-9 -12l-24 -11l-19 6l-12 10l30 13l16 22l-19 46q-2 2 -3.5 5.5t-2.5 6.5h2z" />
    <glyph glyph-name="Oacute" unicode="&#xd3;" horiz-adv-x="468" 
d="M62 570v18l10 29l17 22l7 15l21 21l16 6l11 11l15 7l30 10h26l34 5l15 -2l28 -8l17 -8l12 -3l14 -12l25 -15l19 -24l6 -14l9 -12l5 -11l4 -15l9 -31v-63l-2 -11l3 -20v-61l-2 -9l2 -30v-76l-2 -17l2 -14l-3 -32v-26l3 -45l-5 -18l1 -14l-8 -31l-7 -15l-10 -10l-6 -13
l-9 -9l-22 -24l-12 -8l-16 -3l-14 -11h-13l-12 -5l-34 -7h-31l-28 3l-13 6l-16 3l-25 19l-11 4l-14 10l-8 12l-18 21l-7 18l-8 13l-2 13l-6 14l-1 12l-6 47l1 16v31l2 28l-2 14l1 13v96l-2 13l3 16v31l-2 9l2 21l-2 13l1 16v60zM169 134l20 -25l12 -2l18 -7h30l30 14l10 8
l11 28v29l3 36l-2 24v48l2 30l-4 27v35l4 10l-4 17v43l3 20l-3 10v64l-3 15l-5 11l-18 22l-14 3l-10 7l-46 -5l-12 -10l-15 -17l-7 -11l-6 -15v-32l3 -14l-3 -13l3 -19l-4 -12v-34l3 -12l-3 -18v-60l4 -9l-3 -18l3 -28l-4 -32v-18l3 -25v-49zM185 -25l28 -3h36l34 7
q2 1 6 2.5t7 2.5h14l15 12l13 2l18 11l24 26v-1l9 9l6 13l12 12l9 20l8 32q0 2 -0.5 8t-0.5 9l5 17l-3 47v24l3 32l-2 15l2 17v76l-2 30l2 9v63l-3 20l2 9v64l-10 34l1 -1l-4 12l-6 14l6 -7l6 -14l9 -12l5 -11l4 -15l9 -31v-63l-2 -11l3 -20v-61l-2 -9l2 -30v-76l-2 -17
l2 -14l-3 -32v-26l3 -45l-5 -18l1 -14l-8 -31l-7 -15l-10 -10l-6 -13l-9 -9l-22 -24l-12 -8l-16 -3l-14 -11h-13l-12 -5l-34 -7h-31l-28 3l-13 6l-16 3zM180 201l-3 25v15l4 34l-3 28l3 17q-1 1 -2 4.5t-2 5.5v59l4 19l-4 13v28l5 14l-4 18l4 16l-4 18v24l5 13l-2 -2l7 11
l-1 -3l15 17l7 6q11 1 18 2.5t18 2.5l14 -8q2 -1 3.5 -0.5t3.5 -0.5l6 -8l-34 -3l-12 -10l-15 -17l-7 -11l-6 -15v-32l3 -14l-3 -13l3 -19l-4 -12v-34l3 -12l-3 -18v-60l4 -9l-3 -18l3 -28l-4 -32v-18l3 -25v-47q-1 0 -1 0.5t-1 0.5q-4 5 -7 9t-7 8l-4 12v49zM277 860
l13 -13l2 -13l-20 -27l-20 -19l-8 -10l-28 -25l-17 -3l-25 3l-8 18l12 28l2 9l11 15l21 37h65zM203 735l19 4l32 28l10 13l-1 -3l17 16l26 37h6l13 -13l2 -13l-20 -27l-20 -19l-8 -10l-28 -25l-17 -3l-25 3z" />
    <glyph glyph-name="Ocircumflex" unicode="&#xd4;" horiz-adv-x="468" 
d="M62 570v18l10 29l17 22l7 15l21 21l16 6l11 11l15 7l30 10h26l34 5l15 -2l28 -8l17 -8l12 -3l14 -12l25 -15l19 -24l6 -14l9 -12l5 -11l4 -15l9 -31v-63l-2 -11l3 -20v-61l-2 -9l2 -30v-76l-2 -17l2 -14l-3 -32v-26l3 -45l-5 -18l1 -14l-8 -31l-7 -15l-10 -10l-6 -13
l-9 -9l-22 -24l-12 -8l-16 -3l-14 -11h-13l-12 -5l-34 -7h-31l-28 3l-13 6l-16 3l-25 19l-11 4l-14 10l-8 12l-18 21l-7 18l-8 13l-2 13l-6 14l-1 12l-6 47l1 16v31l2 28l-2 14l1 13v96l-2 13l3 16v31l-2 9l2 21l-2 13l1 16v60zM169 134l20 -25l12 -2l18 -7h30l30 14l10 8
l11 28v29l3 36l-2 24v48l2 30l-4 27v35l4 10l-4 17v43l3 20l-3 10v64l-3 15l-5 11l-18 22l-14 3l-10 7l-46 -5l-12 -10l-15 -17l-7 -11l-6 -15v-32l3 -14l-3 -13l3 -19l-4 -12v-34l3 -12l-3 -18v-60l4 -9l-3 -18l3 -28l-4 -32v-18l3 -25v-49zM185 -25l28 -3h36l34 7
q2 1 6 2.5t7 2.5h14l15 12l13 2l18 11l24 26v-1l9 9l6 13l12 12l9 20l8 32q0 2 -0.5 8t-0.5 9l5 17l-3 47v24l3 32l-2 15l2 17v76l-2 30l2 9v63l-3 20l2 9v64l-10 34l1 -1l-4 12l-6 14l6 -7l6 -14l9 -12l5 -11l4 -15l9 -31v-63l-2 -11l3 -20v-61l-2 -9l2 -30v-76l-2 -17
l2 -14l-3 -32v-26l3 -45l-5 -18l1 -14l-8 -31l-7 -15l-10 -10l-6 -13l-9 -9l-22 -24l-12 -8l-16 -3l-14 -11h-13l-12 -5l-34 -7h-31l-28 3l-13 6l-16 3zM180 201l-3 25v15l4 34l-3 28l3 17q-1 1 -2 4.5t-2 5.5v59l4 19l-4 13v28l5 14l-4 18l4 16l-4 18v24l5 13l-2 -2l7 11
l-1 -3l15 17l7 6q11 1 18 2.5t18 2.5l14 -8q2 -1 3.5 -0.5t3.5 -0.5l6 -8l-34 -3l-12 -10l-15 -17l-7 -11l-6 -15v-32l3 -14l-3 -13l3 -19l-4 -12v-34l3 -12l-3 -18v-60l4 -9l-3 -18l3 -28l-4 -32v-18l3 -25v-47q-1 0 -1 0.5t-1 0.5q-4 5 -7 9t-7 8l-4 12v49zM285 839l7 -11
l18 -25l12 -25v-12l-12 -16l-33 13l-24 22l-12 7h-25l-10 -11l-14 -8l-8 -7l-22 -13l-19 3l-5 5v20l15 21l7 13l17 27l15 16h23l13 2l17 -4l25 2zM173 731v11l23 14l7 6l13 7l7 8h15q3 -3 6 -4l12 -11h-5l-10 -11l-14 -8l-8 -7l-22 -13l-19 3zM315 732l22 29v20l-5 9l13 -17
l12 -25v-12l-12 -16zM315 732l-4 1h1z" />
    <glyph glyph-name="Otilde" unicode="&#xd5;" horiz-adv-x="468" 
d="M62 570v18l10 29l17 22l7 15l21 21l16 6l11 11l15 7l30 10h26l34 5l15 -2l28 -8l17 -8l12 -3l14 -12l25 -15l19 -24l6 -14l9 -12l5 -11l4 -15l9 -31v-63l-2 -11l3 -20v-61l-2 -9l2 -30v-76l-2 -17l2 -14l-3 -32v-26l3 -45l-5 -18l1 -14l-8 -31l-7 -15l-10 -10l-6 -13
l-9 -9l-22 -24l-12 -8l-16 -3l-14 -11h-13l-12 -5l-34 -7h-31l-28 3l-13 6l-16 3l-25 19l-11 4l-14 10l-8 12l-18 21l-7 18l-8 13l-2 13l-6 14l-1 12l-6 47l1 16v31l2 28l-2 14l1 13v96l-2 13l3 16v31l-2 9l2 21l-2 13l1 16v60zM169 134l20 -25l12 -2l18 -7h30l30 14l10 8
l11 28v29l3 36l-2 24v48l2 30l-4 27v35l4 10l-4 17v43l3 20l-3 10v64l-3 15l-5 11l-18 22l-14 3l-10 7l-46 -5l-12 -10l-15 -17l-7 -11l-6 -15v-32l3 -14l-3 -13l3 -19l-4 -12v-34l3 -12l-3 -18v-60l4 -9l-3 -18l3 -28l-4 -32v-18l3 -25v-49zM185 -25l28 -3h36l34 7
q2 1 6 2.5t7 2.5h14l15 12l13 2l18 11l24 26v-1l9 9l6 13l12 12l9 20l8 32q0 2 -0.5 8t-0.5 9l5 17l-3 47v24l3 32l-2 15l2 17v76l-2 30l2 9v63l-3 20l2 9v64l-10 34l1 -1l-4 12l-6 14l6 -7l6 -14l9 -12l5 -11l4 -15l9 -31v-63l-2 -11l3 -20v-61l-2 -9l2 -30v-76l-2 -17
l2 -14l-3 -32v-26l3 -45l-5 -18l1 -14l-8 -31l-7 -15l-10 -10l-6 -13l-9 -9l-22 -24l-12 -8l-16 -3l-14 -11h-13l-12 -5l-34 -7h-31l-28 3l-13 6l-16 3zM180 201l-3 25v15l4 34l-3 28l3 17q-1 1 -2 4.5t-2 5.5v59l4 19l-4 13v28l5 14l-4 18l4 16l-4 18v24l5 13l-2 -2l7 11
l-1 -3l15 17l7 6q11 1 18 2.5t18 2.5l14 -8q2 -1 3.5 -0.5t3.5 -0.5l6 -8l-34 -3l-12 -10l-15 -17l-7 -11l-6 -15v-32l3 -14l-3 -13l3 -19l-4 -12v-34l3 -12l-3 -18v-60l4 -9l-3 -18l3 -28l-4 -32v-18l3 -25v-47q-1 0 -1 0.5t-1 0.5q-4 5 -7 9t-7 8l-4 12v49zM107 820l7 17
l14 9l24 9h31l13 -4h17l14 -9l12 -2l15 -9l16 -5l34 3l15 5h31l17 -16v-19l-15 -18l-26 -13l-25 -17h-30l-14 8l-15 5l-26 13l-24 9h-26l-13 -6l-45 -5l-11 15l-5 12zM273 736h33l28 19h-1l30 15l19 23v11h3l17 -16v-19l-15 -18l-26 -13l-25 -17h-30l-14 8l-15 5zM131 762
l25 3l14 6h19q5 -2 10 -3.5t10 -3.5l16 -8h-24l-13 -6l-45 -5l-11 15z" />
    </font>
</defs>
</svg>
