<?xml version="1.0" encoding="iso-8859-1"?>
<!-- Generator: Adobe Illustrator 19.0.0, SVG Export Plug-In . SVG Version: 6.00 Build 0)  -->
<svg version="1.1" id="Capa_1" xmlns="http://www.w3.org/2000/svg" xmlns:xlink="http://www.w3.org/1999/xlink" x="0px" y="0px"
	 viewBox="0 0 71.906 71.906" style="enable-background:new 0 0 71.906 71.906;" xml:space="preserve">
<g>
	<path style="fill:#fded18;" d="M35.954,58.623c-0.553,0-1-0.448-1-1V1c0-0.552,0.447-1,1-1s1,0.448,1,1v56.623C36.954,58.175,36.506,58.623,35.954,58.623
		z"/>
	<path style="fill:#fded18;" d="M35.954,60.864c-0.256,0-0.512-0.098-0.707-0.293l-9.896-9.896c-0.391-0.391-0.391-1.023,0-1.414s1.023-0.391,1.414,0
		l9.896,9.896c0.391,0.391,0.391,1.023,0,1.414C36.465,60.767,36.209,60.864,35.954,60.864z"/>
	<path style="fill:#fded18;" d="M35.954,60.864c-0.256,0-0.512-0.098-0.707-0.293c-0.391-0.391-0.391-1.023,0-1.414l9.991-9.99
		c0.391-0.391,1.023-0.391,1.414,0s0.391,1.023,0,1.414l-9.991,9.99C36.465,60.767,36.209,60.864,35.954,60.864z"/>
	<path style="fill:#fded18;" d="M35.963,71.906c-2.104,0-4.203-0.182-6.249-0.54c-0.544-0.095-0.907-0.613-0.813-1.157s0.605-0.908,1.158-0.813
		c1.931,0.338,3.914,0.509,5.894,0.509l0.152,0c0.553,0,1,0.448,1,1s-0.447,1-1,1L35.963,71.906z M42.169,71.355
		c-0.475,0-0.896-0.339-0.983-0.823c-0.098-0.543,0.264-1.063,0.808-1.161c1.94-0.349,3.86-0.871,5.707-1.551
		c0.518-0.192,1.093,0.074,1.284,0.593c0.19,0.518-0.074,1.093-0.593,1.284c-1.956,0.721-3.99,1.273-6.045,1.643
		C42.288,71.35,42.228,71.355,42.169,71.355z M24.004,69.811c-0.113,0-0.229-0.02-0.342-0.061c-1.959-0.713-3.87-1.604-5.679-2.65
		c-0.479-0.276-0.643-0.888-0.366-1.366c0.276-0.478,0.889-0.643,1.366-0.365c1.709,0.987,3.513,1.829,5.362,2.501
		c0.52,0.189,0.787,0.763,0.598,1.282C24.796,69.559,24.413,69.811,24.004,69.811z M53.551,67.16c-0.344,0-0.679-0.177-0.864-0.496
		c-0.278-0.477-0.118-1.089,0.359-1.368c1.699-0.992,3.324-2.141,4.829-3.415c0.424-0.357,1.053-0.305,1.41,0.117
		c0.356,0.421,0.304,1.053-0.117,1.409c-1.595,1.349-3.315,2.566-5.114,3.616C53.896,67.116,53.722,67.16,53.551,67.16z
		 M13.496,63.739c-0.227,0-0.454-0.077-0.642-0.234c-1.6-1.342-3.091-2.832-4.432-4.427c-0.355-0.423-0.301-1.054,0.122-1.409
		s1.053-0.301,1.409,0.122c1.267,1.507,2.675,2.914,4.186,4.182c0.423,0.355,0.479,0.986,0.123,1.409
		C14.065,63.618,13.782,63.739,13.496,63.739z M62.811,59.321c-0.226,0-0.452-0.076-0.64-0.232
		c-0.424-0.354-0.481-0.984-0.128-1.408c1.264-1.516,2.401-3.15,3.381-4.856c0.274-0.48,0.885-0.646,1.365-0.37
		c0.479,0.275,0.645,0.886,0.369,1.365c-1.037,1.807-2.241,3.537-3.578,5.142C63.382,59.199,63.098,59.321,62.811,59.321z
		 M5.69,54.452c-0.345,0-0.681-0.179-0.866-0.499c-1.046-1.805-1.938-3.713-2.654-5.671C1.98,47.763,2.247,47.189,2.766,47
		c0.519-0.188,1.093,0.078,1.282,0.596c0.676,1.85,1.519,3.651,2.506,5.355c0.277,0.478,0.114,1.09-0.364,1.367
		C6.033,54.409,5.86,54.452,5.69,54.452z M68.849,48.794c-0.112,0-0.228-0.02-0.34-0.06c-0.52-0.188-0.788-0.76-0.601-1.28
		c0.667-1.848,1.174-3.771,1.508-5.717c0.093-0.544,0.603-0.907,1.154-0.817c0.544,0.094,0.91,0.61,0.816,1.155
		c-0.354,2.062-0.891,4.1-1.598,6.058C69.643,48.541,69.258,48.794,68.849,48.794z M1.531,43.058c-0.477,0-0.898-0.341-0.984-0.827
		C0.187,40.188,0.003,38.088,0,35.993C0,35.44,0.447,34.992,1,34.991H1c0.552,0,0.999,0.447,1,0.999
		c0.003,1.981,0.177,3.964,0.517,5.895c0.096,0.544-0.269,1.063-0.813,1.158C1.646,43.053,1.588,43.058,1.531,43.058z
		 M70.906,36.839c-0.551,0-0.998-0.446-1-0.997c-0.006-1.977-0.184-3.959-0.528-5.892c-0.097-0.544,0.265-1.063,0.809-1.16
		c0.543-0.095,1.063,0.265,1.16,0.809c0.365,2.046,0.554,4.145,0.56,6.238c0.002,0.552-0.445,1.001-0.997,1.003
		C70.908,36.839,70.907,36.839,70.906,36.839z M1.519,30.925c-0.057,0-0.114-0.005-0.172-0.015
		c-0.545-0.095-0.909-0.613-0.814-1.157C0.89,27.7,1.431,25.663,2.142,23.7c0.188-0.519,0.758-0.786,1.281-0.6
		c0.519,0.188,0.787,0.762,0.6,1.281c-0.671,1.854-1.183,3.777-1.52,5.716C2.418,30.583,1.997,30.925,1.519,30.925z M68.772,24.896
		c-0.407,0-0.79-0.251-0.938-0.655c-0.679-1.846-1.526-3.645-2.519-5.349c-0.277-0.478-0.116-1.09,0.361-1.368
		c0.478-0.279,1.089-0.117,1.367,0.361c1.051,1.805,1.948,3.711,2.667,5.666c0.19,0.519-0.075,1.093-0.594,1.284
		C69.003,24.876,68.886,24.896,68.772,24.896z M5.652,19.517c-0.169,0-0.341-0.043-0.498-0.134
		c-0.479-0.275-0.644-0.887-0.367-1.366c1.04-1.804,2.247-3.532,3.589-5.134c0.353-0.422,0.984-0.48,1.408-0.125
		c0.424,0.354,0.479,0.985,0.125,1.409c-1.267,1.514-2.407,3.145-3.39,4.849C6.334,19.337,5.998,19.517,5.652,19.517z
		 M62.669,14.413c-0.285,0-0.567-0.121-0.765-0.355c-1.271-1.504-2.682-2.908-4.195-4.172c-0.424-0.354-0.479-0.985-0.126-1.409
		c0.354-0.424,0.983-0.481,1.409-0.126c1.602,1.338,3.096,2.825,4.439,4.417c0.356,0.422,0.304,1.053-0.118,1.409
		C63.125,14.335,62.897,14.413,62.669,14.413z M13.444,10.213c-0.285,0-0.568-0.121-0.766-0.355
		c-0.355-0.422-0.302-1.053,0.12-1.409c1.598-1.346,3.32-2.559,5.122-3.605c0.473-0.278,1.089-0.116,1.366,0.362
		c0.278,0.478,0.115,1.09-0.362,1.367c-1.701,0.988-3.328,2.134-4.837,3.405C13.9,10.136,13.67,10.213,13.444,10.213z M53.355,6.633
		c-0.169,0-0.341-0.043-0.497-0.133c-1.711-0.983-3.517-1.821-5.367-2.49c-0.52-0.188-0.788-0.761-0.601-1.28
		c0.188-0.52,0.762-0.787,1.28-0.601c1.96,0.708,3.872,1.595,5.684,2.637c0.479,0.275,0.645,0.886,0.369,1.365
		C54.038,6.453,53.702,6.633,53.355,6.633z M23.932,4.123c-0.407,0-0.791-0.251-0.939-0.657c-0.189-0.519,0.077-1.093,0.596-1.283
		c1.957-0.717,3.993-1.266,6.049-1.63c0.555-0.092,1.063,0.267,1.159,0.811c0.097,0.544-0.267,1.063-0.81,1.159
		c-1.941,0.344-3.863,0.861-5.711,1.538C24.163,4.103,24.046,4.123,23.932,4.123z M41.945,2.511c-0.057,0-0.113-0.004-0.171-0.015
		C39.866,2.167,37.907,2,35.954,2c-0.553,0-1.038-0.447-1.038-1c0-0.553,0.409-1,0.962-1v1l0.057-1c0.001,0,0.002,0,0.004,0
		c2.085,0,4.156,0.177,6.176,0.526c0.545,0.094,0.909,0.611,0.815,1.156C42.845,2.168,42.422,2.511,41.945,2.511z"/>
</g>
<g>
</g>
<g>
</g>
<g>
</g>
<g>
</g>
<g>
</g>
<g>
</g>
<g>
</g>
<g>
</g>
<g>
</g>
<g>
</g>
<g>
</g>
<g>
</g>
<g>
</g>
<g>
</g>
<g>
</g>
</svg>
